<svg width="42" height="42" viewBox="0 0 42 42" fill="none" xmlns="http://www.w3.org/2000/svg">
<path d="M8.18758 31.625C9.95842 30.2708 11.9376 29.2031 14.1251 28.4218C16.3126 27.6406 18.6042 27.25 21.0001 27.25C23.3959 27.25 25.6876 27.6406 27.8751 28.4218C30.0626 29.2031 32.0417 30.2708 33.8126 31.625C35.0279 30.2013 35.974 28.5868 36.6511 26.7812C37.3282 24.9757 37.6667 23.0486 37.6667 21C37.6667 16.3819 36.0435 12.4496 32.797 9.20308C29.5504 5.95656 25.6181 4.33329 21.0001 4.33329C16.382 4.33329 12.4497 5.95656 9.20321 9.20308C5.95668 12.4496 4.33341 16.3819 4.33341 21C4.33341 23.0486 4.67196 24.9757 5.34904 26.7812C6.02612 28.5868 6.9723 30.2013 8.18758 31.625ZM21.0001 23.0833C18.9515 23.0833 17.224 22.3802 15.8178 20.9739C14.4115 19.5677 13.7084 17.8402 13.7084 15.7916C13.7084 13.743 14.4115 12.0156 15.8178 10.6093C17.224 9.20308 18.9515 8.49996 21.0001 8.49996C23.0487 8.49996 24.7761 9.20308 26.1824 10.6093C27.5886 12.0156 28.2917 13.743 28.2917 15.7916C28.2917 17.8402 27.5886 19.5677 26.1824 20.9739C24.7761 22.3802 23.0487 23.0833 21.0001 23.0833ZM21.0001 41.8333C18.1181 41.8333 15.4098 41.2864 12.8751 40.1927C10.3404 39.0989 8.1355 37.6145 6.2605 35.7395C4.3855 33.8645 2.90112 31.6597 1.80737 29.125C0.713623 26.5902 0.166748 23.8819 0.166748 21C0.166748 18.118 0.713623 15.4097 1.80737 12.875C2.90112 10.3402 4.3855 8.13538 6.2605 6.26038C8.1355 4.38538 10.3404 2.901 12.8751 1.80725C15.4098 0.713501 18.1181 0.166626 21.0001 0.166626C23.882 0.166626 26.5904 0.713501 29.1251 1.80725C31.6598 2.901 33.8647 4.38538 35.7397 6.26038C37.6147 8.13538 39.099 10.3402 40.1928 12.875C41.2865 15.4097 41.8334 18.118 41.8334 21C41.8334 23.8819 41.2865 26.5902 40.1928 29.125C39.099 31.6597 37.6147 33.8645 35.7397 35.7395C33.8647 37.6145 31.6598 39.0989 29.1251 40.1927C26.5904 41.2864 23.882 41.8333 21.0001 41.8333Z" fill="#343643"/>
</svg>
