<svg width="655" height="655" viewBox="0 0 655 655" fill="none" xmlns="http://www.w3.org/2000/svg">
<path d="M327.5 636.254C503.822 636.254 646.76 556.782 646.76 458.749C646.76 360.716 503.822 281.244 327.5 281.244C151.177 281.244 8.23987 360.716 8.23987 458.749C8.23987 556.782 151.177 636.254 327.5 636.254Z" fill="white" fill-opacity="0.64"/>
<path d="M209.587 39.7323L213.334 41.8283V206.469L209.587 204.373V39.7323Z" fill="#6D6969"/>
<path d="M209.587 204.373V44.0029L59.0286 130.921L59.0548 291.292L209.587 204.373Z" fill="#D2FAFF"/>
<path d="M220.303 210.491V29.7108L52.0594 126.9V307.68L220.303 210.491ZM59.0286 295.562V130.921L213.334 41.8414V206.469L59.0286 295.562Z" fill="#B3B3B3"/>
<path d="M213.333 206.469L209.587 204.373L59.0548 291.292L59.0286 295.562L213.333 206.469Z" fill="#E0E0E0"/>
<path d="M171.309 66.0895L175.055 63.928V228.569L171.309 226.473V66.0895Z" fill="#FAFAFA"/>
<path d="M86.7351 114.926L90.4817 112.752V277.393L86.7351 275.31V114.926Z" fill="#6D6969"/>
<path d="M52.0725 307.614L48.339 305.453V124.725L52.0594 126.9L52.0725 307.614Z" fill="#E0E0E0"/>
<path d="M48.339 124.725L52.0594 126.9L220.303 29.7763L216.569 27.6017L48.339 124.725Z" fill="#C9C9C9"/>
<path d="M59.0286 205.971V210.294L213.347 121.201L209.626 119.027L59.0286 205.971Z" fill="#6D6969"/>
<path d="M59.0417 218.325L59.0286 210.294L213.347 121.201L213.333 129.245L59.0417 218.325Z" fill="#959595"/>
<path d="M90.4948 285.436L97.4377 281.427V100.7L90.4948 104.721V285.436Z" fill="#959595"/>
<path d="M175.042 236.612L181.998 232.604V51.8891L175.042 55.8977V236.612Z" fill="#959595"/>
<path d="M90.4817 192.138L86.7351 189.976V114.926L90.4817 112.752V192.138Z" fill="#6D6969"/>
<path d="M175.029 143.327L171.269 141.166V66.1157L175.029 63.9411V143.327Z" fill="#6D6969"/>
<path d="M464.592 197.496L499.621 177.269L611.364 241.747V245.599L576.335 265.825L464.592 201.334V197.496Z" fill="#EBEBEB"/>
<path d="M576.335 261.974L464.592 197.496L499.621 177.269L611.364 241.747L576.335 261.974Z" fill="#B3B3B3"/>
<path d="M576.335 261.974V265.825L611.364 245.599V241.747L576.335 261.974Z" fill="#E6E6E6"/>
<path d="M494.761 145.921L474.207 157.79V196.88L494.761 185.011V145.921Z" fill="#E0E0E0"/>
<path d="M474.862 158.51L494.761 147.087C495.971 148.382 497.564 149.254 499.307 149.576L479.578 160.947C477.905 160.346 476.32 159.526 474.862 158.51Z" fill="white"/>
<path d="M481.491 160.803C480.899 161.106 480.243 161.264 479.578 161.264C478.913 161.264 478.257 161.106 477.665 160.803L474.325 158.89C473.264 158.274 473.264 157.292 474.325 156.689L493.87 145.41L494.709 145.895L475.53 157.056C474.888 157.41 474.888 157.999 475.53 158.366L478.635 160.134C478.994 160.31 479.388 160.402 479.788 160.402C480.187 160.402 480.582 160.31 480.94 160.134L500.21 149.013L501.154 149.563L481.491 160.803Z" fill="#C7C7C7"/>
<path d="M501.088 149.563V188.64L481.438 199.893C480.845 200.19 480.19 200.345 479.526 200.345C478.862 200.345 478.207 200.19 477.613 199.893L474.273 197.967C474.051 197.875 473.86 197.723 473.719 197.529C473.578 197.335 473.493 197.106 473.473 196.867V157.79C473.5 158.026 473.587 158.253 473.727 158.445C473.868 158.638 474.055 158.792 474.273 158.89L477.613 160.816C478.207 161.113 478.862 161.268 479.526 161.268C480.19 161.268 480.845 161.113 481.438 160.816L501.088 149.563Z" fill="#7ABDFB"/>
<path d="M479.578 161.261C478.913 161.277 478.255 161.124 477.665 160.816L474.325 158.89C474.108 158.792 473.92 158.638 473.78 158.445C473.64 158.253 473.552 158.026 473.526 157.79V196.88C473.545 197.119 473.63 197.348 473.771 197.542C473.912 197.736 474.104 197.888 474.325 197.98L477.665 199.906C478.255 200.214 478.913 200.367 479.578 200.351V161.261Z" fill="#BEE0FF"/>
<path d="M503.158 150.742L482.604 162.61V201.714L503.158 189.845V150.742Z" fill="#EBEBEB"/>
<path d="M483.272 163.265L503.158 151.842C504.368 153.137 505.961 154.009 507.704 154.331L487.988 165.702C486.316 165.101 484.73 164.282 483.272 163.265Z" fill="white"/>
<path d="M489.94 165.636C489.346 165.934 488.691 166.089 488.027 166.089C487.363 166.089 486.709 165.934 486.115 165.636L482.722 163.75C482.492 163.674 482.292 163.527 482.151 163.331C482.009 163.134 481.933 162.898 481.933 162.656C481.933 162.414 482.009 162.178 482.151 161.982C482.292 161.786 482.492 161.639 482.722 161.562L502.372 150.309L503.197 150.781L483.914 161.916C483.285 162.283 483.285 162.872 483.914 163.226L487.032 164.995C487.387 165.175 487.78 165.269 488.178 165.269C488.577 165.269 488.969 165.175 489.324 164.995L508.594 153.886L509.538 154.423L489.94 165.636Z" fill="#C7C7C7"/>
<path d="M509.498 154.384V193.474L489.848 204.727C489.255 205.024 488.6 205.179 487.936 205.179C487.272 205.179 486.617 205.024 486.023 204.727L482.67 202.801C482.453 202.708 482.265 202.557 482.127 202.366C481.988 202.174 481.904 201.949 481.884 201.714V162.61C481.902 162.848 481.985 163.076 482.124 163.27C482.262 163.464 482.451 163.616 482.67 163.711L486.023 165.636C486.617 165.934 487.272 166.089 487.936 166.089C488.6 166.089 489.255 165.934 489.848 165.636L509.498 154.384Z" fill="#229EF7"/>
<path d="M487.988 166.095C487.322 166.107 486.664 165.949 486.076 165.636L482.722 163.75C482.503 163.655 482.315 163.503 482.176 163.309C482.038 163.115 481.955 162.887 481.936 162.65V201.74C481.957 201.975 482.041 202.201 482.179 202.392C482.318 202.583 482.505 202.734 482.722 202.827L486.076 204.753C486.664 205.066 487.322 205.223 487.988 205.212V166.095Z" fill="#B14000"/>
<path d="M517.188 161.13L496.647 172.999L503.027 213.281L523.581 201.413L517.188 161.13Z" fill="#EBEBEB"/>
<path d="M497.459 173.562L517.358 162.152C518.895 163.283 520.702 163.992 522.598 164.209L502.922 175.54C501.033 175.087 499.201 174.423 497.459 173.562Z" fill="white"/>
<path d="M504.979 175.409C504.337 175.717 503.64 175.893 502.929 175.927C502.218 175.961 501.507 175.852 500.839 175.606L496.909 174.007C495.665 173.496 495.599 172.606 496.582 171.99L516.232 160.737L517.201 161.13L497.931 172.265C497.289 172.632 497.381 173.169 498.114 173.47L501.756 174.937C502.156 175.085 502.581 175.151 503.006 175.131C503.432 175.11 503.848 175.005 504.232 174.82L523.502 163.75L524.603 164.195L504.979 175.409Z" fill="#C7C7C7"/>
<path d="M524.59 164.156L530.982 204.439L511.332 215.692C510.687 215.998 509.988 216.172 509.275 216.203C508.561 216.235 507.849 216.123 507.18 215.875L503.25 214.277C502.634 214.028 502.293 213.687 502.228 213.32L495.848 173.038C495.848 173.405 496.254 173.745 496.857 174.007L500.787 175.606C501.455 175.851 502.164 175.961 502.875 175.929C503.586 175.898 504.283 175.725 504.926 175.422L524.59 164.156Z" fill="#229EF7"/>
<path d="M503.04 175.92C502.314 175.967 501.586 175.86 500.905 175.606L496.975 174.007C496.372 173.745 496.018 173.405 495.966 173.038L502.346 213.32C502.411 213.687 502.752 214.028 503.368 214.277L507.298 215.875C507.984 216.128 508.715 216.24 509.446 216.202L503.04 175.92Z" fill="#B14000"/>
<path d="M537.637 171.754L517.083 183.636V222.726L537.637 210.858V171.754Z" fill="#E0E0E0"/>
<path d="M517.751 184.278L537.637 172.92C538.854 174.206 540.444 175.077 542.183 175.409L522.467 186.767C520.788 186.158 519.202 185.32 517.751 184.278Z" fill="white"/>
<path d="M524.38 186.649C523.786 186.946 523.131 187.101 522.467 187.101C521.803 187.101 521.148 186.946 520.555 186.649L517.201 184.71C516.971 184.634 516.772 184.487 516.63 184.291C516.488 184.094 516.412 183.858 516.412 183.616C516.412 183.374 516.488 183.138 516.63 182.942C516.772 182.746 516.971 182.599 517.201 182.522L536.851 171.269L537.676 171.741L518.393 182.876C517.764 183.243 517.764 183.832 518.393 184.186L521.498 185.941C521.853 186.122 522.246 186.216 522.644 186.216C523.043 186.216 523.435 186.122 523.79 185.941L543.061 174.833L544.004 175.37L524.38 186.649Z" fill="#C7C7C7"/>
<path d="M543.978 175.396V214.499L524.328 225.739C523.736 226.043 523.08 226.201 522.415 226.201C521.75 226.201 521.094 226.043 520.502 225.739L517.149 223.827C516.93 223.732 516.741 223.58 516.603 223.386C516.464 223.192 516.381 222.964 516.363 222.726V183.623C516.381 183.86 516.464 184.088 516.603 184.282C516.741 184.476 516.93 184.629 517.149 184.723L520.502 186.649C521.096 186.946 521.751 187.101 522.415 187.101C523.079 187.101 523.734 186.946 524.328 186.649L543.978 175.396Z" fill="#7ABDFB"/>
<path d="M522.467 187.107C521.801 187.119 521.143 186.961 520.555 186.649L517.201 184.71C516.982 184.615 516.794 184.463 516.655 184.269C516.517 184.075 516.434 183.847 516.415 183.61V222.7C516.434 222.938 516.517 223.166 516.655 223.359C516.794 223.553 516.982 223.706 517.201 223.8L520.555 225.713C521.141 226.031 521.801 226.189 522.467 226.172V187.107Z" fill="#BEE0FF"/>
<path d="M546.047 176.588L525.494 188.457V227.56L546.047 215.678V176.588Z" fill="#EBEBEB"/>
<path d="M526.148 189.099L546.047 177.688C547.257 178.983 548.85 179.856 550.593 180.177L530.878 191.548C529.198 190.947 527.608 190.123 526.148 189.099Z" fill="white"/>
<path d="M532.777 191.47C532.188 191.773 531.534 191.931 530.871 191.931C530.208 191.931 529.555 191.773 528.965 191.47L525.611 189.557C524.55 188.941 524.55 187.959 525.611 187.356L545.261 176.103L546.1 176.588L526.817 187.723C526.188 188.077 526.188 188.666 526.817 189.033L529.934 190.802C530.291 190.975 530.683 191.066 531.081 191.066C531.478 191.066 531.87 190.975 532.227 190.802L551.51 179.68L552.453 180.23L532.777 191.47Z" fill="#C7C7C7"/>
<path d="M552.388 180.217V219.32L532.738 230.573C532.146 230.87 531.494 231.025 530.832 231.025C530.17 231.025 529.517 230.87 528.926 230.573L525.572 228.647C525.353 228.553 525.165 228.4 525.026 228.206C524.888 228.013 524.805 227.785 524.786 227.547V188.457C524.807 188.692 524.891 188.917 525.029 189.109C525.168 189.3 525.355 189.45 525.572 189.544L528.926 191.483C529.517 191.78 530.17 191.935 530.832 191.935C531.494 191.935 532.146 191.78 532.738 191.483L552.388 180.217Z" fill="#229EF7"/>
<path d="M530.878 191.928C530.213 191.944 529.554 191.791 528.965 191.483L525.611 189.544C525.394 189.45 525.207 189.3 525.069 189.109C524.93 188.917 524.846 188.692 524.825 188.457V227.547C524.844 227.785 524.927 228.013 525.065 228.207C525.204 228.4 525.393 228.553 525.611 228.647L528.965 230.573C529.554 230.881 530.213 231.034 530.878 231.019V191.928Z" fill="#B14000"/>
<path d="M560.077 186.976L539.524 198.845L545.916 239.127L566.457 227.259L560.077 186.976Z" fill="#EBEBEB"/>
<path d="M540.336 199.408L560.235 187.985C561.772 189.117 563.578 189.826 565.475 190.042L545.759 201.413C543.883 200.947 542.064 200.274 540.336 199.408Z" fill="white"/>
<path d="M547.868 201.255C547.226 201.561 546.528 201.735 545.817 201.767C545.106 201.798 544.396 201.687 543.729 201.439L539.799 199.841C538.567 199.343 538.423 198.439 539.484 197.836L559.134 186.583L560.104 186.976L540.82 198.111C540.192 198.478 540.283 199.015 541.017 199.317L544.646 200.784C545.047 200.932 545.475 200.998 545.902 200.977C546.33 200.957 546.749 200.851 547.135 200.666L566.405 189.557L567.505 190.002L547.868 201.255Z" fill="#C7C7C7"/>
<path d="M567.479 189.95L573.859 230.233L554.209 241.485C553.565 241.789 552.868 241.961 552.157 241.992C551.447 242.024 550.737 241.914 550.069 241.669L546.139 240.071C545.537 239.822 545.183 239.468 545.13 239.101L538.751 198.819C538.751 199.186 539.144 199.539 539.759 199.788L543.689 201.386C544.357 201.634 545.067 201.746 545.778 201.714C546.489 201.683 547.186 201.509 547.829 201.203L567.479 189.95Z" fill="#7ABDFB"/>
<path d="M545.864 201.74C545.137 201.789 544.408 201.678 543.729 201.413L539.799 199.814C539.183 199.565 538.842 199.212 538.79 198.845L545.17 239.127C545.17 239.494 545.576 239.848 546.178 240.097L550.108 241.695C550.791 241.947 551.517 242.059 552.244 242.023L545.864 201.74Z" fill="#BEE0FF"/>
<path opacity="0.05" d="M574.933 237.975C570.099 240.778 570.099 245.298 574.933 248.088C577.647 249.463 580.647 250.18 583.69 250.18C586.733 250.18 589.733 249.463 592.448 248.088C597.282 245.298 597.282 240.778 592.448 237.975C589.733 236.599 586.733 235.883 583.69 235.883C580.647 235.883 577.647 236.599 574.933 237.975Z" fill="black"/>
<path d="M591.57 244.97C595.775 240.673 598.251 229.944 594.19 226.538H573.23C569.13 229.944 571.592 240.66 575.85 244.97L575.968 245.088C576.022 245.129 576.071 245.178 576.112 245.232L576.492 245.56L576.597 245.638L576.911 245.887C577.088 246.01 577.272 246.124 577.461 246.228C579.403 247.216 581.551 247.731 583.729 247.731C585.908 247.731 588.056 247.216 589.998 246.228L590.535 245.887L590.836 245.651L590.954 245.56C591.085 245.461 591.208 245.351 591.321 245.232L591.491 245.075L591.57 244.97Z" fill="#D2D2D2"/>
<path d="M575.09 224.953C570.322 227.704 570.322 232.171 575.09 234.922C577.765 236.279 580.723 236.986 583.723 236.986C586.723 236.986 589.68 236.279 592.356 234.922C597.124 232.171 597.124 227.704 592.356 224.953C589.68 223.596 586.723 222.889 583.723 222.889C580.723 222.889 577.765 223.596 575.09 224.953Z" fill="#E7FFD8"/>
<path d="M578.444 226.905C575.535 228.582 575.535 231.294 578.444 232.97C580.068 233.792 581.863 234.221 583.684 234.221C585.504 234.221 587.299 233.792 588.924 232.97C591.819 231.294 591.819 228.582 588.924 226.905C587.299 226.083 585.504 225.655 583.684 225.655C581.863 225.655 580.068 226.083 578.444 226.905Z" fill="#EBEBEB"/>
<path d="M588.95 229.787C587.325 228.965 585.53 228.537 583.71 228.537C581.889 228.537 580.094 228.965 578.47 229.787C577.764 230.16 577.165 230.705 576.728 231.372C577.16 232.047 577.761 232.597 578.47 232.97C580.094 233.792 581.889 234.221 583.71 234.221C585.53 234.221 587.325 233.792 588.95 232.97C589.653 232.593 590.248 232.043 590.679 231.372C590.244 230.708 589.649 230.163 588.95 229.787Z" fill="#80AC70"/>
<path d="M579.086 231.372C577.593 229.871 576.31 228.175 575.273 226.329C573.531 223.224 573.204 219.071 574.108 218.547C575.011 218.023 578.706 222.189 578.706 222.189C578.371 220.442 578.239 218.661 578.313 216.884C578.47 214.12 579.151 211.644 579.937 211.107C580.723 210.569 582.557 214.093 583.264 216.609C583.972 219.124 584.47 221.22 584.47 221.22C584.76 219.251 585.198 217.307 585.78 215.403C586.71 212.783 587.535 212.194 588.19 212.443C588.845 212.692 589.264 213.936 589.5 217.421C589.568 219.09 589.515 220.763 589.343 222.425C589.343 222.425 590.653 220.997 592.094 219.608C593.535 218.22 594.36 217.866 594.819 218.154C595.277 218.443 595.395 220.774 592.932 225.268C591.718 227.534 590.152 229.594 588.295 231.372C588.295 231.372 584.889 233.573 579.086 231.372Z" fill="#124600"/>
<path d="M464.592 121.62L499.621 101.394L611.364 165.872V169.724L576.335 189.95L464.592 125.459V121.62Z" fill="#EBEBEB"/>
<path d="M576.335 186.099L464.592 121.62L499.621 101.394L611.364 165.872L576.335 186.099Z" fill="#B3B3B3"/>
<path d="M576.335 186.099V189.95L611.364 169.724V165.872L576.335 186.099Z" fill="#E6E6E6"/>
<path d="M497.748 66.3122L475.032 79.4253V122.642L497.748 109.529V66.3122Z" fill="#E0E0E0"/>
<path d="M475.766 80.1458L497.8 67.5305C499.144 68.9558 500.905 69.9188 502.83 70.2815L481.032 82.8444C479.163 82.1861 477.392 81.2783 475.766 80.1458Z" fill="white"/>
<path d="M483.089 82.7658C482.435 83.0952 481.712 83.2668 480.98 83.2668C480.247 83.2668 479.525 83.0952 478.871 82.7658L475.163 80.6436C474.923 80.5449 474.718 80.377 474.573 80.1613C474.428 79.9455 474.351 79.6916 474.351 79.4319C474.351 79.1721 474.428 78.9182 474.573 78.7025C474.718 78.4867 474.923 78.3188 475.163 78.2201L496.831 65.7882L497.748 66.3122L476.447 78.6C475.74 79.0061 475.74 79.648 476.447 80.0541L479.879 82.006C480.274 82.2032 480.709 82.3058 481.15 82.3058C481.591 82.3058 482.026 82.2032 482.421 82.006L503.721 69.7182L504.756 70.3208L483.089 82.7658Z" fill="#C7C7C7"/>
<path d="M504.756 70.3339V113.564L483.089 126.009C482.434 126.338 481.712 126.51 480.98 126.51C480.247 126.51 479.525 126.338 478.87 126.009L475.163 123.874C474.924 123.769 474.718 123.602 474.566 123.389C474.414 123.177 474.321 122.928 474.299 122.668V79.4384C474.322 79.6999 474.414 79.9505 474.566 80.1646C474.718 80.3787 474.924 80.5485 475.163 80.6567L478.87 82.7789C479.525 83.1083 480.247 83.2799 480.98 83.2799C481.712 83.2799 482.434 83.1083 483.089 82.7789L504.756 70.3339Z" fill="#229EF7"/>
<path d="M480.98 83.2636C480.246 83.2824 479.519 83.1109 478.871 82.7658L475.163 80.6436C474.924 80.5354 474.718 80.3656 474.566 80.1515C474.414 79.9374 474.322 79.6868 474.299 79.4253V122.655C474.321 122.915 474.414 123.164 474.566 123.376C474.718 123.588 474.924 123.756 475.163 123.86L478.871 125.996C479.521 126.335 480.246 126.506 480.98 126.494V83.2636Z" fill="#B14000"/>
<path d="M507.036 71.6439L484.32 84.757V127.974L507.036 114.861V71.6439Z" fill="#EBEBEB"/>
<path d="M485.054 85.4775L507.036 72.8622C508.38 74.2875 510.141 75.2505 512.066 75.6132L490.268 88.1761C488.417 87.5134 486.663 86.6058 485.054 85.4775Z" fill="white"/>
<path d="M492.377 88.0975C491.722 88.427 491 88.5985 490.268 88.5985C489.535 88.5985 488.813 88.427 488.158 88.0975L484.451 85.9753C484.211 85.8766 484.005 85.7087 483.861 85.493C483.716 85.2772 483.639 85.0233 483.639 84.7636C483.639 84.5038 483.716 84.2499 483.861 84.0342C484.005 83.8184 484.211 83.6505 484.451 83.5518L506.119 71.1199L507.036 71.6439L485.735 83.9448C485.028 84.3509 485.028 84.9928 485.735 85.3989L489.167 87.3508C489.561 87.551 489.996 87.6554 490.438 87.6554C490.879 87.6554 491.315 87.551 491.709 87.3508L513.009 75.063L514.044 75.6656L492.377 88.0975Z" fill="#C7C7C7"/>
<path d="M514.044 75.6656V118.896L492.377 131.327C491.722 131.657 491 131.829 490.268 131.829C489.535 131.829 488.813 131.657 488.158 131.327L484.451 129.205C484.212 129.097 484.006 128.927 483.854 128.713C483.702 128.499 483.61 128.248 483.587 127.987V84.757C483.61 85.0185 483.702 85.2691 483.854 85.4832C484.006 85.6973 484.212 85.8671 484.451 85.9753L488.158 88.0975C488.813 88.4269 489.535 88.5985 490.268 88.5985C491 88.5985 491.722 88.4269 492.377 88.0975L514.044 75.6656Z" fill="#7ABDFB" fill-opacity="0.984314"/>
<path d="M490.268 88.6084C489.532 88.6232 488.806 88.4471 488.158 88.0975L484.451 85.9753C484.212 85.8672 484.006 85.6973 483.854 85.4832C483.702 85.2692 483.61 85.0185 483.587 84.757V127.987C483.61 128.249 483.702 128.499 483.854 128.713C484.006 128.927 484.212 129.097 484.451 129.205L488.158 131.328C488.809 131.667 489.534 131.838 490.268 131.825V88.6084Z" fill="#BEE0FF"/>
<path d="M522.546 83.1195L499.844 96.2457L506.891 140.76L529.607 127.646L522.546 83.1195Z" fill="#EBEBEB"/>
<path d="M500.734 96.8614L522.69 84.2461C524.422 85.4968 526.458 86.2612 528.585 86.46L506.774 99.0229C504.685 98.5343 502.659 97.8091 500.734 96.8614Z" fill="white"/>
<path d="M509.053 98.905C508.343 99.2415 507.573 99.4334 506.788 99.4694C506.003 99.5054 505.219 99.3848 504.481 99.1146L500.158 97.3461C498.848 96.7959 498.638 95.8003 499.804 95.1322L521.485 82.6872L522.546 83.1195L501.245 95.4335C500.538 95.8265 500.643 96.4291 501.455 96.7435L505.464 98.3679C505.917 98.5378 506.4 98.615 506.884 98.5947C507.368 98.5745 507.842 98.4573 508.28 98.25L529.594 85.9622L530.799 86.46L509.053 98.905Z" fill="#C7C7C7"/>
<path d="M530.733 86.46L537.794 131L516.14 143.432C515.428 143.77 514.655 143.961 513.867 143.995C513.08 144.028 512.294 143.904 511.555 143.628L507.232 141.873C506.564 141.585 506.171 141.205 506.119 140.799L499.058 96.2588C499.123 96.6518 499.503 97.0448 500.184 97.3199L504.507 99.0884C505.244 99.3652 506.029 99.4894 506.815 99.4534C507.601 99.4173 508.371 99.2219 509.079 98.8788L530.733 86.46Z" fill="#7ABDFB"/>
<path d="M506.839 99.4683C506.037 99.5161 505.234 99.3956 504.481 99.1146L500.158 97.3461C499.477 97.071 499.097 96.678 499.031 96.285L506.092 140.825C506.092 141.231 506.538 141.611 507.206 141.899L511.529 143.655C512.285 143.941 513.093 144.066 513.9 144.021L506.839 99.4683Z" fill="#BEE0FF"/>
<path d="M560.3 163.999L558.689 164.772L528.886 147.558L530.498 146.786L560.3 163.999Z" fill="#FAFAFA"/>
<path d="M530.498 146.786L558.846 163.161L562.973 120.743L534.611 104.394L530.498 146.786Z" fill="#DAF4FF"/>
<path d="M525.847 148.973L561.139 169.357L565.999 119.341L530.72 98.9574L525.847 148.973ZM533.17 103.49L562.973 120.69L558.689 164.719L528.886 147.519L533.17 103.49Z" fill="#D5D5D5"/>
<path d="M528.886 147.558L530.498 146.786L534.611 104.394L533.17 103.542L528.886 147.558Z" fill="#E0E0E0"/>
<path d="M530.72 98.9574L532.345 98.2107L567.636 118.581L565.999 119.328L530.72 98.9574Z" fill="#F5F5F5"/>
<path d="M567.636 118.581L565.999 119.328L561.139 169.357L562.763 168.597L567.636 118.581Z" fill="#ADABAB"/>
<path d="M531.742 145.986L557.877 161.077L558.571 153.925L553.711 132.938L549.073 140.104L550.043 146.143L542.314 123.873L532.436 138.833L531.742 145.986Z" fill="#229EF7"/>
<path d="M554.13 124.109C554.672 124.451 555.117 124.928 555.42 125.493C555.723 126.057 555.874 126.691 555.859 127.332C555.741 128.498 554.785 128.956 553.711 128.328C553.169 127.986 552.724 127.509 552.421 126.944C552.118 126.38 551.967 125.746 551.982 125.105C552.087 123.939 553.043 123.494 554.13 124.109Z" fill="#FFE350"/>
<path opacity="0.05" d="M574.972 161.051C570.138 163.842 570.138 168.374 574.972 171.165C577.684 172.54 580.682 173.257 583.723 173.257C586.764 173.257 589.762 172.54 592.474 171.165C597.308 168.374 597.308 163.842 592.474 161.051C589.761 159.678 586.763 158.963 583.723 158.963C580.683 158.963 577.685 159.678 574.972 161.051Z" fill="black"/>
<path d="M591.609 168.099C595.814 163.802 598.29 153.073 594.229 149.654H573.269C569.169 153.073 571.632 163.789 575.889 168.086L575.994 168.204L576.138 168.348C576.263 168.468 576.394 168.582 576.531 168.689L576.623 168.767L576.95 169.003C577.121 169.133 577.3 169.251 577.487 169.357C579.431 170.345 581.581 170.86 583.762 170.86C585.943 170.86 588.093 170.345 590.037 169.357C590.226 169.248 590.41 169.13 590.587 169.003C590.689 168.936 590.785 168.862 590.876 168.78L591.007 168.689L591.373 168.361L591.531 168.191L591.609 168.099Z" fill="#D2D2D2"/>
<path d="M575.09 148.03C570.322 150.781 570.322 155.248 575.09 157.999C577.766 159.356 580.723 160.063 583.723 160.063C586.723 160.063 589.68 159.356 592.356 157.999C597.124 155.248 597.124 150.781 592.356 148.03C589.68 146.673 586.723 145.966 583.723 145.966C580.723 145.966 577.766 146.673 575.09 148.03Z" fill="#E7FFD8"/>
<path d="M578.483 149.982C575.575 151.659 575.575 154.37 578.483 156.047C580.107 156.869 581.902 157.297 583.723 157.297C585.543 157.297 587.338 156.869 588.963 156.047C591.858 154.37 591.858 151.659 588.963 149.982C587.338 149.16 585.543 148.732 583.723 148.732C581.902 148.732 580.107 149.16 578.483 149.982Z" fill="#EBEBEB"/>
<path d="M588.989 152.851C587.363 152.035 585.569 151.61 583.749 151.61C581.93 151.61 580.135 152.035 578.509 152.851C577.808 153.235 577.21 153.784 576.767 154.449C577.21 155.114 577.808 155.663 578.509 156.047C580.134 156.869 581.929 157.297 583.749 157.297C585.57 157.297 587.365 156.869 588.989 156.047C589.687 155.659 590.284 155.111 590.731 154.449C590.284 153.787 589.687 153.239 588.989 152.851Z" fill="#80AC70"/>
<path d="M579.125 154.449C577.64 152.939 576.363 151.239 575.326 149.392C573.57 146.301 573.243 142.135 574.147 141.624C575.051 141.113 578.745 145.253 578.745 145.253C578.415 143.527 578.287 141.768 578.365 140.013C578.522 137.249 579.19 134.773 579.976 134.236C580.762 133.699 582.596 137.209 583.304 139.738C584.011 142.266 584.522 144.349 584.522 144.349C584.809 142.379 585.247 140.435 585.832 138.532C586.762 135.912 587.601 135.31 588.242 135.572C588.884 135.834 589.317 137.052 589.552 140.55C589.62 142.22 589.568 143.892 589.395 145.554C589.395 145.554 590.705 144.113 592.133 142.724C593.561 141.336 594.399 140.995 594.858 141.283C595.316 141.572 595.434 143.903 592.985 148.397C591.759 150.66 590.191 152.719 588.334 154.501C588.334 154.501 584.941 156.65 579.125 154.449Z" fill="#124600"/>
<path d="M95.0536 464.709C111.075 474.613 111.075 490.661 95.0536 500.564C79.0323 510.468 53.055 510.468 37.0337 500.564C21.0124 490.661 21.0124 474.613 37.0337 464.709C53.055 454.806 79.0323 454.819 95.0536 464.709Z" fill="#E0E0E0"/>
<path d="M634.512 455.945L527.393 394.113C526.291 393.554 525.072 393.263 523.836 393.263C522.6 393.263 521.382 393.554 520.28 394.113L377.162 476.748C375.197 477.875 375.197 479.722 377.162 480.862L484.281 542.681C485.383 543.24 486.601 543.531 487.837 543.531C489.073 543.531 490.292 543.24 491.394 542.681L634.512 460.059C636.477 458.919 636.477 457.085 634.512 455.945Z" fill="#A6CCE7"/>
<path d="M283.746 412.676L374.66 360.211L456.456 407.436L365.529 459.902L283.746 412.676Z" fill="#E0E0E0"/>
<path d="M337.587 605.901C393.708 605.901 439.204 579.632 439.204 547.226C439.204 514.821 393.708 488.551 337.587 488.551C281.466 488.551 235.97 514.821 235.97 547.226C235.97 579.632 281.466 605.901 337.587 605.901Z" fill="#A6CCE7"/>
<path d="M181.998 588.727C238.12 588.727 283.615 562.457 283.615 530.052C283.615 497.647 238.12 471.377 181.998 471.377C125.877 471.377 80.3816 497.647 80.3816 530.052C80.3816 562.457 125.877 588.727 181.998 588.727Z" fill="#A6CCE7"/>
<path d="M87.901 464.827C99.9792 471.796 99.9792 483.102 87.901 490.071C75.8228 497.04 56.2514 497.04 44.1732 490.071C32.095 483.102 32.1081 471.731 44.1732 464.827C56.2383 457.924 75.8359 457.858 87.901 464.827Z" fill="#37474F"/>
<path d="M35.121 477.443C35.121 472.884 38.1078 468.273 44.1469 464.827C56.2251 457.858 75.8096 457.858 87.8747 464.827C93.9138 468.312 96.9137 472.884 96.9006 477.443V481.713C96.822 486.233 93.7959 490.726 87.8354 494.158C75.7703 501.14 56.1858 501.14 44.1076 494.158C38.1471 490.726 35.1341 486.233 35.0555 481.713L35.121 477.443Z" fill="#37474F"/>
<path d="M87.901 464.827C99.9792 471.796 99.9792 483.102 87.901 490.071C75.8228 497.04 56.2514 497.04 44.1732 490.071C32.095 483.102 32.1081 471.731 44.1732 464.827C56.2383 457.924 75.8359 457.858 87.901 464.827Z" fill="#455A64"/>
<path d="M62.7097 217.918H69.43V475.451C69.4497 475.771 69.3695 476.089 69.2005 476.361C69.0315 476.634 68.7821 476.847 68.4868 476.971C67.7596 477.346 66.9534 477.541 66.1354 477.541C65.3173 477.541 64.5111 477.346 63.7839 476.971C63.4873 476.847 63.2362 476.635 63.065 476.363C62.8938 476.091 62.8109 475.772 62.8276 475.451L62.7097 217.918Z" fill="#37474F"/>
<path d="M29.0427 208.801L40.7541 165.139H91.3463L103.136 208.801C105.625 215.744 102.206 223.211 92.8659 228.66C78.1022 237.175 54.1685 237.175 39.4048 228.66C29.9597 223.263 26.5537 215.744 29.0427 208.801Z" fill="#1A8DE0"/>
<path opacity="0.5" d="M29.0427 208.801L40.7541 165.139H91.3463L103.136 208.801C105.625 215.744 102.206 223.211 92.8659 228.66C78.1022 237.175 54.1685 237.175 39.4048 228.66C29.9597 223.263 26.5537 215.744 29.0427 208.801Z" fill="#FFC581"/>
<path d="M84.0496 177.217C74.1067 182.955 57.9806 182.955 48.0246 177.217C38.0686 171.479 38.0817 162.152 48.0246 156.414C57.9675 150.676 74.1067 150.663 84.0496 156.414C93.9925 162.165 94.0056 171.466 84.0496 177.217Z" fill="#1A8DE0"/>
<path opacity="0.65" d="M84.0496 177.217C74.1067 182.955 57.9806 182.955 48.0246 177.217C38.0686 171.479 38.0817 162.152 48.0246 156.414C57.9675 150.676 74.1067 150.663 84.0496 156.414C93.9925 162.165 94.0056 171.466 84.0496 177.217Z" fill="white"/>
<path d="M66.0371 177.911C71.4715 178.041 76.8484 176.774 81.6523 174.23C85.2941 172.134 87.2984 169.514 87.2984 166.842C87.2984 164.169 85.2941 161.602 81.6523 159.44C76.8496 156.892 71.4727 155.62 66.0371 155.746C60.6059 155.621 55.2337 156.893 50.435 159.44C46.7932 161.536 44.7889 164.169 44.7889 166.842C44.7889 169.514 46.7932 172.082 50.435 174.23C55.2349 176.772 60.6071 178.04 66.0371 177.911Z" fill="#229EF7"/>
<path opacity="0.5" d="M66.0371 177.911C71.4715 178.041 76.8484 176.774 81.6523 174.23C85.2941 172.134 87.2984 169.514 87.2984 166.842C87.2984 164.169 85.2941 161.602 81.6523 159.44C76.8496 156.892 71.4727 155.62 66.0371 155.746C60.6059 155.621 55.2337 156.893 50.435 159.44C46.7932 161.536 44.7889 164.169 44.7889 166.842C44.7889 169.514 46.7932 172.082 50.435 174.23C55.2349 176.772 60.6071 178.04 66.0371 177.911Z" fill="white" fill-opacity="0.65"/>
<path d="M305.597 416.515L316.784 410.056L305.597 406.821V416.515Z" fill="#0059AC"/>
<path opacity="0.2" d="M305.597 416.515L316.784 410.056L305.597 406.821V416.515Z" fill="black"/>
<path d="M305.597 416.515L300.003 413.279V403.598L305.597 406.82V416.515Z" fill="#0059AC"/>
<path d="M361.639 439.178V449.474L442.584 402.773V392.476L361.639 439.178Z" fill="#0059AC"/>
<path opacity="0.2" d="M361.639 439.178V449.474L442.584 402.773V392.476L361.639 439.178Z" fill="black"/>
<path d="M361.639 449.474L356.045 446.252V435.955L361.639 439.178V449.474Z" fill="#0059AC"/>
<path d="M448.177 311.728L367.232 358.442V442.413L448.177 395.699V311.728Z" fill="#2A1700"/>
<path d="M367.232 358.442L294.409 316.391V400.362L367.232 442.413V358.442Z" fill="#0059AC"/>
<path opacity="0.2" d="M367.232 358.442L294.409 316.391V400.362L367.232 442.413V358.442Z" fill="white"/>
<path d="M294.409 316.391L375.354 269.69L448.177 311.728L367.232 358.442L294.409 316.391Z" fill="#AC4800"/>
<path opacity="0.4" d="M295.534 315.698L376.479 268.996L449.302 311.034L368.357 357.749L295.534 315.698Z" fill="white" fill-opacity="0.71"/>
<path d="M361.639 387.511L300.003 351.918V397.14L361.639 432.719V387.511Z" fill="#0059AC"/>
<path opacity="0.1" d="M361.639 387.511L300.003 351.918V397.14L361.639 432.719V387.511Z" fill="black"/>
<path opacity="0.1" d="M300.003 397.14L338.897 374.372L361.639 387.511V432.719L300.003 397.14Z" fill="black"/>
<path d="M361.639 361.665L300.003 326.085V345.46L361.639 381.053V361.665Z" fill="#0059AC"/>
<path d="M342.539 357.08C342.539 357.971 339.919 357.158 336.565 355.259L326.085 349.22C322.784 347.32 320.125 345.054 320.125 344.163V342.552L342.5 355.469L342.539 357.08Z" fill="white"/>
<path d="M396.196 412.742C395.641 416.01 396.096 419.37 397.501 422.373C398.905 425.376 401.192 427.88 404.056 429.549L496.778 477.888L497.053 483.233L501.271 485.669L495.835 488.8L393.393 429.47L396.196 412.742Z" fill="#37474F"/>
<path d="M493.005 512.38C493.595 505.254 491.067 498.101 484.87 494.525L401.305 446.278C400.207 445.648 398.973 445.293 397.709 445.242C396.444 445.192 395.186 445.448 394.041 445.988C392.896 446.528 391.899 447.337 391.134 448.345C390.369 449.354 389.858 450.532 389.646 451.78L395.227 418.519C394.689 421.727 395.143 425.022 396.529 427.965C397.915 430.908 400.166 433.357 402.982 434.985L489.442 484.975C490.06 485.406 490.785 485.659 491.537 485.707C492.289 485.755 493.039 485.596 493.707 485.248C494.376 484.9 494.936 484.375 495.327 483.731C495.718 483.087 495.925 482.349 495.927 481.595L496.359 476.997L493.005 512.38Z" fill="#263238"/>
<path d="M491.25 284.139L514.83 297.815L413.829 361.704C410.628 363.734 407.891 366.417 405.799 369.577C403.706 372.738 402.304 376.304 401.685 380.044L386.961 475.333C386.916 475.596 386.809 475.843 386.648 476.054C386.487 476.266 386.277 476.436 386.037 476.549C385.796 476.662 385.532 476.715 385.266 476.705C385.001 476.694 384.742 476.619 384.511 476.486C383.961 476.172 383.647 475.556 383.843 473.237L392.253 371.988C392.725 366.276 396.38 359.451 402.196 354.84L491.25 284.139Z" fill="#455A64"/>
<path d="M609.36 429.418L601.5 411.196L601.29 410.711C601.997 412.241 602.194 413.958 601.851 415.608C601.508 417.258 600.644 418.754 599.385 419.876C598.127 420.997 596.542 421.685 594.864 421.837C593.185 421.989 591.502 421.597 590.063 420.72L586.133 418.427L580.893 421.479L591.491 427.597L504.101 478.045L506.446 464.107L502.935 485.067L596.797 430.715L602.613 434.069L609.36 429.418Z" fill="#263238"/>
<path d="M501.73 479.355L591.059 427.741C592.702 426.671 594.07 425.228 595.051 423.53C596.032 421.832 596.598 419.927 596.705 417.969V412.729C596.598 410.769 596.032 408.861 595.051 407.161C594.07 405.461 592.702 404.016 591.059 402.943L501.73 351.342C499.98 350.457 498.045 349.995 496.084 349.995C494.122 349.995 492.188 350.457 490.438 351.342L401.109 402.917C399.465 403.99 398.098 405.435 397.117 407.135C396.136 408.835 395.569 410.743 395.463 412.702V418.034C395.568 419.992 396.135 421.898 397.116 423.596C398.097 425.295 399.465 426.737 401.109 427.807L490.438 479.355C492.186 480.247 494.121 480.711 496.084 480.711C498.047 480.711 499.981 480.247 501.73 479.355Z" fill="#229EF7"/>
<path opacity="0.6" d="M501.921 479.176L591.25 427.562C592.893 426.491 594.261 425.049 595.242 423.351C596.223 421.653 596.789 419.747 596.896 417.789V412.549C596.789 410.589 596.223 408.682 595.242 406.982C594.261 405.282 592.893 403.836 591.25 402.763L501.921 351.162C500.17 350.277 498.236 349.816 496.275 349.816C494.313 349.816 492.379 350.277 490.629 351.162L401.3 402.737C399.656 403.81 398.289 405.255 397.308 406.955C396.327 408.656 395.76 410.563 395.654 412.523V417.854C395.759 419.813 396.325 421.719 397.307 423.417C398.288 425.115 399.656 426.558 401.3 427.627L490.629 479.176C492.377 480.067 494.312 480.532 496.275 480.532C498.237 480.532 500.172 480.067 501.921 479.176Z" fill="#D6D6D6" fill-opacity="0.3"/>
<path d="M500.027 480.076C500.599 479.889 501.152 479.648 501.678 479.355L591.006 427.741C592.646 426.669 594.011 425.225 594.99 423.527C595.968 421.83 596.533 419.925 596.639 417.969V412.729C596.54 410.99 596.083 409.292 595.296 407.738C594.509 406.185 593.41 404.811 592.068 403.703C594.072 405.484 593.718 407.895 591.006 409.467L502.097 460.793L500.027 480.076Z" fill="#1A8DE0"/>
<path opacity="0.3" d="M500.027 480.076C500.599 479.889 501.152 479.648 501.678 479.355L591.006 427.741C592.646 426.669 594.011 425.225 594.99 423.527C595.968 421.83 596.533 419.925 596.639 417.969V412.729C596.54 410.99 596.083 409.291 595.296 407.738C594.509 406.185 593.41 404.811 592.068 403.703C594.072 405.484 593.718 407.895 591.006 409.467L502.097 460.792L500.027 480.076Z" fill="#7D5D3F"/>
<path d="M395.41 412.65V417.982C395.516 419.94 396.082 421.846 397.063 423.544C398.044 425.242 399.413 426.685 401.056 427.754L490.385 479.316C493.382 480.811 496.848 481.061 500.027 480.01L502.097 460.714L501.678 460.963C499.929 461.854 497.994 462.319 496.031 462.319C494.069 462.319 492.134 461.854 490.385 460.963L401.056 409.388C398.345 407.816 397.991 405.458 399.995 403.611C398.65 404.72 397.547 406.096 396.758 407.651C395.969 409.207 395.51 410.909 395.41 412.65Z" fill="#229EF7"/>
<path opacity="0.5" d="M395.118 413.072V418.403C395.224 420.362 395.79 422.268 396.771 423.966C397.752 425.664 399.12 427.106 400.764 428.176L490.093 479.738C493.089 481.233 496.555 481.483 499.735 480.432L501.805 461.136L501.385 461.385C499.637 462.276 497.702 462.741 495.739 462.741C493.777 462.741 491.842 462.276 490.093 461.385L400.764 409.81C398.053 408.238 397.699 405.88 399.703 404.033C398.357 405.142 397.255 406.518 396.466 408.073C395.677 409.629 395.218 411.33 395.118 413.072Z" fill="#73501C"/>
<path d="M469.897 369.682L559.239 421.27C561.249 422.334 563.525 422.789 565.789 422.58C566.123 422.565 566.455 422.53 566.785 422.475H566.994L567.584 422.37H567.662C567.959 422.315 568.252 422.24 568.54 422.147C569.21 421.949 569.856 421.676 570.466 421.335L575.064 418.715C578.492 416.484 580.927 413.016 581.863 409.034L595.447 333.212C595.526 332.749 595.566 332.28 595.565 331.81C595.565 331.613 595.565 331.43 595.565 331.247C595.489 330.297 595.281 329.362 594.95 328.469C594.345 326.812 593.315 325.344 591.963 324.212L591.583 323.911C591.386 323.78 591.19 323.649 590.98 323.531L501.73 271.851C499.979 270.966 498.045 270.505 496.084 270.505C494.122 270.505 492.188 270.966 490.438 271.851L485.84 274.471C484.84 275.083 483.928 275.828 483.128 276.685C482.971 276.842 482.814 277.026 482.683 277.183C482.072 277.879 481.52 278.624 481.032 279.41C480.915 279.572 480.81 279.743 480.718 279.921L480.456 280.366C480.338 280.602 480.22 280.812 480.115 281.034C480.01 281.257 479.905 281.48 479.814 281.702C479.722 281.925 479.656 282.082 479.591 282.266C479.525 282.449 479.512 282.449 479.486 282.528L479.329 283.039C479.26 283.249 479.203 283.463 479.159 283.68C479.159 283.838 479.08 283.995 479.041 284.152L465.456 360.001C465.2 361.87 465.482 363.773 466.269 365.487C467.055 367.202 468.314 368.657 469.897 369.682Z" fill="#1A8DE0"/>
<path opacity="0.6" d="M469.897 369.682L559.239 421.27C561.249 422.334 563.525 422.789 565.789 422.58C566.123 422.565 566.455 422.53 566.785 422.475H566.994L567.584 422.37H567.662C567.959 422.315 568.252 422.24 568.54 422.147C569.21 421.949 569.856 421.676 570.466 421.335L575.064 418.715C578.492 416.484 580.927 413.016 581.863 409.034L595.447 333.212C595.526 332.749 595.566 332.28 595.565 331.81C595.565 331.613 595.565 331.43 595.565 331.247C595.489 330.297 595.281 329.362 594.95 328.469C594.345 326.812 593.315 325.344 591.963 324.212L591.583 323.911C591.386 323.78 591.19 323.649 590.98 323.531L501.73 271.851C499.979 270.966 498.045 270.505 496.084 270.505C494.122 270.505 492.188 270.966 490.438 271.851L485.84 274.471C484.84 275.083 483.928 275.828 483.128 276.685C482.971 276.842 482.814 277.026 482.683 277.183C482.072 277.879 481.52 278.624 481.032 279.41C480.915 279.572 480.81 279.743 480.718 279.921L480.456 280.366C480.338 280.602 480.22 280.812 480.115 281.034C480.01 281.257 479.905 281.48 479.814 281.702C479.722 281.925 479.656 282.082 479.591 282.266C479.525 282.449 479.512 282.449 479.486 282.528L479.329 283.039C479.26 283.249 479.203 283.463 479.159 283.68C479.159 283.838 479.08 283.995 479.041 284.152L465.456 360.001C465.2 361.87 465.482 363.773 466.269 365.487C467.055 367.202 468.314 368.657 469.897 369.682Z" fill="#7B4B29"/>
<path d="M579.609 342.277L566.025 418.113C565.396 421.65 562.344 423.065 559.226 421.27L469.897 369.695C468.307 368.673 467.041 367.221 466.246 365.507C465.45 363.793 465.158 361.888 465.404 360.014L478.988 284.178C479.63 280.641 482.669 279.227 485.787 281.021L575.09 332.596C576.686 333.612 577.96 335.063 578.76 336.778C579.561 338.493 579.856 340.4 579.609 342.277Z" fill="#1A8DE0"/>
<path opacity="0.5" d="M579.609 342.277L566.025 418.113C565.396 421.65 562.344 423.064 559.226 421.27L469.897 369.695C468.307 368.673 467.041 367.221 466.246 365.507C465.45 363.793 465.158 361.888 465.404 360.014L478.988 284.178C479.63 280.641 482.669 279.226 485.787 281.021L575.09 332.596C576.686 333.612 577.96 335.063 578.76 336.778C579.561 338.493 579.856 340.4 579.609 342.277Z" fill="white" fill-opacity="0.52"/>
<path d="M561.531 422.174C562.936 422.543 564.393 422.676 565.841 422.567C566.175 422.552 566.508 422.517 566.837 422.462L567.636 422.331H567.715C568.012 422.275 568.305 422.201 568.592 422.108C569.262 421.91 569.908 421.637 570.518 421.296L575.116 418.676C578.544 416.444 580.979 412.977 581.915 408.995L595.5 333.172C595.579 332.709 595.618 332.24 595.618 331.771C595.618 331.574 595.618 331.391 595.618 331.207C595.541 330.258 595.334 329.323 595.002 328.43L579.02 337.43C579.649 338.963 579.844 340.64 579.583 342.277L565.999 418.113C565.527 420.733 563.719 422.213 561.531 422.043C561.539 422.086 561.539 422.13 561.531 422.174Z" fill="#1A8DE0"/>
<path opacity="0.3" d="M561.531 422.174C562.936 422.543 564.393 422.676 565.841 422.567C566.175 422.552 566.508 422.517 566.837 422.462L567.636 422.331H567.715C568.012 422.275 568.305 422.201 568.592 422.108C569.262 421.91 569.908 421.637 570.518 421.296L575.116 418.676C578.544 416.444 580.979 412.977 581.915 408.995L595.5 333.172C595.579 332.709 595.618 332.24 595.618 331.771C595.618 331.574 595.618 331.391 595.618 331.207C595.541 330.258 595.334 329.323 595.002 328.43L579.02 337.43C579.649 338.963 579.844 340.64 579.583 342.277L565.999 418.113C565.527 420.733 563.719 422.213 561.531 422.043C561.539 422.086 561.539 422.13 561.531 422.174Z" fill="#88664D"/>
<path d="M625.617 458.631L596.653 375.603H586.055L603.779 417.445C604.205 419.855 603.879 422.339 602.845 424.558C601.812 426.777 600.121 428.625 598.002 429.85L514.725 477.94C513.655 478.538 512.438 478.823 511.214 478.763C509.989 478.704 508.806 478.302 507.799 477.603C506.792 476.904 506.001 475.937 505.516 474.811C505.031 473.685 504.872 472.445 505.057 471.233L498.665 508.961C499.236 505.676 500.517 502.555 502.417 499.816C504.318 497.076 506.792 494.783 509.669 493.097L602.246 439.636C604.114 438.567 606.291 438.166 608.417 438.499C610.544 438.833 612.493 439.881 613.945 441.47L621.805 460.098C621.976 460.498 622.269 460.832 622.643 461.055C623.002 461.276 623.421 461.38 623.842 461.352C624.263 461.325 624.665 461.167 624.992 460.9C625.319 460.634 625.555 460.272 625.667 459.865C625.779 459.459 625.761 459.027 625.617 458.631Z" fill="#37474F"/>
<path d="M592.015 352.534L510.442 417.287C507.575 419.578 505.207 422.431 503.484 425.67C501.76 428.91 500.718 432.468 500.42 436.125L490.739 536.34C490.714 536.652 490.778 536.964 490.924 537.24C491.07 537.516 491.292 537.745 491.564 537.899C491.795 538.032 492.054 538.106 492.32 538.117C492.585 538.128 492.849 538.075 493.09 537.962C493.33 537.848 493.54 537.679 493.701 537.467C493.862 537.256 493.969 537.008 494.014 536.746L509.983 442.505C510.603 438.766 512.005 435.199 514.097 432.039C516.19 428.878 518.926 426.195 522.127 424.165L591.727 380.162C594.769 378.242 597.307 375.62 599.127 372.517C600.947 369.413 601.996 365.919 602.188 362.327C602.379 358.734 601.706 355.148 600.225 351.869C598.745 348.591 596.5 345.714 593.679 343.482L592.015 352.534Z" fill="#455A64"/>
<path d="M149.039 546.021C148.593 552.571 147.323 556.92 144.428 560.654C141.532 564.387 136.03 565.344 130.45 563.942C124.869 562.54 117.73 559.16 116.118 553.383C114.507 547.606 114.808 543.715 116.118 537.663L149.039 546.021Z" fill="#263238"/>
<path d="M126.716 497.093C124.411 497.093 123.769 505.974 122.472 514.791C121.162 524.249 117.573 528.009 116.328 535.751C114.913 544.606 115.503 548.615 119.42 554.195C123.337 559.776 137.092 565.737 143.851 558.335C149.353 552.309 149.563 545.34 149.091 536.406C148.541 527.17 148.056 520.686 148.502 513.703C148.934 507.049 149.484 500.603 147.48 499.765C147.336 500.747 147.192 501.979 147.034 502.935C146.903 503.669 146.694 507.271 145.41 507.245C145.312 506.41 145.312 505.565 145.41 504.73C145.475 504.34 145.451 503.941 145.34 503.562C145.228 503.184 145.033 502.835 144.768 502.542C144.033 501.969 143.153 501.611 142.227 501.507C139.96 501.036 137.681 500.603 135.389 500.328C134.249 500.184 133.096 500.092 131.956 500.04C130.983 499.98 130.005 500.046 129.048 500.237C128.78 500.271 128.522 500.365 128.296 500.512C128.069 500.66 127.878 500.857 127.738 501.088C127.627 501.412 127.587 501.756 127.62 502.097C127.627 502.715 127.534 503.329 127.345 503.918C127.267 504.167 127.031 504.481 126.703 504.402C126.591 504.363 126.494 504.288 126.428 504.189C126.362 504.089 126.33 503.971 126.336 503.852C126.336 502.765 126.336 502.005 126.336 500.747C126.336 500.171 126.336 499.437 126.336 498.809C126.335 498.216 126.464 497.629 126.716 497.093Z" fill="#455A64"/>
<path d="M116.839 533.249C116.616 534.559 115.293 542.969 118.149 544.646C121.28 546.466 122.97 539.851 122.97 539.851C122.97 539.851 130.293 538.397 140.956 542.667C140.419 543.977 142.083 548.654 145.004 547.829C147.925 547.004 149.012 537.349 149.026 537.179C149.51 545.733 149.157 552.479 143.786 558.335C137.026 565.737 123.258 559.789 119.354 554.195C115.45 548.602 114.913 544.606 116.328 535.79C116.472 534.873 116.59 534.048 116.839 533.249Z" fill="#37474F"/>
<path d="M123.847 540.454C123.847 543.676 119.852 542.405 119.655 537.834C119.459 533.262 122.537 522.69 122.472 514.83C123.782 506.014 124.411 497.171 126.716 497.132C126.716 497.237 126.716 499.071 126.638 499.189L126.415 501.966C126.335 502.604 126.295 503.248 126.297 503.891C126.297 510.441 125.144 523.109 124.463 529.096C123.999 532.863 123.793 536.658 123.847 540.454Z" fill="#37474F"/>
<path d="M139.764 542.51C140.737 538.831 141.455 535.088 141.912 531.31C142.685 525.389 144.637 512.97 146.183 506.564C146.537 505.175 146.825 503.59 146.903 503.053C147.1 501.665 147.231 500.931 147.362 500.001C147.362 499.857 147.362 499.817 147.362 499.765C148.908 500.302 148.921 503.97 148.672 508.424C148.384 511.044 147.886 514.162 147.178 517.987C145.24 525.572 145.646 536.733 144.375 541.109C143.104 545.484 139.017 545.641 139.764 542.51Z" fill="#37474F"/>
<path d="M141.231 542.929C141.124 542.916 141.018 542.889 140.917 542.851C135.339 540.494 129.229 539.689 123.232 540.519C123.022 540.562 122.804 540.532 122.614 540.434C122.423 540.337 122.272 540.177 122.184 539.982C122.16 539.888 122.158 539.79 122.177 539.696C122.196 539.601 122.236 539.511 122.293 539.434C122.351 539.356 122.425 539.292 122.51 539.246C122.595 539.201 122.69 539.175 122.786 539.17C129.202 538.255 135.745 539.121 141.703 541.672C141.795 541.702 141.879 541.752 141.949 541.819C142.019 541.885 142.074 541.967 142.109 542.057C142.144 542.147 142.159 542.244 142.152 542.34C142.145 542.437 142.117 542.531 142.069 542.615C141.973 542.74 141.843 542.836 141.695 542.891C141.547 542.947 141.386 542.96 141.231 542.929Z" fill="#263238"/>
<path d="M143.118 536.026L142.829 535.947C136.54 533.485 129.748 532.586 123.035 533.327C122.826 533.364 122.611 533.328 122.425 533.226C122.239 533.123 122.094 532.96 122.013 532.764C121.992 532.67 121.992 532.571 122.013 532.477C122.035 532.383 122.077 532.294 122.138 532.219C122.198 532.143 122.275 532.082 122.362 532.041C122.45 531.999 122.545 531.977 122.642 531.978C129.749 531.146 136.951 532.091 143.602 534.729C143.696 534.755 143.782 534.802 143.856 534.865C143.929 534.929 143.987 535.009 144.026 535.098C144.065 535.187 144.083 535.283 144.08 535.38C144.077 535.477 144.053 535.573 144.008 535.659C143.916 535.804 143.78 535.917 143.621 535.983C143.461 536.049 143.286 536.064 143.118 536.026Z" fill="#263238"/>
<path d="M123.559 526.738C123.408 526.718 123.264 526.663 123.139 526.576C123.013 526.49 122.91 526.374 122.839 526.24C122.807 526.149 122.795 526.051 122.806 525.955C122.817 525.859 122.85 525.766 122.901 525.684C122.953 525.602 123.022 525.533 123.105 525.482C123.187 525.431 123.28 525.399 123.376 525.389C133.659 523.083 143.838 527.786 144.27 528.009C144.363 528.038 144.447 528.088 144.517 528.155C144.587 528.222 144.642 528.304 144.676 528.394C144.71 528.485 144.723 528.582 144.714 528.679C144.705 528.775 144.674 528.869 144.624 528.952C144.489 529.115 144.303 529.227 144.096 529.27C143.888 529.313 143.673 529.284 143.484 529.188C143.38 529.188 133.489 524.589 123.926 526.738C123.805 526.758 123.681 526.758 123.559 526.738Z" fill="#263238"/>
<path d="M123.952 521.38C123.801 521.366 123.656 521.315 123.53 521.23C123.404 521.145 123.302 521.03 123.232 520.895C123.197 520.807 123.183 520.711 123.191 520.617C123.199 520.522 123.229 520.43 123.279 520.349C123.328 520.268 123.396 520.199 123.476 520.149C123.557 520.098 123.648 520.066 123.743 520.057C130.932 518.479 138.443 519.38 145.056 522.611C145.147 522.645 145.228 522.7 145.294 522.77C145.36 522.841 145.409 522.926 145.437 523.018C145.465 523.111 145.471 523.209 145.455 523.304C145.439 523.399 145.401 523.489 145.345 523.568C145.198 523.724 145.003 523.826 144.791 523.857C144.58 523.888 144.363 523.846 144.179 523.738C138 520.782 131.018 519.953 124.319 521.38C124.198 521.406 124.073 521.406 123.952 521.38Z" fill="#263238"/>
<path d="M124.332 515.105C124.182 515.088 124.038 515.035 123.913 514.951C123.787 514.866 123.684 514.753 123.612 514.62C123.574 514.532 123.558 514.436 123.564 514.341C123.57 514.245 123.599 514.153 123.647 514.07C123.695 513.987 123.762 513.917 123.843 513.865C123.923 513.812 124.014 513.78 124.109 513.769C134.707 511.083 145.135 516.297 145.58 516.533C145.671 516.565 145.753 516.617 145.82 516.685C145.888 516.754 145.938 516.836 145.969 516.927C145.999 517.019 146.008 517.115 145.995 517.21C145.982 517.305 145.948 517.396 145.895 517.476C145.751 517.635 145.557 517.741 145.346 517.776C145.134 517.812 144.917 517.775 144.729 517.673C144.624 517.673 134.55 512.59 124.712 515.053C124.589 515.089 124.461 515.106 124.332 515.105Z" fill="#263238"/>
<path d="M262.511 527.157C262.943 527.157 263.533 531.506 261.201 533.327C258.463 535.41 250.459 538.803 239.979 537.414C229.499 536.026 223.84 532.987 219.674 529.725C215.508 526.463 209.692 521.865 204.95 520.83C200.548 519.873 195.78 517.987 194.378 516.729C192.976 515.472 193.264 509.931 193.264 509.931L262.511 527.157Z" fill="#263238"/>
<path d="M197.705 488.708C197.329 488.716 196.966 488.85 196.675 489.087C196.383 489.324 196.178 489.652 196.094 490.018C195.753 491.538 195.347 495.966 194.614 498.455C193.605 501.913 192.858 509.04 193.395 511.882C193.932 514.725 201.098 516.795 205.683 518.432C211.007 520.633 215.985 523.594 220.46 527.222C225.346 530.995 235.669 535.004 242.52 535.082C250.629 535.148 259.786 532.882 261.921 529.489C264.541 525.284 266.52 520.384 254.572 515.144C252.319 514.149 244.394 509.734 241.695 508.136C234.385 503.8 229.25 499.857 225.975 492.324C225.695 491.38 225.092 490.564 224.272 490.018C223.533 489.721 222.723 489.643 221.94 489.796C219.936 490.019 211.945 490.909 210.15 491.682C208.526 492.35 206.22 493.136 206.22 495.023C206.249 495.68 206.39 496.327 206.639 496.935C206.784 497.328 206.888 497.839 206.522 498.062C206.155 498.285 205.709 498.062 205.395 497.761C204.235 496.656 203.17 495.455 202.212 494.171C201.655 493.501 201.022 492.899 200.325 492.376C199.624 492.003 198.946 491.588 198.295 491.132C197.548 490.412 197.731 489.586 197.705 488.708Z" fill="#455A64"/>
<path d="M220.46 527.196C218.354 525.572 216.168 524.055 213.91 522.651C213.91 522.651 227.94 530.681 233.691 527.196C237.398 524.969 235.695 522.153 235.617 521.262C235.538 520.371 248.612 514.28 252.188 513.952C253.171 514.463 254.009 514.882 254.52 515.105C266.467 520.345 264.515 525.244 261.869 529.45C259.734 532.842 253.079 535.423 242.612 535.279C235.8 535.161 225.32 530.969 220.46 527.196Z" fill="#37474F"/>
<path d="M234.713 518.655C242.153 521.472 238.944 522.703 236.848 522.952C234.752 523.201 222.268 516.323 214.683 510.677C206.823 504.808 201.805 498.429 198.871 496.267C197.771 495.455 196.592 494.473 195.544 493.556C195.753 492.062 195.937 490.7 196.094 489.979C196.178 489.613 196.383 489.285 196.675 489.048C196.966 488.81 197.329 488.677 197.705 488.669C197.705 489.547 197.548 490.372 198.269 491.04C198.919 491.496 199.597 491.912 200.299 492.285C200.996 492.807 201.629 493.41 202.185 494.079C203.144 495.363 204.209 496.564 205.369 497.669C211.788 505.345 227.285 515.826 234.713 518.655Z" fill="#37474F"/>
<path d="M236.337 521.943C236.167 521.934 236.002 521.875 235.866 521.773C235.792 521.721 235.731 521.654 235.687 521.576C235.642 521.498 235.614 521.412 235.605 521.322C235.597 521.233 235.607 521.143 235.636 521.058C235.665 520.973 235.712 520.895 235.774 520.83C237.922 518.511 247.983 513.061 253.472 513.69C253.564 513.695 253.654 513.719 253.736 513.759C253.819 513.8 253.892 513.857 253.952 513.926C254.012 513.996 254.058 514.077 254.085 514.165C254.113 514.253 254.123 514.345 254.114 514.437C254.101 514.53 254.07 514.619 254.022 514.7C253.974 514.78 253.91 514.85 253.834 514.905C253.758 514.96 253.671 515 253.58 515.02C253.489 515.041 253.394 515.043 253.302 515.026C248.166 514.45 238.603 519.86 236.914 521.694C236.84 521.774 236.751 521.837 236.652 521.88C236.552 521.923 236.445 521.944 236.337 521.943Z" fill="#263238"/>
<path d="M229.866 518.197C229.699 518.188 229.539 518.128 229.407 518.026C229.334 517.974 229.273 517.907 229.228 517.829C229.183 517.751 229.156 517.665 229.147 517.576C229.138 517.486 229.149 517.396 229.178 517.311C229.207 517.226 229.254 517.149 229.316 517.083C231.451 514.765 241.512 509.315 247.014 509.944C247.106 509.949 247.196 509.972 247.278 510.013C247.361 510.053 247.434 510.11 247.494 510.18C247.554 510.25 247.599 510.331 247.627 510.419C247.655 510.506 247.665 510.599 247.656 510.69C247.62 510.876 247.515 511.041 247.361 511.151C247.207 511.261 247.017 511.307 246.83 511.28C241.708 510.717 232.132 516.114 230.442 517.948C230.369 518.028 230.28 518.092 230.181 518.135C230.081 518.178 229.974 518.199 229.866 518.197Z" fill="#263238"/>
<path d="M223.394 514.634C223.228 514.634 223.067 514.578 222.936 514.476C222.863 514.424 222.802 514.357 222.757 514.279C222.712 514.201 222.684 514.115 222.676 514.026C222.667 513.936 222.677 513.846 222.707 513.761C222.736 513.676 222.783 513.598 222.844 513.533C224.979 511.201 235.053 505.752 240.542 506.394C240.634 506.398 240.724 506.422 240.807 506.463C240.889 506.503 240.963 506.56 241.023 506.63C241.083 506.7 241.128 506.781 241.156 506.869C241.183 506.956 241.193 507.049 241.184 507.14C241.152 507.328 241.047 507.494 240.893 507.605C240.738 507.715 240.546 507.76 240.359 507.73C235.237 507.153 225.674 512.564 223.971 514.398C223.898 514.478 223.809 514.54 223.709 514.581C223.61 514.622 223.502 514.64 223.394 514.634Z" fill="#263238"/>
<path d="M217.46 510.599C217.294 510.599 217.133 510.543 217.001 510.441C216.928 510.389 216.867 510.322 216.823 510.244C216.778 510.166 216.75 510.08 216.741 509.991C216.733 509.901 216.743 509.811 216.772 509.726C216.801 509.641 216.848 509.564 216.91 509.498C219.045 507.166 229.145 501.73 234.608 502.346C234.7 502.352 234.791 502.377 234.873 502.419C234.956 502.461 235.029 502.519 235.089 502.59C235.149 502.661 235.194 502.743 235.222 502.832C235.249 502.92 235.259 503.013 235.25 503.105C235.235 503.198 235.203 503.286 235.154 503.366C235.106 503.445 235.042 503.514 234.966 503.569C234.891 503.624 234.805 503.663 234.715 503.685C234.624 503.706 234.53 503.71 234.438 503.695C229.316 503.119 219.739 508.516 218.036 510.363C217.962 510.44 217.872 510.501 217.773 510.541C217.674 510.582 217.567 510.601 217.46 510.599Z" fill="#263238"/>
<path d="M211.552 506.564C211.386 506.564 211.224 506.509 211.093 506.407C211.019 506.355 210.957 506.289 210.911 506.212C210.865 506.135 210.836 506.048 210.826 505.959C210.816 505.87 210.826 505.779 210.854 505.694C210.882 505.608 210.928 505.53 210.989 505.463C213.936 502.162 224.455 497.603 229.944 498.272C230.037 498.277 230.127 498.3 230.21 498.34C230.294 498.381 230.368 498.437 230.429 498.507C230.49 498.577 230.537 498.658 230.566 498.745C230.595 498.833 230.606 498.926 230.599 499.018C230.567 499.205 230.462 499.372 230.308 499.483C230.153 499.593 229.961 499.638 229.774 499.608C224.835 499.044 214.748 503.394 212.128 506.315C212.057 506.397 211.968 506.461 211.868 506.504C211.768 506.547 211.66 506.568 211.552 506.564Z" fill="#263238"/>
<path d="M154.475 224.979C143.851 244.813 139.449 256.144 137.052 293.099C134.655 330.054 134.314 393.969 134.314 393.969C134.314 393.969 127.555 410.357 125.144 436.924C122.734 463.491 121.057 504.664 121.057 504.664C121.057 504.664 120.9 509.721 136.201 511.699C151.501 513.677 152.759 508.804 152.759 508.804C152.759 508.804 166.776 453.208 172.684 424.964C179.156 393.982 187.54 355.744 187.54 355.744L191.561 392.083C191.561 392.083 187.815 401.345 188.797 425.92C189.78 450.496 194.64 494.892 194.64 494.892C194.64 494.892 211.866 502.752 228.307 494.263C228.307 494.263 235.538 420.182 237.883 374.752C240.228 329.321 240.686 279.357 235.027 247.105L154.475 224.979Z" fill="#0B77DD"/>
<path opacity="0.6" d="M154.475 224.979C143.851 244.813 139.449 256.144 137.052 293.099C134.655 330.054 134.314 393.969 134.314 393.969C134.314 393.969 127.555 410.357 125.144 436.924C122.734 463.491 121.057 504.664 121.057 504.664C121.057 504.664 120.9 509.721 136.201 511.699C151.501 513.677 152.759 508.804 152.759 508.804C152.759 508.804 166.776 453.208 172.684 424.964C179.156 393.982 187.54 355.744 187.54 355.744L191.561 392.083C191.561 392.083 187.815 401.345 188.797 425.92C189.78 450.496 194.64 494.892 194.64 494.892C194.64 494.892 211.866 502.752 228.307 494.263C228.307 494.263 235.538 420.182 237.883 374.752C240.228 329.321 240.686 279.357 235.027 247.105L154.475 224.979Z" fill="#1C3A73"/>
<g opacity="0.5">
<path d="M187.513 355.717L196.893 300.697C196.893 300.697 216.36 300.213 222.857 291.527C221.04 295.449 218.28 298.861 214.824 301.457C211.368 304.054 207.323 305.755 203.05 306.409L193.684 354.014L191.496 392.004L187.513 355.717Z" fill="#0B77DD"/>
</g>
<path d="M152.576 131.629C156.964 127.804 159.427 122.197 160.96 116.577C162.492 110.957 162.374 106.935 164.117 101.381C165.859 95.8265 168.741 90.3507 173.523 86.9709C173.916 86.6958 174.335 86.4338 174.754 86.198C176.458 85.2074 178.341 84.5643 180.295 84.3057C182.249 84.0471 184.235 84.1783 186.138 84.6915C187.446 84.9839 188.639 85.6534 189.57 86.6172C190.213 87.5766 190.658 88.6542 190.88 89.7874C192.046 93.9925 193.264 98.1452 194.09 102.429C194.962 106.983 195.522 111.592 195.766 116.223C196.013 120.816 195.952 125.42 195.583 130.004C195.276 135.176 194.194 140.272 192.373 145.122C190.803 149.418 187.782 153.032 183.832 155.34C183.308 156.535 182.553 157.615 181.609 158.517C180.666 159.42 179.553 160.126 178.335 160.596C177.118 161.066 175.819 161.291 174.514 161.256C173.209 161.222 171.924 160.93 170.732 160.396C168.492 159.244 166.2 157.134 163.855 158.038C162.702 158.471 161.89 159.584 160.724 159.99C159.95 160.195 159.132 160.153 158.383 159.872C157.635 159.59 156.992 159.082 156.545 158.418C155.678 157.077 155.177 155.533 155.091 153.938C154.497 148.419 155.44 142.842 157.816 137.825C156.291 138.436 154.643 138.674 153.008 138.519C152.197 138.416 151.447 138.032 150.889 137.434C150.332 136.836 150.001 136.061 149.956 135.244C150.008 133.738 151.41 132.651 152.576 131.629Z" fill="#20353F"/>
<path d="M186.086 145.043C186.348 140.851 182.483 136.319 178.357 128.917C174.23 121.516 165.571 97.988 179.182 94.2021C180.086 82.9885 191.221 73.6613 210.976 73.2421C223.145 72.967 233.848 78.2594 239.127 84.495C244.616 91.045 246.097 105.56 236.075 110.865C228.543 131.327 186.086 145.043 186.086 145.043Z" fill="#2A414D"/>
<path d="M233.088 91.2808C237.333 93.796 238.538 103.071 238.066 120.468C237.28 136.188 233.193 142.2 227.075 145.358C224.075 146.916 219.307 147.493 213.504 146.523L212.416 152.903C212.416 152.903 227.062 169.933 213.726 171.623C207.059 172.461 200.496 168.597 194.849 164.117C189.203 159.637 185.509 150.65 185.509 150.65L187.487 131.406C187.487 131.406 183.426 135.218 177.636 130.096C172.868 125.904 171.256 118.856 175.016 115.07C178.776 111.284 185.928 112.28 188.561 117.69C188.561 117.69 193.448 123.598 194.076 115.883C194.155 114.821 194.076 112.175 194.076 111.036C197.705 110.485 203.05 111.376 203.076 101.525C212.508 97.2675 225.621 104.682 233.088 91.2808Z" fill="#FFC194"/>
<path d="M213.989 128.026L220.866 130.437C220.726 130.897 220.496 131.324 220.188 131.694C219.88 132.063 219.5 132.367 219.073 132.587C218.645 132.807 218.178 132.938 217.698 132.974C217.218 133.01 216.737 132.949 216.281 132.795C215.356 132.451 214.6 131.762 214.173 130.873C213.745 129.984 213.679 128.963 213.989 128.026Z" fill="#C86366"/>
<path d="M216.281 132.795C216.526 132.882 216.782 132.94 217.041 132.965C216.985 132.146 216.631 131.377 216.048 130.8C215.464 130.224 214.69 129.88 213.871 129.834C213.966 130.5 214.241 131.127 214.665 131.649C215.09 132.17 215.648 132.566 216.281 132.795Z" fill="#E97373"/>
<path d="M235.564 106.922L228.896 104.8C229.01 104.359 229.213 103.946 229.492 103.586C229.771 103.226 230.12 102.927 230.518 102.706C230.917 102.485 231.356 102.348 231.809 102.303C232.262 102.257 232.72 102.305 233.154 102.442C234.057 102.732 234.812 103.361 235.262 104.196C235.711 105.032 235.82 106.009 235.564 106.922Z" fill="#263238"/>
<path d="M214.84 105.298L207.845 107.708C207.664 107.26 207.576 106.781 207.587 106.298C207.598 105.815 207.708 105.34 207.909 104.901C208.11 104.462 208.399 104.068 208.757 103.745C209.115 103.421 209.536 103.174 209.993 103.018C210.939 102.715 211.966 102.782 212.865 103.204C213.764 103.627 214.47 104.375 214.84 105.298Z" fill="#263238"/>
<path d="M221.062 108.023L222.124 125.249L231.595 123.205C228.058 116.092 225.805 112.07 221.062 108.023Z" fill="#E0A67B"/>
<path d="M213.53 146.537C207.412 145.724 195.373 142.017 191.836 133.803C192.572 137.157 194.181 140.258 196.5 142.79C201.009 147.033 206.765 149.711 212.914 150.427L213.53 146.537Z" fill="#F2B98F"/>
<path d="M229.8 112.529C229.733 113.226 229.938 113.923 230.373 114.472C230.807 115.022 231.438 115.382 232.132 115.476C232.471 115.528 232.817 115.51 233.149 115.424C233.481 115.339 233.793 115.187 234.064 114.977C234.336 114.768 234.563 114.506 234.73 114.207C234.898 113.907 235.003 113.577 235.04 113.236C235.108 112.539 234.902 111.843 234.468 111.293C234.033 110.744 233.403 110.384 232.708 110.289C232.369 110.237 232.023 110.255 231.691 110.341C231.359 110.427 231.048 110.579 230.776 110.788C230.504 110.997 230.278 111.26 230.11 111.559C229.942 111.858 229.837 112.188 229.8 112.529Z" fill="#263238"/>
<path d="M210.504 112.935C210.433 113.633 210.637 114.331 211.072 114.881C211.508 115.432 212.14 115.791 212.836 115.883C213.173 115.932 213.516 115.913 213.846 115.828C214.176 115.742 214.485 115.59 214.755 115.383C215.025 115.175 215.251 114.915 215.418 114.618C215.586 114.321 215.692 113.994 215.731 113.656C215.802 112.956 215.598 112.256 215.163 111.704C214.728 111.152 214.096 110.79 213.399 110.695C213.061 110.645 212.716 110.665 212.386 110.751C212.055 110.838 211.745 110.99 211.475 111.2C211.205 111.409 210.98 111.67 210.813 111.968C210.646 112.267 210.541 112.595 210.504 112.935Z" fill="#263238"/>
<path d="M359.438 236.586C361.364 234.804 361.573 232.656 358.586 231.844C351.539 230.01 347.189 234.031 340.246 235.774C337.528 236.235 334.751 236.235 332.033 235.774C333.991 235.13 335.882 234.296 337.679 233.285C343.548 229.538 341.281 224.115 337.915 225.661C333.67 227.573 327.959 227.036 321.893 228.281C313.273 230.049 313.457 231.765 308.269 232.761C305.99 233.206 301.431 233.206 291.134 231.451C285.698 230.494 266.703 225.778 259.144 223.984C259.144 223.984 252.424 199.552 248.232 186.675C241.459 165.911 234.202 158.287 222.556 155.51C220.398 167.744 218.898 180.084 218.063 192.478C218.063 192.478 225.503 224.272 231.543 239.638C237.084 253.76 237.817 253.406 250.511 255.188C265.17 257.245 287.073 257.048 295.89 257.389C303.8 257.581 311.684 258.387 319.47 259.799C328.116 261.41 330.854 261.961 336.395 261.463C341.093 260.654 345.674 259.268 350.032 257.336C358.927 252.895 358.914 248.795 358.547 247.249C359.543 246.555 360.695 243.228 359.228 242.114C359.636 241.785 359.969 241.372 360.204 240.904C360.439 240.435 360.571 239.922 360.591 239.398C360.611 238.874 360.518 238.352 360.319 237.867C360.12 237.382 359.82 236.945 359.438 236.586Z" fill="#FFA8A7"/>
<path d="M261.083 222.844L287.047 229.709C287.047 229.709 283.471 234.333 281.742 243.123C280.012 251.913 283.222 257.415 283.222 257.415C283.222 257.415 266.572 257.598 255.712 256.419C244.852 255.24 239.809 254.625 236.691 251.769C233.573 248.913 230.141 239.167 227.848 232.342C225.556 225.517 217.25 192.793 217.25 192.793L222.49 155.418C228.181 156.529 233.331 159.524 237.11 163.92C243.765 171.413 245.415 179.562 250.21 192.531C254.14 203.05 261.083 222.844 261.083 222.844Z" fill="#80B3FF"/>
<path d="M222.621 154.763C230.979 155.772 238.433 162.335 242.533 170.483C246.987 179.313 257.402 208.198 257.402 208.198C257.402 208.198 249.634 217.172 238.721 220.735C227.809 224.298 224.311 223.997 224.311 223.997L216.792 192.832C216.792 192.832 219.792 157.593 222.621 154.763Z" fill="#0B77DD"/>
<path opacity="0.3" d="M222.621 154.763C230.979 155.772 238.433 162.335 242.533 170.483C246.987 179.313 257.402 208.198 257.402 208.198C257.402 208.198 249.634 217.172 238.721 220.735C227.809 224.298 224.311 223.997 224.311 223.997L216.792 192.832C216.792 192.832 219.792 157.593 222.621 154.763Z" fill="#1C3A73"/>
<path d="M327.696 239.573C320.884 244.446 313.417 244.263 309.566 242.442C312.71 246.372 323.845 247.171 327.696 239.573Z" fill="#F28F8F"/>
<path d="M212.416 152.916C212.416 152.916 217.984 164.509 214.277 170.09C198.727 166.893 190.422 156.073 185.457 150.662C185.457 150.662 169.121 154.396 165.165 155.234C161.209 156.073 155.052 162.95 153.859 180.648C152.89 194.94 155.078 221.887 155.078 221.887C149.34 235.93 141.572 254.362 139.122 271.169C167.732 294.369 214.408 295.142 239.206 278.256C239.036 259.144 233.783 243.633 233.101 234.031C233.033 228.12 233.918 222.237 235.721 216.608C238.146 215.216 240.251 213.331 241.9 211.075C243.55 208.818 244.707 206.24 245.297 203.508C247.118 194.259 246.005 187.46 237.935 175.5C231.189 165.492 222.608 154.671 222.608 154.671L212.416 152.916Z" fill="#0B77DD"/>
<path opacity="0.5" d="M212.416 152.916C212.416 152.916 217.984 164.509 214.277 170.09C198.727 166.893 190.422 156.073 185.457 150.662C185.457 150.662 169.121 154.396 165.165 155.234C161.209 156.073 155.052 162.95 153.859 180.648C152.89 194.94 155.078 221.887 155.078 221.887C149.34 235.93 141.572 254.362 139.122 271.169C167.732 294.369 214.408 295.142 239.206 278.256C239.036 259.144 233.783 243.633 233.101 234.031C233.033 228.12 233.918 222.237 235.721 216.608C238.146 215.216 240.251 213.331 241.9 211.075C243.55 208.818 244.707 206.24 245.297 203.508C247.118 194.259 246.005 187.46 237.935 175.5C231.189 165.492 222.608 154.671 222.608 154.671L212.416 152.916Z" fill="#1C3A73"/>
<path opacity="0.4" d="M226.289 176.85L226.695 171.846C222.512 171.611 218.357 171.015 214.277 170.064C198.727 166.868 190.422 156.047 185.457 150.637L180.714 151.724C184.265 158.431 195.426 169.959 207.216 173.745C219.006 177.531 226.289 176.85 226.289 176.85Z" fill="#1C3A73"/>
<path opacity="0.6" d="M214.277 170.09C216.098 170.496 217.853 170.85 219.517 171.112C219.517 171.112 222.137 164.392 217.853 153.899L212.443 152.916C212.443 152.916 217.984 164.51 214.277 170.09Z" fill="#1C3A73"/>
<path opacity="0.6" d="M177.767 199.199C177.767 199.199 174.819 210.307 187.369 216.988C198.858 223.106 210.635 217.198 210.635 217.198C210.635 217.198 201.596 227.298 185.535 220.001C171.61 213.661 177.767 199.199 177.767 199.199Z" fill="#0B77DD"/>
<path d="M244.263 297.855C243.202 295.588 239.101 295.235 233.547 294.213C227.992 293.191 222.386 289.824 221.167 287.977C219.949 286.13 217.958 282.921 219.346 281.178C220.735 279.436 225.896 278.375 228.687 277.72C232.289 276.882 235.59 275.925 236.547 272.965C236.796 268.733 231.307 271.144 227.298 271.026C223.289 270.908 218.272 269.336 213.15 269.899C208.028 270.463 203.456 270.947 201.701 270.515C199.945 270.083 197.365 268.707 185.902 263.009C174.44 257.31 152.471 242.678 152.471 242.678C152.471 242.678 167.51 205.212 169.763 195.95C172.737 183.741 173.562 168.898 169.213 155.746C165.571 156.073 154.698 158.143 144.532 171.754C135.271 184.147 120.035 225.464 117.376 240.595C115.372 251.913 115.424 256.826 129.48 265.223C139.751 271.367 165.807 281.86 178.894 286.995L191.05 291.907C194.836 293.44 197.98 296.414 200.967 299.125C202.487 300.435 203.993 301.903 205.578 303.226C206.865 304.528 208.482 305.456 210.255 305.911C213.8 306.496 217.38 306.846 220.971 306.959C223.258 307.219 225.57 306.761 227.586 305.649C227.982 305.334 228.424 305.083 228.896 304.903C229.323 304.79 229.767 304.755 230.206 304.798C232.159 304.809 234.1 304.485 235.944 303.841C236.645 303.685 237.309 303.391 237.896 302.977C238.564 302.355 239.302 301.814 240.097 301.366C241.069 301.101 242.08 301.008 243.084 301.09C244.97 301.051 245.324 300.121 244.263 297.855Z" fill="#FFC194"/>
<path d="M172.357 171.453C173.47 182.142 173.549 186.374 169.58 198.727L153.165 242.442L172.514 255.018C168.883 258.358 165.731 262.185 163.147 266.389C160.693 270.491 159.457 275.207 159.584 279.986C159.584 279.986 136.24 270.869 129.101 265.93C121.961 260.991 117.979 258.293 116.734 254.664C115.49 251.035 114.717 246.28 117.9 234.294C121.083 222.307 127.293 207.845 131.812 195.819C136.332 183.793 142.698 168.571 150.624 162.807C155.964 158.648 162.373 156.086 169.108 155.418C169.108 155.418 171.243 160.776 172.357 171.453Z" fill="#80B3FF"/>
<path d="M153.165 242.442C147.571 238.852 139.423 236.272 136.777 236.481C144.506 234.634 154.318 239.35 154.318 239.35L153.165 242.442Z" fill="#E0E0E0"/>
<path d="M169.763 154.226C164.509 154.859 159.436 156.538 154.842 159.165C147.768 163.357 144.624 166.396 139.122 176.195C133.62 185.994 122.773 214.578 122.773 214.578C122.773 214.578 126.703 218.927 138.493 223.866C150.283 228.805 159.06 227.927 159.06 227.927C159.06 227.927 168.676 204.517 170.968 197.797C177.584 178.619 172.239 158.34 169.763 154.226Z" fill="#0B77DD"/>
<g opacity="0.3">
<path d="M169.763 154.226C164.509 154.859 159.436 156.538 154.842 159.165C147.768 163.357 144.624 166.396 139.122 176.195C133.62 185.994 122.773 214.578 122.773 214.578C122.773 214.578 126.703 218.927 138.493 223.866C150.283 228.805 159.06 227.927 159.06 227.927C159.06 227.927 168.676 204.517 170.968 197.797C177.584 178.619 172.239 158.34 169.763 154.226Z" fill="#1C3A73"/>
</g>
<path d="M286.589 487.124C286.34 486.534 280.039 490.7 279.397 491.198C275.951 494.093 271.956 498.691 271.406 503.328C270.987 506.826 272.428 510.193 273.738 513.415C276.082 519.179 275.938 525.205 276.358 531.441C276.462 533.065 276.554 534.677 276.803 536.288C277.727 542.707 280.889 548.593 285.73 552.907C290.572 557.222 296.782 559.687 303.265 559.868C307.26 559.868 312.186 557.562 311.374 552.82C310.758 549.244 309.068 545.759 308.138 542.248C306.533 536.227 305.364 530.098 304.64 523.908C304.536 522.205 293.217 503.027 291.671 499.267C289.977 495.215 288.283 491.167 286.589 487.124Z" fill="#263238"/>
<path d="M282.082 515.616C282.449 518.577 284.781 534.166 295.772 539.196C301.863 541.973 305.453 539.864 304.876 534.991C303.626 521.68 305.842 508.272 311.308 496.071C313.745 490.687 323.19 474.233 325.889 469.556C328.587 464.88 345.067 440.265 353.687 425.986L354.001 425.462L354.224 425.108C363.184 410.331 371.057 395.83 375.263 384.131C375.472 383.568 375.682 382.992 375.865 382.441C375.865 382.441 375.865 382.324 375.931 382.271C378.014 376.127 378.904 370.979 378.184 367.285L353.137 370.913L332.465 360.604C330.539 371.084 324.841 379.14 321.015 389.044C317.374 398.463 303.435 413.75 297.187 438.405C292.326 457.544 290.754 477.351 289.654 479.774C288.554 482.198 286.3 487.32 285.58 488.63C281.126 495.966 279.79 496.87 282.082 515.616Z" fill="#966448"/>
<path d="M342.513 522.415C342.146 522.061 338.674 529.882 338.412 530.563C336.979 534.172 336.177 538.001 336.041 541.882C335.984 542.971 336.121 544.063 336.447 545.104C336.926 546.259 337.655 547.292 338.583 548.13C342.971 552.427 349.141 554.235 354.643 556.933C358.559 558.702 362.21 561.008 365.49 563.785C368.66 566.614 371.634 569.732 375.328 571.907C377.744 573.15 380.353 573.973 383.044 574.343C386.318 574.866 389.635 575.064 392.948 574.933C397.231 574.658 401.148 573.78 404.384 570.636C406.755 568.344 408.104 564.243 406.1 561.309C405.462 560.442 404.719 559.659 403.886 558.977C399.812 555.375 395.489 552.113 391.284 548.641C388.717 546.294 385.86 544.286 382.782 542.668C379.664 541.213 376.546 539.864 373.455 538.384L362.713 533.262L351.722 528.022C349.888 527.144 348.067 526.24 346.233 525.402C344.82 524.642 343.559 523.63 342.513 522.415Z" fill="#263238"/>
<path d="M372.525 523.528C372.152 518.528 372.491 513.499 373.533 508.594C374.202 504.966 374.215 501.298 374.765 497.617C375.385 493.556 376.014 489.495 376.651 485.434C379.415 467.958 381.813 450.588 384.616 433.034C386.371 422.017 388.009 410.96 389.227 399.864C389.756 396.634 389.721 393.336 389.122 390.118C385.9 376.848 370.534 379.376 360.119 378.97L333.264 377.922H332.937C335.306 389.576 336.708 401.407 337.129 413.292C337.653 424.152 333.5 448.872 337.836 475.844C341.216 496.804 342.46 511.018 342.447 513.834C342.447 516.206 342.447 518.59 342.447 520.961C342.447 523.699 341.569 526.568 341.845 529.266C342.081 530.918 342.735 532.483 343.744 533.812C345.773 536.409 348.18 538.687 350.884 540.572C354.159 543.069 357.486 545.515 360.866 547.908C367.953 552.899 376.062 558.741 385.101 558.623C388.035 558.623 392.266 558.047 393.799 555.086C394.598 553.567 393.524 551.615 392.489 550.488C386.516 544.004 378.367 539.183 374.634 531.205C373.521 528.777 372.809 526.184 372.525 523.528Z" fill="#966448"/>
<path d="M337.129 413.279C337.129 417.497 336.749 421.689 336.408 425.894C336.067 430.099 335.792 434.291 335.557 438.509C335.105 446.951 335.183 455.413 335.792 463.845C336.107 468.063 336.683 472.255 337.338 476.421L339.303 488.853C339.932 493.001 340.517 497.162 341.059 501.337C341.622 505.503 342.159 509.669 342.447 513.874C342.156 505.449 341.43 497.045 340.273 488.695C339.277 480.325 337.587 472.085 337.063 463.727C336.683 459.548 336.539 455.356 336.434 451.151C336.329 446.946 336.434 442.754 336.539 438.549C336.644 434.344 336.84 430.139 337.037 425.933C337.233 421.728 337.404 417.497 337.129 413.279Z" fill="#74452B"/>
<path d="M294.75 295.051C276.855 307.274 270.292 382.101 259.956 459.273C259.956 459.273 284.375 475.674 330.251 477.613C376.127 479.552 402.891 460.95 402.891 460.95C402.891 460.95 403.231 354.512 391.808 293.859L294.75 295.051Z" fill="#263238"/>
<path d="M382.088 142.554C384.983 139.934 384.904 134.393 382.9 130.987C375.669 118.699 360.342 117.114 350.621 117.311C342.395 117.468 333.867 120.31 328.522 124.751C321.605 130.515 319.784 135.231 320.439 142.934C313.601 144.598 310.693 149.759 309.579 156.48C308.466 163.2 312.055 172.2 316.247 177.859C320.439 183.518 322.653 185.535 327.172 191.47C327.749 192.229 368.084 168.414 372.354 164.916C376.284 161.706 382.166 159.139 383.856 154.279C384.515 152.35 384.677 150.287 384.328 148.279C384.221 147.251 383.857 146.267 383.272 145.415C382.686 144.564 381.896 143.873 380.974 143.406C381.37 143.156 381.743 142.871 382.088 142.554Z" fill="#787878"/>
<path d="M326.007 119.944C324.614 119.384 323.109 119.16 321.614 119.29C320.119 119.419 318.675 119.899 317.4 120.69C316.804 120.166 316.09 119.794 315.318 119.607C314.547 119.42 313.742 119.423 312.972 119.616C311.438 120.03 310.018 120.787 308.819 121.83C306.286 123.849 304.168 126.34 302.584 129.166C301.089 131.572 300.379 134.383 300.553 137.209C300.673 138.615 301.198 139.955 302.066 141.067C302.933 142.178 304.106 143.014 305.44 143.471C305.162 144.889 305.325 146.358 305.905 147.681C306.486 149.003 307.457 150.117 308.688 150.873C309.935 151.599 311.325 152.046 312.761 152.182C314.198 152.318 315.646 152.139 317.007 151.659C319.723 150.668 322.143 149.005 324.042 146.825C329.465 140.93 336.67 124.319 326.007 119.944Z" fill="#787878"/>
<path d="M364.953 198.871C388.179 199.578 394.533 209.351 420.143 227.691C438.156 240.529 440.317 265.878 440.317 265.878C440.317 265.878 432.457 275.598 405.576 261.306C382.075 248.835 362.739 237.726 362.739 237.726L364.953 198.871Z" fill="#51768B"/>
<path opacity="0.1" d="M416.737 262.904C410.554 259.93 408.039 256.223 404.331 248.939C400.624 241.656 393.458 218.809 393.458 218.809L416.737 262.904Z" fill="black"/>
<path d="M384.171 178.828C384.171 178.828 383.241 178.658 382.52 177.007C381.8 175.357 381.616 174.112 380.843 172.265C380.07 170.418 378.328 167.444 376.429 167.615C374.529 167.785 374.765 172.082 375.629 175.37C376.726 178.453 376.79 181.81 375.813 184.933C375.104 187.122 374.989 189.461 375.479 191.709C375.97 193.957 377.047 196.036 378.603 197.731L384.171 178.828Z" fill="#694822"/>
<path d="M401.07 233.534C407.056 245.979 408.091 248.952 410.829 253.537C412.898 257.481 416.189 260.647 420.209 262.563C424.305 264.852 428.862 266.195 433.545 266.493C435.054 266.696 436.589 266.557 438.038 266.087C441.588 264.699 442.125 261.096 441.968 257.074C441.949 249.821 439.952 242.71 436.191 236.507C434.435 233.691 433.479 232.486 427.689 225.7C422.973 220.185 419.265 216.32 412.794 208.133C406.938 200.705 401.62 193.395 399.406 188.797C397.192 184.199 396.301 180.859 396.327 177.95C396.327 173.51 397.074 173.47 394.362 168.99C392.476 166.069 391.441 162.008 390.432 159.558C389.318 157.164 387.881 154.934 386.162 152.929C384.367 150.702 382.599 147.689 381.577 147.558C380.555 147.427 379.271 148.868 379.913 150.925C379.913 150.925 378.276 149.799 376.808 148.554C375.341 147.31 374.07 145.593 372.512 145.672C370.953 145.751 370.9 148.292 371.87 149.602C372.839 150.912 373.481 151.96 373.481 151.96C373.481 151.96 372.171 153.008 374.306 155.497C375.166 156.495 376.153 157.375 377.241 158.117C377.974 159.843 379.038 161.41 380.372 162.728C381.352 164.513 382.535 166.178 383.895 167.693C383.804 169.344 383.083 171.492 383.895 174.099C384.708 176.706 385.271 177.191 383.096 181.199C381.642 183.898 378.8 187.317 377.699 190.788C376.599 194.26 377.083 196.644 379.677 199.474C381.891 201.884 385.546 203.063 388.625 208.342C391.022 212.482 393.734 218.298 401.07 233.534Z" fill="#966448"/>
<path d="M379.9 150.925C380.34 151.765 380.848 152.566 381.42 153.322C381.983 154.069 382.599 154.803 383.201 155.484L383.293 155.589V155.772C383.369 156.267 383.474 156.757 383.607 157.239C384.04 158.696 384.792 160.039 385.808 161.169L385.978 161.353V161.562C385.922 161.944 385.887 162.329 385.874 162.715C385.874 163.108 385.874 163.514 385.874 163.907C385.874 164.3 385.952 164.706 386.031 165.099C386.12 165.502 386.229 165.9 386.358 166.291C385.861 165.606 385.496 164.832 385.284 164.012C385.169 163.583 385.09 163.145 385.048 162.702C385.009 162.266 385.009 161.828 385.048 161.392L385.179 161.785C384.326 161.029 383.642 160.1 383.175 159.06C382.933 158.551 382.74 158.021 382.599 157.475C382.45 156.923 382.362 156.356 382.337 155.785L382.455 156.073C381.842 155.312 381.307 154.491 380.856 153.624C380.401 152.779 380.078 151.868 379.9 150.925Z" fill="#694822"/>
<path d="M373.481 151.96C373.893 152.3 374.331 152.607 374.791 152.877C375.26 153.128 375.746 153.347 376.245 153.532H376.35L376.429 153.663C377.013 154.629 377.727 155.51 378.551 156.283C379.354 157.049 380.291 157.662 381.315 158.091L381.629 158.222V158.576C381.676 159.191 381.781 159.801 381.944 160.396C382.111 161.011 382.317 161.615 382.559 162.204C382.809 162.806 383.093 163.392 383.411 163.96C383.712 164.549 384.079 165.086 384.446 165.663C383.927 165.222 383.445 164.74 383.005 164.222C382.568 163.698 382.177 163.137 381.839 162.545C381.499 161.949 381.218 161.322 381 160.672C380.762 160.004 380.612 159.308 380.555 158.602L380.896 159.073C380.297 158.855 379.729 158.56 379.206 158.196C378.691 157.848 378.216 157.444 377.791 156.99C376.935 156.112 376.25 155.081 375.774 153.951L375.944 154.122C375.437 153.86 374.966 153.534 374.542 153.152C374.132 152.809 373.775 152.407 373.481 151.96Z" fill="#694822"/>
<path d="M373.481 151.96C373.481 151.96 372.171 153.008 374.306 155.497C375.166 156.495 376.153 157.375 377.241 158.117C377.912 159.595 378.795 160.967 379.861 162.191C379.721 158.049 379.239 153.926 378.42 149.864C377.922 149.484 377.359 149.052 376.822 148.554C375.341 147.244 374.084 145.593 372.525 145.672C370.966 145.751 370.913 148.292 371.883 149.602C372.852 150.912 373.481 151.96 373.481 151.96Z" fill="#694822"/>
<path d="M385.677 170.942C385.984 172.125 386.011 173.363 385.756 174.558C385.506 175.748 385.063 176.889 384.446 177.937C384.537 177.348 384.695 176.758 384.826 176.182C384.957 175.606 385.101 175.029 385.205 174.453C385.443 173.295 385.601 172.122 385.677 170.942Z" fill="#694822"/>
<path d="M379.284 186.937C379.151 189.095 379.496 191.255 380.293 193.264C380.712 194.236 381.258 195.148 381.917 195.976C382.622 196.83 383.383 197.635 384.197 198.386C383.115 197.967 382.123 197.345 381.276 196.552C380.003 195.344 379.13 193.775 378.774 192.057C378.418 190.338 378.596 188.552 379.284 186.937Z" fill="#694822"/>
<path d="M393.458 218.849C402.432 219.726 411.484 210.334 412.074 205.604C427.794 223.198 433.82 230.259 437.553 236.534C441.287 242.808 448.321 264.044 437.16 267.751C425.999 271.458 413.999 262.825 409.571 254.651C406.925 249.699 393.458 218.849 393.458 218.849Z" fill="#51768B"/>
<path d="M326.19 198.269C323.937 198.544 309.461 203.43 304.916 205.46C294.331 210.19 288.187 221.587 287.113 233.259C286.366 241.433 287.925 249.607 289.497 257.651C291.069 265.694 292.667 273.869 291.999 282.043C291.527 287.807 291.58 292.13 295.929 296.453C299.269 299.728 304.536 300.383 308.911 301.366C321.772 304.404 334.92 306.068 348.132 306.33C352.877 306.464 357.625 306.289 362.346 305.806C372.747 304.654 388.847 302.099 393.262 291.056C395.699 284.964 393.419 278.139 392.817 271.602C391.808 260.611 398.764 250.642 396.747 239.874C393.773 223.565 381.865 213.307 364.914 198.91L352.704 198.216C352.704 198.216 336.526 197.011 326.19 198.269Z" fill="#5E8398"/>
<path d="M375.538 329.819L370.455 589.5C370.455 590.456 371.346 591.426 373.193 591.924C374.226 592.173 375.304 592.173 376.337 591.924C378.21 591.504 379.153 590.613 379.179 589.618L384.262 329.989L375.538 329.819Z" fill="#341000"/>
<path d="M370.455 589.5C370.455 590.456 371.346 591.426 373.193 591.924C374.226 592.173 375.304 592.173 376.337 591.924C378.21 591.504 379.153 590.614 379.179 589.618L379.31 582.845C379.31 583.802 378.341 584.732 376.468 585.151C375.439 585.404 374.365 585.404 373.337 585.151C371.477 584.653 370.56 583.684 370.586 582.727L370.455 589.5Z" fill="#37474F"/>
<path d="M393.197 324.631C393.079 324.304 392.83 323.636 392.659 323.216C391.821 321.199 391.114 320.099 390.393 318.422C389.618 316.665 388.656 314.996 387.524 313.444C386.647 312.461 385.73 311.832 383.11 311.911C374.437 312.16 370.429 312.579 363.198 313.221C361.807 313.225 360.428 312.981 359.123 312.501C357.394 311.963 338.923 302.23 337.063 301.313C337.063 301.313 331.823 302.898 327.474 311.4C324.854 316.64 324.71 325.718 324.71 325.718L355.102 336.198C355.102 336.198 361.128 338.91 365.831 335.308C365.831 335.308 365.005 337.6 367.062 338.19C367.755 338.311 368.466 338.266 369.138 338.059C369.81 337.852 370.423 337.488 370.927 336.998C371.602 337.445 372.368 337.738 373.169 337.855C373.971 337.973 374.788 337.913 375.564 337.679C377.935 336.801 378.682 336.709 379.088 335.74C379.088 335.74 382.874 336.264 383.791 335.203L385.992 335.412C387.548 336.3 389.386 336.558 391.127 336.133C393.983 335.386 394.69 333.199 392.908 331.535L391.14 329.858C391.14 329.858 392.083 328.378 392.738 327.173C393.393 325.967 393.485 325.456 393.197 324.631Z" fill="#966448"/>
<path d="M391.127 336.094C393.982 335.347 394.69 333.159 392.908 331.496L391.14 329.819C390.199 331.398 389.082 332.865 387.812 334.194C387.274 334.684 386.659 335.083 385.991 335.373C387.548 336.261 389.386 336.519 391.127 336.094Z" fill="#9D6A4E"/>
<path d="M358.56 313.195C357.387 314.094 356.354 315.163 355.495 316.365C354.806 317.665 354.223 319.019 353.752 320.413C353.595 320.767 353.504 321.094 353.307 321.474L352.731 322.443C352.367 323.074 352.06 323.736 351.814 324.422C351.341 325.824 351.167 327.31 351.303 328.784C350.97 327.302 351.02 325.761 351.447 324.304C351.684 323.59 352.001 322.904 352.39 322.26L352.94 321.304C353.084 321.016 353.202 320.623 353.346 320.282C353.847 318.862 354.483 317.493 355.246 316.195C356.149 314.993 357.274 313.974 358.56 313.195Z" fill="#64401E"/>
<path d="M386.136 316.221C386.026 317.084 386.205 317.96 386.646 318.71C387.066 319.496 387.432 320.295 387.812 321.094C388.192 321.893 388.52 322.705 388.834 323.531C388.991 323.95 389.135 324.356 389.266 324.841C389.41 325.289 389.45 325.764 389.384 326.229C389.196 327.122 388.84 327.971 388.336 328.731C387.891 329.491 387.432 330.251 386.948 330.985C386.017 332.478 384.961 333.889 383.791 335.203C384.839 333.801 385.703 332.268 386.62 330.775C387.053 330.015 387.511 329.269 387.93 328.509C388.39 327.794 388.71 326.998 388.873 326.164C388.925 325.325 388.763 324.486 388.402 323.727C388.114 322.902 387.773 322.103 387.459 321.291C387.144 320.478 386.791 319.653 386.424 318.867C386.216 318.458 386.087 318.014 386.044 317.557C386.034 317.11 386.065 316.663 386.136 316.221Z" fill="#64401E"/>
<path d="M380.11 316.627C380.278 317.458 380.574 318.258 380.987 318.998L382.127 321.291C382.509 322.064 382.833 322.866 383.096 323.688C383.407 324.525 383.479 325.432 383.306 326.308C382.612 327.919 381.996 329.452 381.262 331.011C380.529 332.57 379.848 334.116 379.088 335.648C379.651 334.037 380.28 332.452 380.909 330.854L382.821 326.138C382.992 325.347 382.932 324.525 382.651 323.767C382.415 322.967 382.088 322.181 381.773 321.395C380.98 319.899 380.419 318.292 380.11 316.627Z" fill="#64401E"/>
<path d="M370.455 317.269C370.877 318.103 371.354 318.908 371.883 319.679C372.379 320.458 372.945 321.19 373.573 321.867C374.365 322.449 374.941 323.279 375.21 324.225C375.385 325.162 375.438 326.117 375.367 327.068C375.367 327.998 375.367 328.928 375.367 329.884C375.364 330.861 375.057 331.814 374.49 332.609C373.391 334.133 372.197 335.586 370.913 336.958C372.027 335.452 373.153 333.958 374.162 332.399C375.171 330.841 374.83 328.928 374.856 327.068C374.937 326.154 374.897 325.233 374.739 324.33C374.513 323.471 374.028 322.703 373.35 322.129C372.13 320.675 371.152 319.034 370.455 317.269Z" fill="#64401E"/>
<path d="M363.145 321.854C363.345 322.809 363.761 323.706 364.363 324.474C364.918 325.262 365.655 325.905 366.512 326.347L366.643 326.426V326.583C366.53 328.12 366.862 329.657 367.599 331.011L367.665 331.116V331.207C367.088 332.517 366.512 333.906 365.87 335.242C366.289 333.827 366.774 332.439 367.258 331.05V331.247C366.4 329.837 366.023 328.186 366.184 326.544L366.315 326.78C365.402 326.285 364.642 325.552 364.114 324.657C363.531 323.834 363.195 322.862 363.145 321.854Z" fill="#64401E"/>
<path d="M364.062 324.33C361.97 325.149 359.935 326.107 357.971 327.199C356.268 328.406 355.084 330.212 354.656 332.255C354.342 334.312 356.648 334.875 357.971 334.613C358.77 334.482 360.669 332.766 361.992 332.373C363.688 332.071 365.405 331.904 367.128 331.875L367.416 331.155C366.621 329.774 366.269 328.183 366.407 326.596C365.435 326.066 364.625 325.283 364.062 324.33Z" fill="#37474F"/>
<path d="M304.601 205.67C298.051 208.487 290.597 211.526 285.554 216.517C281.1 220.932 278.218 229.682 275.834 247.682C273.672 264.162 272.048 278.061 271.144 289.89C270.24 301.719 270.253 304.536 281.519 309.828C290.375 313.981 334.718 329.963 334.718 329.963C333.644 321.055 338.714 308.833 347.818 305.872L306.763 283.301L311.623 250.027C311.623 250.027 317.02 219.582 304.601 205.67Z" fill="#51768B"/>
<path d="M327.055 178.422L326.19 198.871L360.643 219.87L354.892 201.963L355.377 190.382L327.055 178.422Z" fill="#966448"/>
<path d="M355.377 190.382L349.94 188.09L331.915 187.33C335.478 192.125 345.46 198.19 354.984 199.579L355.377 190.382Z" fill="#694822"/>
<path d="M327.055 178.422C325.457 178.977 323.732 179.058 322.089 178.656C320.446 178.254 318.954 177.386 317.793 176.156C313.378 171.571 311.885 165.833 315.658 162.099C316.636 161.21 317.812 160.567 319.088 160.221C320.364 159.876 321.704 159.838 322.997 160.112C324.29 160.386 325.5 160.963 326.527 161.796C327.553 162.629 328.367 163.694 328.902 164.903C328.902 164.903 333.421 171.453 335.006 156.689C335.635 150.833 339.408 143.131 346.534 141.428C359.975 138.205 363.944 151.803 372.59 140.353C375.381 143.458 379.35 146.393 378.551 168.859C377.883 187.906 370.494 192.662 367.376 193.972C364.259 195.282 358.442 197.142 348.106 194.483C341.387 192.934 335.092 189.919 329.675 185.653C326.95 183.492 327.055 178.422 327.055 178.422Z" fill="#966448"/>
<path d="M346.443 161.13C346.158 160.532 345.657 160.064 345.041 159.82C344.79 159.689 344.532 159.571 344.268 159.466C344.089 159.4 343.905 159.348 343.718 159.309H343.6C343.539 159.303 343.477 159.303 343.417 159.309C343.246 159.309 343.155 159.453 343.037 159.558C342.978 159.624 342.933 159.702 342.906 159.786C342.878 159.87 342.867 159.958 342.874 160.046C342.882 160.135 342.907 160.22 342.948 160.298C342.99 160.377 343.046 160.446 343.115 160.501C343.115 160.501 343.613 160.763 343.364 160.658L343.613 160.789L343.81 160.868L344.098 160.973C344.304 161.042 344.505 161.125 344.7 161.222L344.975 161.366L345.224 161.484L345.434 161.615C345.558 161.674 345.676 161.744 345.788 161.824C345.82 161.861 345.859 161.89 345.903 161.909C345.947 161.929 345.995 161.94 346.043 161.94C346.091 161.94 346.139 161.929 346.183 161.909C346.227 161.89 346.267 161.861 346.299 161.824C346.387 161.735 346.447 161.621 346.473 161.498C346.498 161.375 346.488 161.247 346.443 161.13Z" fill="#694822"/>
<path d="M345.224 162.781C345.025 162.672 344.807 162.601 344.582 162.571H344.268H344.058H343.77C343.317 162.407 342.847 162.293 342.369 162.23C342.159 162.23 342.054 162.532 342.041 162.689C342.024 162.806 342.035 162.925 342.074 163.037C342.112 163.149 342.178 163.25 342.264 163.331C342.517 163.535 342.805 163.691 343.115 163.789C343.307 163.857 343.504 163.91 343.705 163.947C343.942 164.002 344.183 164.037 344.425 164.051H344.687H344.949C345.185 163.986 345.277 163.816 345.395 163.619C345.449 163.557 345.489 163.483 345.51 163.403C345.532 163.323 345.534 163.239 345.518 163.158C345.501 163.076 345.466 163 345.415 162.935C345.364 162.869 345.299 162.817 345.224 162.781Z" fill="#694822"/>
<path d="M377.568 159.558C377.533 159.492 377.484 159.434 377.426 159.387C377.367 159.34 377.299 159.306 377.227 159.286C377.155 159.267 377.079 159.262 377.005 159.273C376.93 159.284 376.859 159.309 376.795 159.348C376.643 159.415 376.485 159.467 376.324 159.506C376.022 159.61 375.721 159.689 375.407 159.768C375.348 159.788 375.29 159.815 375.236 159.846C375.199 159.902 375.178 159.969 375.178 160.036C375.178 160.104 375.199 160.17 375.236 160.226C375.498 160.632 375.97 160.606 376.402 160.58C376.791 160.589 377.176 160.508 377.529 160.344C377.58 160.303 377.62 160.251 377.648 160.192C377.675 160.133 377.688 160.069 377.686 160.003C377.69 159.847 377.649 159.692 377.568 159.558Z" fill="#694822"/>
<path d="M377.739 162.689H377.66L377.555 162.61H377.477H377.411H377.136H377.07H376.638C376.242 162.571 375.842 162.571 375.446 162.61C375.374 162.62 375.305 162.646 375.245 162.687C375.185 162.728 375.136 162.783 375.101 162.847C375.067 162.911 375.048 162.983 375.046 163.055C375.045 163.128 375.061 163.2 375.092 163.265C375.19 163.386 375.323 163.473 375.472 163.514C375.742 163.596 376.018 163.653 376.298 163.685H376.468C376.769 163.685 377.084 163.776 377.398 163.802C377.712 163.829 378.001 163.567 377.909 163.265C377.922 163.059 377.861 162.855 377.739 162.689Z" fill="#694822"/>
<path d="M353.464 178.684C353.469 178.709 353.469 178.735 353.464 178.76V178.684Z" fill="#694822"/>
<path d="M353.464 178.723V178.787C353.461 178.766 353.461 178.744 353.464 178.723Z" fill="#694822"/>
<path d="M349.77 162.794C349.652 161.628 350.962 163.213 352.455 163.056C353.949 162.899 355.075 161.025 355.167 162.191C355.143 162.836 354.871 163.448 354.407 163.897C353.943 164.346 353.324 164.599 352.678 164.602C352.053 164.747 351.395 164.638 350.85 164.299C350.305 163.96 349.916 163.419 349.77 162.794Z" fill="#263238"/>
<path d="M367.56 161.955C367.717 160.789 368.647 162.637 370.18 162.807C371.712 162.977 373.18 161.405 373.036 162.571C372.847 163.189 372.436 163.716 371.882 164.05C371.328 164.384 370.671 164.501 370.036 164.379C368.516 164.209 367.416 163.121 367.56 161.955Z" fill="#263238"/>
<path d="M368.857 153.44L374.333 155.628C374.209 155.992 374.012 156.327 373.755 156.613C373.497 156.899 373.184 157.129 372.835 157.289C372.486 157.45 372.107 157.538 371.723 157.547C371.338 157.556 370.956 157.487 370.599 157.344C369.864 157.041 369.273 156.466 368.949 155.74C368.625 155.014 368.592 154.19 368.857 153.44Z" fill="white"/>
<path d="M349.39 154.973L354.971 153.06C355.112 153.417 355.18 153.799 355.169 154.183C355.159 154.567 355.071 154.945 354.911 155.294C354.75 155.643 354.521 155.956 354.236 156.213C353.952 156.471 353.618 156.669 353.255 156.794C352.5 157.043 351.678 156.993 350.959 156.654C350.24 156.315 349.679 155.713 349.39 154.973Z" fill="white"/>
<path d="M360.433 158.34L362.045 174.597L371.202 171.23L360.433 158.34Z" fill="#694822"/>
<path d="M358.324 153.27C358.197 152.905 358.002 152.567 357.748 152.274C357.464 151.939 357.117 151.665 356.725 151.467C356.334 151.269 355.906 151.151 355.468 151.122C355.324 151.122 355.272 151.305 355.285 151.423C355.293 151.505 355.321 151.584 355.366 151.652C355.412 151.721 355.474 151.777 355.547 151.816C355.685 151.897 355.817 151.989 355.94 152.091C355.972 152.129 356.007 152.164 356.045 152.196L356.189 152.34H356.268L356.385 152.497L356.503 152.654L356.569 152.733C356.607 152.785 356.638 152.843 356.661 152.903V152.995C356.661 152.995 356.661 153.113 356.661 153.178C356.667 153.217 356.667 153.257 356.661 153.296C356.68 153.519 356.68 153.742 356.661 153.964C356.668 154.128 356.726 154.286 356.827 154.415C356.928 154.544 357.067 154.639 357.224 154.685C357.372 154.745 357.536 154.75 357.687 154.7C357.839 154.65 357.967 154.547 358.049 154.41C358.188 154.186 358.257 153.926 358.246 153.663C358.286 153.535 358.313 153.404 358.324 153.27Z" fill="#694822"/>
<path d="M367.363 151.397C367.165 151.477 366.983 151.593 366.826 151.737C366.666 151.88 366.525 152.043 366.407 152.222C366.221 152.505 366.067 152.808 365.949 153.126C365.834 153.456 365.763 153.799 365.739 154.148C365.734 154.355 365.756 154.562 365.804 154.763C365.823 154.87 365.849 154.975 365.883 155.078C365.945 155.212 366.04 155.329 366.158 155.418C366.254 155.579 366.384 155.718 366.538 155.825C366.669 155.825 366.721 155.825 366.839 155.746C366.983 155.59 367.086 155.401 367.141 155.196C367.147 155.104 367.147 155.012 367.141 154.921C367.141 154.777 367.141 154.659 367.206 154.528C367.272 154.397 367.206 154.357 367.206 154.266V154.043V153.899C367.276 153.617 367.368 153.341 367.481 153.074C367.547 152.943 367.612 152.825 367.665 152.694C367.794 152.498 367.887 152.28 367.94 152.052C368.11 151.724 367.73 151.253 367.363 151.397Z" fill="#694822"/>
<path d="M360.879 180.308L360.748 180.125C360.681 180.032 360.606 179.944 360.525 179.863C360.369 179.679 360.203 179.504 360.027 179.339C359.63 178.959 359.19 178.625 358.717 178.343C358.03 177.942 357.289 177.642 356.516 177.453C357.577 176.251 358.236 174.749 358.403 173.156C358.403 173.012 358.219 172.658 358.102 172.92C357.165 175.032 355.665 176.845 353.765 178.16C352.804 178.781 351.752 179.249 350.648 179.549C350.117 179.711 349.574 179.83 349.023 179.902C348.447 179.981 347.857 180.007 347.268 180.033C346.943 180.014 346.619 180.077 346.325 180.217C346.154 180.322 346.325 180.649 346.403 180.715C347.807 181.147 349.309 181.147 350.713 180.715C352.075 180.44 353.372 179.911 354.538 179.156C354.84 178.959 355.115 178.75 355.39 178.54C355.486 178.58 355.588 178.606 355.691 178.619C356.574 178.709 357.434 178.953 358.233 179.339C358.603 179.522 358.962 179.727 359.307 179.955C359.667 180.186 360.008 180.444 360.329 180.728C360.491 180.904 360.687 181.047 360.905 181.147C360.928 181.159 360.954 181.164 360.98 181.163C361.006 181.161 361.031 181.153 361.053 181.138C361.075 181.123 361.092 181.103 361.102 181.079C361.113 181.055 361.118 181.029 361.115 181.003C361.091 180.756 361.011 180.518 360.879 180.308Z" fill="#694822"/>
</svg>
