<svg width="758" height="758" viewBox="0 0 758 758" fill="none" xmlns="http://www.w3.org/2000/svg">
<path d="M758 579.718H0V580.097H758V579.718Z" fill="#EBEBEB"/>
<path d="M682.048 604.111H631.839V604.49H682.048V604.111Z" fill="#EBEBEB"/>
<path d="M502.13 608.234H488.956V608.613H502.13V608.234Z" fill="#EBEBEB"/>
<path d="M630.322 590.042H601.23V590.421H630.322V590.042Z" fill="#EBEBEB"/>
<path d="M145.005 592.589H79.5294V592.968H145.005V592.589Z" fill="#EBEBEB"/>
<path d="M168.109 592.589H158.513V592.968H168.109V592.589Z" fill="#EBEBEB"/>
<path d="M341.327 598.987H199.309V599.366H341.327V598.987Z" fill="#EBEBEB"/>
<path d="M359.292 512.105H66.5676C64.2744 512.101 62.0765 511.187 60.4564 509.564C58.8363 507.941 57.9264 505.742 57.9264 503.448V91.9604C57.9464 89.6804 58.8651 87.5003 60.483 85.8937C62.101 84.2871 64.2875 83.3838 66.5676 83.3799H359.292C361.588 83.3799 363.79 84.2919 365.413 85.9153C367.036 87.5387 367.948 89.7404 367.948 92.0362V503.448C367.948 505.744 367.036 507.946 365.413 509.569C363.79 511.193 361.588 512.105 359.292 512.105ZM66.5676 83.6831C64.3749 83.6871 62.2734 84.5609 60.7244 86.1128C59.1754 87.6647 58.3054 89.7678 58.3054 91.9604V503.448C58.3054 505.641 59.1754 507.744 60.7244 509.296C62.2734 510.848 64.3749 511.722 66.5676 511.726H359.292C361.486 511.722 363.589 510.848 365.141 509.297C366.692 507.745 367.565 505.642 367.569 503.448V91.9604C367.565 89.7664 366.692 87.6633 365.141 86.1119C363.589 84.5605 361.486 83.6871 359.292 83.6831H66.5676Z" fill="#EBEBEB"/>
<path d="M687.218 512.105H394.478C392.184 512.101 389.984 511.187 388.362 509.565C386.739 507.942 385.826 505.743 385.822 503.448V91.9604C385.846 89.679 386.768 87.499 388.388 85.8928C390.009 84.2866 392.197 83.3837 394.478 83.3799H687.218C689.495 83.3878 691.678 84.2929 693.293 85.8991C694.907 87.5052 695.824 89.683 695.844 91.9604V503.448C695.844 505.739 694.936 507.936 693.319 509.559C691.703 511.181 689.509 512.097 687.218 512.105ZM394.478 83.6831C392.284 83.6871 390.181 84.5605 388.63 86.1119C387.078 87.6633 386.205 89.7664 386.201 91.9604V503.448C386.205 505.642 387.078 507.745 388.63 509.297C390.181 510.848 392.284 511.722 394.478 511.726H687.218C689.412 511.722 691.515 510.848 693.067 509.297C694.618 507.745 695.491 505.642 695.495 503.448V91.9604C695.491 89.7664 694.618 87.6633 693.067 86.1119C691.515 84.5605 689.412 83.6871 687.218 83.6831H394.478Z" fill="#EBEBEB"/>
<path d="M290.496 151.964H146.976V475.281H290.496V151.964Z" fill="#F5F5F5"/>
<path d="M285.084 469.217V158.028H152.388L152.388 469.217H285.084Z" fill="#FAFAFA"/>
<path d="M220.26 156.466H217.212V472.249H220.26V156.466Z" fill="#F5F5F5"/>
<path d="M293.801 147.749H143.656V162.97H293.801V147.749Z" fill="#F5F5F5"/>
<path d="M293.801 164.653H143.656V166.457H293.801V164.653Z" fill="#F5F5F5"/>
<path d="M293.801 168.746H143.656V170.55H293.801V168.746Z" fill="#F5F5F5"/>
<path d="M293.801 172.839H143.656V174.643H293.801V172.839Z" fill="#F5F5F5"/>
<path d="M293.801 176.932H143.656V178.736H293.801V176.932Z" fill="#F5F5F5"/>
<path d="M293.801 181.025H143.656V182.829H293.801V181.025Z" fill="#F5F5F5"/>
<path d="M293.801 185.119H143.656V186.923H293.801V185.119Z" fill="#F5F5F5"/>
<path d="M293.801 189.212H143.656V191.016H293.801V189.212Z" fill="#F5F5F5"/>
<path d="M293.801 193.305H143.656V195.109H293.801V193.305Z" fill="#F5F5F5"/>
<path d="M293.801 197.398H143.656V199.202H293.801V197.398Z" fill="#F5F5F5"/>
<path d="M293.801 201.491H143.656V203.295H293.801V201.491Z" fill="#F5F5F5"/>
<path d="M293.801 205.585H143.656V207.389H293.801V205.585Z" fill="#F5F5F5"/>
<path d="M293.801 209.678H143.656V211.482H293.801V209.678Z" fill="#F5F5F5"/>
<path d="M293.801 213.771H143.656V215.575H293.801V213.771Z" fill="#F5F5F5"/>
<path d="M293.801 217.864H143.656V219.668H293.801V217.864Z" fill="#F5F5F5"/>
<path d="M293.801 221.958H143.656V223.762H293.801V221.958Z" fill="#F5F5F5"/>
<path d="M293.801 226.066H143.656V227.87H293.801V226.066Z" fill="#F5F5F5"/>
<path d="M293.801 230.159H143.656V231.963H293.801V230.159Z" fill="#F5F5F5"/>
<path d="M293.801 234.252H143.656V236.056H293.801V234.252Z" fill="#F5F5F5"/>
<path d="M460.409 151.964H316.889V475.281H460.409V151.964Z" fill="#F5F5F5"/>
<path d="M455.012 469.217V158.028H322.317V469.217H455.012Z" fill="#FAFAFA"/>
<path d="M390.173 156.466H387.126V472.249H390.173V156.466Z" fill="#F5F5F5"/>
<path d="M463.729 147.749H313.585V162.97H463.729V147.749Z" fill="#F5F5F5"/>
<path d="M463.729 164.653H313.585V166.457H463.729V164.653Z" fill="#F5F5F5"/>
<path d="M463.729 168.746H313.585V170.55H463.729V168.746Z" fill="#F5F5F5"/>
<path d="M463.729 172.839H313.585V174.643H463.729V172.839Z" fill="#F5F5F5"/>
<path d="M463.729 176.932H313.585V178.736H463.729V176.932Z" fill="#F5F5F5"/>
<path d="M463.729 181.025H313.585V182.829H463.729V181.025Z" fill="#F5F5F5"/>
<path d="M463.729 185.119H313.585V186.923H463.729V185.119Z" fill="#F5F5F5"/>
<path d="M463.729 189.212H313.585V191.016H463.729V189.212Z" fill="#F5F5F5"/>
<path d="M463.729 193.305H313.585V195.109H463.729V193.305Z" fill="#F5F5F5"/>
<path d="M463.729 197.398H313.585V199.202H463.729V197.398Z" fill="#F5F5F5"/>
<path d="M463.729 201.491H313.585V203.295H463.729V201.491Z" fill="#F5F5F5"/>
<path d="M463.729 205.585H313.585V207.389H463.729V205.585Z" fill="#F5F5F5"/>
<path d="M463.729 209.678H313.585V211.482H463.729V209.678Z" fill="#F5F5F5"/>
<path d="M463.729 213.771H313.585V215.575H463.729V213.771Z" fill="#F5F5F5"/>
<path d="M463.729 217.864H313.585V219.668H463.729V217.864Z" fill="#F5F5F5"/>
<path d="M463.729 221.958H313.585V223.762H463.729V221.958Z" fill="#F5F5F5"/>
<path d="M463.729 226.066H313.585V227.87H463.729V226.066Z" fill="#F5F5F5"/>
<path d="M463.729 230.159H313.585V231.963H463.729V230.159Z" fill="#F5F5F5"/>
<path d="M463.729 234.252H313.585V236.056H463.729V234.252Z" fill="#F5F5F5"/>
<path d="M630.338 151.964H486.818V475.281H630.338V151.964Z" fill="#F5F5F5"/>
<path d="M624.925 469.217V158.028H492.23V469.217H624.925Z" fill="#FAFAFA"/>
<path d="M560.101 156.466H557.054V472.249H560.101V156.466Z" fill="#F5F5F5"/>
<path d="M633.643 147.749H483.498V162.97H633.643V147.749Z" fill="#F5F5F5"/>
<path d="M633.643 164.653H483.498V166.457H633.643V164.653Z" fill="#F5F5F5"/>
<path d="M633.643 168.746H483.498V170.55H633.643V168.746Z" fill="#F5F5F5"/>
<path d="M633.643 172.839H483.498V174.643H633.643V172.839Z" fill="#F5F5F5"/>
<path d="M633.643 176.932H483.498V178.736H633.643V176.932Z" fill="#F5F5F5"/>
<path d="M633.643 181.025H483.498V182.829H633.643V181.025Z" fill="#F5F5F5"/>
<path d="M633.643 185.119H483.498V186.923H633.643V185.119Z" fill="#F5F5F5"/>
<path d="M633.643 189.212H483.498V191.016H633.643V189.212Z" fill="#F5F5F5"/>
<path d="M633.643 193.305H483.498V195.109H633.643V193.305Z" fill="#F5F5F5"/>
<path d="M633.643 197.398H483.498V199.202H633.643V197.398Z" fill="#F5F5F5"/>
<path d="M633.643 201.491H483.498V203.295H633.643V201.491Z" fill="#F5F5F5"/>
<path d="M633.643 205.585H483.498V207.389H633.643V205.585Z" fill="#F5F5F5"/>
<path d="M633.643 209.678H483.498V211.482H633.643V209.678Z" fill="#F5F5F5"/>
<path d="M633.643 213.771H483.498V215.575H633.643V213.771Z" fill="#F5F5F5"/>
<path d="M633.643 217.864H483.498V219.668H633.643V217.864Z" fill="#F5F5F5"/>
<path d="M633.643 221.958H483.498V223.762H633.643V221.958Z" fill="#F5F5F5"/>
<path d="M633.643 226.066H483.498V227.87H633.643V226.066Z" fill="#F5F5F5"/>
<path d="M633.643 230.159H483.498V231.963H633.643V230.159Z" fill="#F5F5F5"/>
<path d="M633.643 234.252H483.498V236.056H633.643V234.252Z" fill="#F5F5F5"/>
<path d="M624.365 539.802C624.365 539.802 632.036 523.05 623.273 506.541C614.511 490.032 611.949 486.151 617.543 482.755C623.137 479.359 625.699 495.974 625.699 495.974C628.47 488.477 628.757 480.286 626.517 472.613C622.636 460.667 620.196 441.201 625.502 439.124C630.808 437.048 626.517 463.38 631.141 472.385C633.502 466.077 635.031 459.487 635.689 452.784C636.326 443.187 635.325 427.861 639.525 423.98C643.724 420.099 646.407 422.767 642.284 443.945C639.805 456.597 638.436 469.441 638.191 482.33C638.191 482.33 647.287 454.557 653.426 453.739C659.566 452.92 659.49 461.925 654.29 469.732C649.091 477.54 638.964 491.502 637.311 498.703C637.311 498.703 647.317 477.798 656.307 484.21C665.297 490.623 648.469 503.236 640.98 507.799C633.491 512.362 628.276 540.954 628.276 540.954L624.365 539.802Z" fill="#E0E0E0"/>
<path d="M630.429 546.67C630.429 546.67 622.955 529.812 631.945 513.439C640.935 497.066 643.512 493.2 638.009 489.744C632.506 486.287 629.701 502.827 629.701 502.827C629.701 502.827 625.153 491.336 629.155 479.45C633.157 467.565 635.871 448.145 630.58 445.977C625.289 443.809 629.276 470.233 624.516 479.147C622.243 472.791 620.805 466.166 620.241 459.439C619.726 449.843 620.908 434.531 616.754 430.544C612.6 426.557 609.887 429.225 613.722 450.464C616.046 463.15 617.264 476.013 617.361 488.91C617.361 488.91 608.583 461 602.474 460.106C596.364 459.211 596.273 468.201 601.412 476.085C606.552 483.968 616.481 498.097 618.088 505.313C618.088 505.313 608.34 484.256 599.275 490.532C590.209 496.808 606.855 509.679 614.314 514.348C621.772 519.018 626.623 547.7 626.623 547.7L630.429 546.67Z" fill="#EBEBEB"/>
<path d="M595.94 534.663H657.701L652.699 578.839H600.942L595.94 534.663Z" fill="#EBEBEB"/>
<path d="M133.044 531.509C132.817 529.993 127.708 494.686 137.956 482.482C138.98 481.198 140.274 480.156 141.747 479.43C143.22 478.705 144.834 478.313 146.476 478.283C167.184 477.797 170.019 494.443 170.05 494.61L167.594 494.989C167.503 494.383 165.047 480.314 146.537 480.754C145.245 480.772 143.974 481.08 142.817 481.655C141.66 482.229 140.646 483.056 139.851 484.074C130.3 495.429 135.439 530.782 135.485 531.146L133.044 531.509Z" fill="#EBEBEB"/>
<path d="M131.801 529.903L129.33 529.827C129.33 529.493 130.149 497.263 114.261 490.608C98.7067 484.089 91.7028 497.49 91.4148 498.067L89.2014 496.96C89.2924 496.793 97.4939 480.905 115.216 488.334C132.665 495.641 131.892 528.508 131.801 529.903Z" fill="#EBEBEB"/>
<path d="M131.892 532.434C131.892 531.919 131.74 480.89 121.811 466.033C112.275 451.722 96.8724 458.453 96.2206 458.757L95.2048 456.513C95.3868 456.422 113.139 448.584 123.872 464.669C134.212 480.193 134.363 530.297 134.363 532.434H131.892Z" fill="#EBEBEB"/>
<path d="M149.447 479.511C149.447 479.511 140.351 482.846 143.095 490.714C145.839 498.582 174.34 511.529 174.34 511.529C174.34 511.529 186.301 500.553 175.31 482.725C164.319 464.896 149.69 473.886 149.447 479.511Z" fill="#E0E0E0"/>
<path d="M121.28 463.35C121.28 463.35 127.708 462.668 127.192 458.802C126.677 454.936 102.239 444.825 87.7764 461.106C87.7764 461.106 97.0089 476.964 110.35 477.161C123.69 477.358 121.28 463.35 121.28 463.35Z" fill="#E0E0E0"/>
<path d="M114.746 489.471C114.746 489.471 119.173 485.893 114.397 484.15C109.622 482.406 86.1543 482.907 85.9117 506.132C85.9117 506.132 113.2 510.68 116.611 501.826C120.022 492.973 114.746 489.471 114.746 489.471Z" fill="#E0E0E0"/>
<path d="M154.298 578.839H111.896L107.333 532.434H158.877L154.298 578.839Z" fill="#EBEBEB"/>
<path d="M161.136 527.31H105.059V537.558H161.136V527.31Z" fill="#E0E0E0"/>
<path d="M379 648.181C541.337 648.181 672.937 640.498 672.937 631.02C672.937 621.542 541.337 613.859 379 613.859C216.663 613.859 85.0627 621.542 85.0627 631.02C85.0627 640.498 216.663 648.181 379 648.181Z" fill="#F5F5F5"/>
<path d="M483.437 298.228C483.437 298.228 483.437 312.751 478.889 318.39C474.341 324.03 450.51 335.779 450.51 335.779C450.51 335.779 436.32 335.779 435.016 335.779C433.712 335.779 430.089 342.252 430.089 342.252L436.153 349.408C436.153 349.408 453.754 345.997 452.147 340.888C452.147 340.888 475.539 331.792 482.133 327.168C488.728 322.544 493.731 302.063 493.731 302.063L483.437 298.228Z" fill="#E4897B"/>
<path d="M491.184 256.826C484.119 254.263 480.102 302.669 480.102 302.669L498.294 309.021C498.294 309.021 504.828 261.813 491.184 256.826Z" fill="#229EF7"/>
<path opacity="0.4" d="M499.264 298.773C498.809 304.837 498.233 309.022 498.233 309.022L480.041 302.669C480.041 302.669 484.044 254.248 491.108 256.826C495.868 258.569 498.173 265.421 499.158 273.623C499.974 281.985 500.009 290.405 499.264 298.773Z" fill="white"/>
<path opacity="0.2" d="M499.264 298.773C490.82 288.844 496.232 271.288 496.232 271.288C497.332 271.896 498.321 272.685 499.158 273.623C499.974 281.985 500.009 290.405 499.264 298.773Z" fill="black"/>
<path d="M568.788 617.012H584.16C584.41 617.015 584.652 617.102 584.847 617.259C585.042 617.415 585.179 617.633 585.237 617.876L587.723 629.14C587.774 629.38 587.777 629.628 587.733 629.869C587.688 630.11 587.596 630.34 587.462 630.545C587.328 630.751 587.155 630.928 586.953 631.067C586.75 631.206 586.523 631.303 586.283 631.353H585.873C580.901 631.353 577.278 630.959 571.047 630.959C567.196 630.959 555.599 631.368 550.293 631.368C544.987 631.368 544.229 626.123 546.457 625.638C556.205 623.516 563.543 620.575 566.666 617.77C567.249 617.254 568.009 616.983 568.788 617.012Z" fill="#263238"/>
<path d="M503.63 616.572H518.987C519.239 616.57 519.483 616.655 519.68 616.813C519.876 616.97 520.011 617.191 520.064 617.437L522.565 628.7C522.628 628.974 522.627 629.259 522.563 629.532C522.498 629.806 522.372 630.061 522.193 630.278C522.014 630.494 521.788 630.667 521.532 630.783C521.276 630.898 520.997 630.954 520.716 630.944C515.743 630.868 512.12 630.565 505.874 630.565C502.039 630.565 490.441 630.959 485.12 630.959C479.799 630.959 479.056 625.714 481.3 625.244C491.048 623.122 498.385 620.165 501.508 617.376C502.085 616.843 502.846 616.555 503.63 616.572Z" fill="#263238"/>
<path opacity="0.1" d="M568.788 617.012H584.16C584.41 617.015 584.652 617.102 584.847 617.259C585.042 617.415 585.179 617.633 585.237 617.876L587.723 629.14C587.774 629.38 587.777 629.628 587.733 629.869C587.688 630.11 587.596 630.34 587.462 630.545C587.328 630.751 587.155 630.928 586.953 631.067C586.75 631.206 586.523 631.303 586.283 631.353H585.873C580.901 631.353 577.278 630.959 571.047 630.959C567.196 630.959 555.599 631.368 550.293 631.368C544.987 631.368 544.229 626.123 546.457 625.638C556.205 623.516 563.543 620.575 566.666 617.77C567.249 617.254 568.009 616.983 568.788 617.012Z" fill="white"/>
<path opacity="0.1" d="M503.63 616.572H518.987C519.239 616.57 519.483 616.655 519.68 616.813C519.876 616.97 520.011 617.191 520.064 617.437L522.565 628.7C522.628 628.974 522.627 629.259 522.563 629.532C522.498 629.806 522.372 630.061 522.193 630.278C522.014 630.494 521.788 630.667 521.532 630.783C521.276 630.898 520.997 630.954 520.716 630.944C515.743 630.868 512.12 630.565 505.874 630.565C502.039 630.565 490.441 630.959 485.12 630.959C479.799 630.959 479.056 625.714 481.3 625.244C491.048 623.122 498.385 620.165 501.508 617.376C502.085 616.843 502.846 616.555 503.63 616.572Z" fill="white"/>
<path d="M576.944 332.14H509.8C503.418 367.008 483.437 508.527 497.779 618.422H520.519C520.519 618.422 518.472 451.525 538.468 397.586C540.772 426.39 564.24 618.316 564.24 618.316H587.374C587.374 618.316 583.918 546.139 580.446 477.964C578.278 435.092 577.035 340.964 576.944 332.14Z" fill="#229EF7"/>
<path opacity="0.2" d="M576.944 332.14H509.8C503.418 367.008 483.437 508.527 497.779 618.422H520.519C520.519 618.422 518.472 451.525 538.468 397.586C540.772 426.39 564.24 618.316 564.24 618.316H587.374C587.374 618.316 583.918 546.139 580.446 477.964C578.278 435.092 577.035 340.964 576.944 332.14Z" fill="white"/>
<path opacity="0.2" d="M538.453 397.601C535.156 407.054 532.651 416.765 530.964 426.633C529.084 400.952 536.664 373.709 536.664 373.709L538.453 397.601Z" fill="black"/>
<path d="M577.126 334.248L508.375 336.052C510.286 296.636 491.699 271.758 489.335 259.66C489.163 258.823 489.328 257.951 489.793 257.234C490.258 256.516 490.986 256.01 491.821 255.825C495.232 255.082 498.734 254.445 502.281 253.9C518.269 251.632 534.403 250.548 550.551 250.655C557.706 250.655 556.129 250.868 556.129 250.868C568.257 260.388 577.823 312.448 577.126 334.248Z" fill="#229EF7"/>
<path opacity="0.4" d="M577.126 334.248L508.375 336.052C510.286 296.636 491.699 271.758 489.335 259.66C489.163 258.823 489.328 257.951 489.793 257.234C490.258 256.516 490.986 256.01 491.821 255.825C495.232 255.082 498.734 254.445 502.281 253.9C518.269 251.632 534.403 250.548 550.551 250.655C557.706 250.655 556.129 250.868 556.129 250.868C568.257 260.388 577.823 312.448 577.126 334.248Z" fill="white"/>
<path d="M534.89 252.96C533.374 261.98 519.169 271.015 519.169 271.015C519.169 271.015 511.877 262.965 511.286 256.826C512.194 255.937 512.961 254.914 513.56 253.794C514.013 252.978 514.248 252.059 514.242 251.126C514.072 249.37 513.496 247.678 512.56 246.183C512.064 245.3 511.512 244.449 510.907 243.636L520.807 231.357L523.081 228.522C523.187 229.371 523.323 230.311 523.49 231.296C523.885 233.498 524.391 235.679 525.006 237.83C526.734 244.167 529.812 250.686 534.89 252.96Z" fill="#E4897B"/>
<path opacity="0.2" d="M524.945 237.845C524.445 243.909 522.171 252.293 513.56 253.809C514.013 252.993 514.248 252.074 514.242 251.14C514.072 249.385 513.496 247.693 512.56 246.198C512.064 245.315 511.512 244.464 510.907 243.651L520.807 231.372C521.671 231.372 522.58 231.372 523.49 231.372C523.867 233.553 524.352 235.713 524.945 237.845Z" fill="black"/>
<path d="M484.893 206.282C484.893 206.282 484.665 223.413 494.459 228.643C504.252 233.873 499.946 202.629 499.946 202.629L484.893 206.282Z" fill="#263238"/>
<path d="M493.685 238.664C494.003 239.187 494.347 239.693 494.716 240.18C496 241.889 497.601 243.335 499.431 244.44C501.286 245.587 503.345 246.364 505.495 246.729C509.357 247.423 513.34 246.656 516.668 244.576C519.032 243.062 520.936 240.928 522.171 238.406C526.173 230.629 523.869 223.822 520.882 212.013C520.228 209.244 518.876 206.689 516.955 204.591C515.034 202.492 512.609 200.92 509.909 200.023C507.209 199.127 504.324 198.936 501.53 199.469C498.735 200.002 496.124 201.241 493.943 203.068C484.028 211.285 487.894 229.022 493.685 238.664Z" fill="#E4897B"/>
<path d="M504.282 220.836C504.631 221.745 504.282 222.7 503.691 222.897C503.1 223.095 502.342 222.473 502.023 221.533C501.705 220.593 502.023 219.668 502.615 219.471C503.206 219.274 503.964 219.82 504.282 220.836Z" fill="#263238"/>
<path d="M493.594 224.216C493.691 224.391 493.752 224.582 493.775 224.78C493.798 224.978 493.781 225.178 493.726 225.37C493.671 225.561 493.579 225.74 493.455 225.896C493.331 226.052 493.177 226.182 493.003 226.278C492.397 226.475 491.654 225.854 491.351 224.914C491.048 223.974 491.351 223.049 491.927 222.852C492.503 222.655 493.306 223.322 493.594 224.216Z" fill="#263238"/>
<path d="M497.127 223.61C496.918 226.854 496.26 230.053 495.171 233.115C495.968 233.379 496.814 233.463 497.648 233.361C498.481 233.258 499.282 232.973 499.992 232.524L497.127 223.61Z" fill="#DE5753"/>
<path d="M488.152 220.896C488.256 220.917 488.363 220.912 488.464 220.88C488.564 220.848 488.655 220.791 488.728 220.714C489.189 220.148 489.776 219.697 490.442 219.397C491.107 219.097 491.834 218.956 492.564 218.986C492.716 219.006 492.871 218.965 492.993 218.871C493.115 218.777 493.195 218.639 493.215 218.486C493.236 218.333 493.194 218.179 493.1 218.056C493.007 217.934 492.868 217.854 492.715 217.834C491.794 217.774 490.871 217.935 490.024 218.305C489.178 218.674 488.432 219.24 487.849 219.956C487.795 220.009 487.753 220.071 487.723 220.14C487.694 220.209 487.679 220.283 487.679 220.358C487.679 220.433 487.694 220.507 487.723 220.576C487.753 220.645 487.795 220.708 487.849 220.76C487.933 220.837 488.039 220.884 488.152 220.896Z" fill="#263238"/>
<path d="M505.04 215.894C505.15 215.851 505.245 215.777 505.313 215.681C505.343 215.612 505.359 215.537 505.36 215.461C505.361 215.385 505.347 215.31 505.319 215.239C505.291 215.169 505.249 215.105 505.196 215.05C505.143 214.996 505.08 214.953 505.01 214.923C504.165 214.542 503.24 214.369 502.314 214.419C501.388 214.469 500.488 214.741 499.689 215.211C499.626 215.254 499.572 215.309 499.53 215.372C499.489 215.436 499.46 215.507 499.446 215.581C499.432 215.656 499.432 215.733 499.448 215.807C499.464 215.882 499.494 215.952 499.537 216.015C499.58 216.078 499.634 216.132 499.698 216.173C499.761 216.215 499.833 216.244 499.907 216.258C499.982 216.272 500.059 216.271 500.133 216.255C500.207 216.24 500.278 216.209 500.341 216.166C500.983 215.816 501.697 215.618 502.428 215.589C503.159 215.56 503.887 215.701 504.555 216C504.639 216.02 504.726 216.022 504.81 216.003C504.894 215.985 504.973 215.947 505.04 215.894Z" fill="#263238"/>
<path d="M507.769 200.233L508.512 205.585C509.498 205.773 510.377 206.325 510.975 207.131C511.573 207.937 511.846 208.938 511.741 209.936C511.226 214.742 515.485 220.851 519.548 222.67C519.548 222.67 519.154 220.745 520.867 220.775C522.58 220.806 524.748 230.766 522.884 236.284C522.884 236.284 526.461 230.796 526.386 219.759C526.31 209.542 524.506 201.492 521.565 198.323L507.769 200.233Z" fill="#263238"/>
<path d="M528.948 219.926C528.492 222.954 526.857 225.679 524.4 227.506C521.125 229.886 518.063 227.294 517.775 223.458C517.547 220.032 518.942 214.575 522.823 213.741C526.704 212.907 529.463 216.197 528.948 219.926Z" fill="#E4897B"/>
<path d="M503.312 238.209C503.221 238.209 503.132 238.175 503.065 238.113C502.997 238.052 502.956 237.967 502.948 237.876C502.939 237.826 502.941 237.776 502.954 237.727C502.967 237.679 502.99 237.633 503.021 237.595C503.053 237.556 503.092 237.524 503.137 237.502C503.182 237.48 503.232 237.468 503.282 237.466C504.371 237.344 505.369 236.799 506.061 235.948C506.753 235.098 507.083 234.01 506.981 232.918C506.977 232.868 506.982 232.818 506.998 232.771C507.013 232.723 507.037 232.679 507.07 232.641C507.102 232.603 507.142 232.572 507.186 232.549C507.231 232.526 507.28 232.513 507.329 232.509C507.429 232.504 507.527 232.538 507.603 232.603C507.679 232.667 507.727 232.759 507.739 232.858C507.739 232.858 507.996 237.754 503.357 238.224L503.312 238.209Z" fill="#263238"/>
<path d="M523.02 200.476C523.02 200.476 522.429 193.336 510.286 190.971C498.142 188.606 488.091 197.884 479.693 195.291C471.294 192.699 476.221 211.528 492.063 209.435C502.726 207.799 513.131 204.787 523.02 200.476Z" fill="#263238"/>
<path opacity="0.2" d="M548.944 267.089C548.944 267.089 543.168 293.376 541.106 301.472C536.967 317.86 517.077 334.93 517.077 334.93C517.077 334.93 529.478 332.034 542.516 329.821C558.661 327.092 573.791 304.837 564.74 275.245L548.944 267.089Z" fill="black"/>
<path d="M548.458 292.27C548.458 292.27 548.458 306.793 543.91 312.433C539.362 318.072 515.44 329.821 515.44 329.821H499.992C498.688 329.821 495.065 336.294 495.065 336.294L501.129 343.45C501.129 343.45 518.73 340.039 517.123 334.93C517.123 334.93 540.515 325.834 547.109 321.21C553.704 316.586 558.707 296.105 558.707 296.105L548.458 292.27Z" fill="#E4897B"/>
<path d="M556.129 250.868C549.065 248.29 545.063 296.712 545.063 296.712L563.255 303.064C563.255 303.064 569.804 255.84 556.129 250.868Z" fill="#229EF7"/>
<path opacity="0.4" d="M556.129 250.868C549.065 248.29 545.063 296.712 545.063 296.712L563.255 303.064C563.255 303.064 569.804 255.84 556.129 250.868Z" fill="white"/>
<path d="M371.42 631.369C339.008 631.369 312.645 599.063 312.645 559.344C312.645 519.624 339.008 487.333 371.42 487.333C403.832 487.333 430.18 519.639 430.18 559.344C430.18 599.048 403.756 631.369 371.42 631.369ZM371.42 494.929C343.192 494.929 320.225 523.839 320.225 559.359C320.225 594.879 343.192 623.804 371.42 623.804C399.648 623.804 422.54 594.879 422.54 559.404C422.54 523.93 399.587 494.913 371.42 494.913V494.929Z" fill="#2E353A"/>
<path d="M371.42 494.216C342.768 494.216 319.467 523.46 319.467 559.404C319.467 595.348 342.768 624.592 371.42 624.592C400.072 624.592 423.358 595.348 423.358 559.404C423.358 523.46 399.997 494.216 371.42 494.216ZM382.032 548.11L402.907 521.504C406.276 526.344 408.907 531.658 410.715 537.27L383.639 551.324C383.205 550.204 382.667 549.128 382.032 548.11ZM372.936 541.621V503.312C377.869 503.557 382.69 504.87 387.065 507.163L375.453 542.304C374.644 541.977 373.799 541.748 372.936 541.621ZM369.904 541.621C369.105 541.732 368.321 541.936 367.569 542.228L356.26 506.829C360.512 504.715 365.16 503.516 369.904 503.312V541.621ZM359.216 551.021L332.307 536.467C334.117 531.129 336.669 526.071 339.887 521.443L360.732 548.11C360.128 549.035 359.601 550.009 359.156 551.021H359.216ZM358.261 553.962C357.952 555.23 357.759 556.524 357.685 557.827H328.532C328.638 551.592 329.571 545.398 331.307 539.408L358.261 553.962ZM357.624 560.92C357.7 562.145 357.873 563.361 358.14 564.558L331.079 578.612C329.489 572.845 328.634 566.901 328.532 560.92H357.624ZM359.065 567.5C359.473 568.595 359.98 569.65 360.581 570.653L339.796 597.304C336.434 592.46 333.803 587.148 331.989 581.538L359.065 567.5ZM369.843 577.141V615.466C364.905 615.223 360.079 613.909 355.699 611.615L367.312 576.474C368.148 576.779 369.019 576.983 369.904 577.081L369.843 577.141ZM372.875 577.141C373.668 577.021 374.445 576.818 375.195 576.535L386.413 611.918C382.194 614.022 377.584 615.23 372.875 615.466V577.141ZM383.487 567.727L410.412 582.296C408.601 587.634 406.049 592.691 402.832 597.319L382.032 570.592C382.619 569.661 383.126 568.682 383.548 567.666L383.487 567.727ZM384.442 564.801C384.761 563.528 384.969 562.229 385.064 560.92H414.171C414.067 567.161 413.134 573.36 411.397 579.355L384.442 564.801ZM385.064 557.888C384.974 556.669 384.797 555.458 384.533 554.265L411.594 540.211C413.193 545.972 414.059 551.911 414.171 557.888H385.064ZM400.997 518.987L380.122 545.684C379.498 545.005 378.807 544.391 378.06 543.85L389.673 508.724C394.009 511.456 397.849 514.906 401.027 518.927L400.997 518.987ZM353.546 508.375L364.75 543.713C363.94 544.291 363.193 544.952 362.521 545.684L341.676 518.927C344.981 514.711 349.011 511.118 353.577 508.315L353.546 508.375ZM341.646 599.836L362.551 573.048C363.175 573.727 363.866 574.342 364.613 574.882L353.001 610.008C348.672 607.265 344.843 603.804 341.676 599.775L341.646 599.836ZM389.097 610.448L377.893 575.125C378.703 574.547 379.449 573.887 380.122 573.154L400.997 599.851C397.698 604.036 393.678 607.599 389.127 610.372L389.097 610.448Z" fill="#229EF7"/>
<g opacity="0.2">
<path d="M371.42 494.216C342.768 494.216 319.467 523.46 319.467 559.404C319.467 595.348 342.768 624.592 371.42 624.592C400.072 624.592 423.358 595.348 423.358 559.404C423.358 523.46 399.997 494.216 371.42 494.216ZM382.032 548.11L402.907 521.504C406.276 526.344 408.907 531.658 410.715 537.27L383.639 551.324C383.205 550.204 382.667 549.128 382.032 548.11ZM372.936 541.621V503.312C377.869 503.557 382.69 504.87 387.065 507.163L375.453 542.304C374.644 541.977 373.799 541.748 372.936 541.621ZM369.904 541.621C369.105 541.732 368.321 541.936 367.569 542.228L356.26 506.829C360.512 504.715 365.16 503.516 369.904 503.312V541.621ZM359.216 551.021L332.307 536.467C334.117 531.129 336.669 526.071 339.887 521.443L360.732 548.11C360.128 549.035 359.601 550.009 359.156 551.021H359.216ZM358.261 553.962C357.952 555.23 357.759 556.524 357.685 557.827H328.532C328.638 551.592 329.571 545.398 331.307 539.408L358.261 553.962ZM357.624 560.92C357.7 562.145 357.873 563.361 358.14 564.558L331.079 578.612C329.489 572.845 328.634 566.901 328.532 560.92H357.624ZM359.065 567.5C359.473 568.595 359.98 569.65 360.581 570.653L339.796 597.304C336.434 592.46 333.803 587.148 331.989 581.538L359.065 567.5ZM369.843 577.141V615.466C364.905 615.223 360.079 613.909 355.699 611.615L367.312 576.474C368.148 576.779 369.019 576.983 369.904 577.081L369.843 577.141ZM372.875 577.141C373.668 577.021 374.445 576.818 375.195 576.535L386.413 611.918C382.194 614.022 377.584 615.23 372.875 615.466V577.141ZM383.487 567.727L410.412 582.296C408.601 587.634 406.049 592.691 402.832 597.319L382.032 570.592C382.619 569.661 383.126 568.682 383.548 567.666L383.487 567.727ZM384.442 564.801C384.761 563.528 384.969 562.229 385.064 560.92H414.171C414.067 567.161 413.134 573.36 411.397 579.355L384.442 564.801ZM385.064 557.888C384.974 556.669 384.797 555.458 384.533 554.265L411.594 540.211C413.193 545.972 414.059 551.911 414.171 557.888H385.064ZM400.997 518.987L380.122 545.684C379.498 545.005 378.807 544.391 378.06 543.85L389.673 508.724C394.009 511.456 397.849 514.906 401.027 518.927L400.997 518.987ZM353.546 508.375L364.75 543.713C363.94 544.291 363.193 544.952 362.521 545.684L341.676 518.927C344.981 514.711 349.011 511.118 353.577 508.315L353.546 508.375ZM341.646 599.836L362.551 573.048C363.175 573.727 363.866 574.342 364.613 574.882L353.001 610.008C348.672 607.265 344.843 603.804 341.676 599.775L341.646 599.836ZM389.097 610.448L377.893 575.125C378.703 574.547 379.449 573.887 380.122 573.154L400.997 599.851C397.698 604.036 393.678 607.599 389.127 610.372L389.097 610.448Z" fill="black"/>
</g>
<path d="M410.836 488.273H351.909C348.589 488.277 345.407 489.598 343.059 491.946C340.712 494.293 339.391 497.476 339.387 500.796V598.699C339.387 600.187 338.796 601.613 337.744 602.665C336.692 603.717 335.265 604.308 333.778 604.308H315.328C314.524 604.308 313.753 604.628 313.184 605.196C312.615 605.765 312.296 606.536 312.296 607.34C312.296 608.144 312.615 608.915 313.184 609.484C313.753 610.053 314.524 610.372 315.328 610.372H333.717C336.811 610.364 339.775 609.132 341.962 606.944C344.15 604.757 345.382 601.792 345.39 598.699V562.436H410.836C411.64 562.436 412.411 562.117 412.98 561.548C413.549 560.98 413.868 560.208 413.868 559.404V491.305C413.868 490.501 413.549 489.73 412.98 489.161C412.411 488.593 411.64 488.273 410.836 488.273ZM407.804 556.372H345.451V500.796C345.451 499.083 346.131 497.44 347.342 496.229C348.554 495.018 350.196 494.337 351.909 494.337H407.804V556.372Z" fill="#2E353A"/>
<path opacity="0.3" d="M410.836 488.273H351.909C348.589 488.277 345.407 489.598 343.059 491.946C340.712 494.293 339.391 497.476 339.387 500.796V598.699C339.387 600.187 338.796 601.613 337.744 602.665C336.692 603.717 335.265 604.308 333.778 604.308H315.328C314.524 604.308 313.753 604.628 313.184 605.196C312.615 605.765 312.296 606.536 312.296 607.34C312.296 608.144 312.615 608.915 313.184 609.484C313.753 610.053 314.524 610.372 315.328 610.372H333.717C336.811 610.364 339.775 609.132 341.962 606.944C344.15 604.757 345.382 601.792 345.39 598.699V562.436H410.836C411.64 562.436 412.411 562.117 412.98 561.548C413.549 560.98 413.868 560.208 413.868 559.404V491.305C413.868 490.501 413.549 489.73 412.98 489.161C412.411 488.593 411.64 488.273 410.836 488.273ZM407.804 556.372H345.451V500.796C345.451 499.083 346.131 497.44 347.342 496.229C348.554 495.018 350.196 494.337 351.909 494.337H407.804V556.372Z" fill="white"/>
<path d="M417.855 356.745V454.406H346.694C343.674 454.406 340.779 455.605 338.643 457.74C336.508 459.876 335.309 462.771 335.309 465.791V516.471H411.776C415.432 516.467 418.937 515.012 421.521 512.425C424.105 509.838 425.556 506.331 425.556 502.675V356.745H417.855Z" fill="#2E353A"/>
<path opacity="0.3" d="M417.855 356.745V454.406H346.694C343.674 454.406 340.779 455.605 338.643 457.74C336.508 459.876 335.309 462.771 335.309 465.791V516.471H411.776C415.432 516.467 418.937 515.012 421.521 512.425C424.105 509.838 425.556 506.331 425.556 502.675V356.745H417.855Z" fill="white"/>
<path d="M345.345 491.184H461.046V513.378H333.838V502.766C333.828 501.249 334.119 499.744 334.692 498.34C335.266 496.935 336.112 495.658 337.182 494.581C338.251 493.505 339.523 492.65 340.924 492.067C342.325 491.484 343.827 491.184 345.345 491.184Z" fill="#2E353A"/>
<path d="M472.461 510.149H333.641C333.227 510.149 332.817 510.231 332.435 510.389C332.052 510.548 331.704 510.78 331.412 511.073C331.119 511.366 330.886 511.713 330.728 512.096C330.57 512.478 330.488 512.888 330.488 513.302C330.488 514.14 330.82 514.944 331.411 515.538C332.002 516.131 332.804 516.467 333.641 516.471H472.461C473.277 516.471 474.061 516.156 474.649 515.591C475.237 515.025 475.583 514.254 475.615 513.439C475.633 513.013 475.565 512.589 475.415 512.19C475.265 511.792 475.035 511.428 474.741 511.12C474.446 510.813 474.092 510.568 473.7 510.402C473.309 510.235 472.887 510.149 472.461 510.149Z" fill="#2E353A"/>
<path opacity="0.3" d="M472.461 510.149H333.641C333.227 510.149 332.817 510.231 332.435 510.389C332.052 510.548 331.704 510.78 331.412 511.073C331.119 511.366 330.886 511.713 330.728 512.096C330.57 512.478 330.488 512.888 330.488 513.302C330.488 514.14 330.82 514.944 331.411 515.538C332.002 516.131 332.804 516.467 333.641 516.471H472.461C473.277 516.471 474.061 516.156 474.649 515.591C475.237 515.025 475.583 514.254 475.615 513.439C475.633 513.013 475.565 512.589 475.415 512.19C475.265 511.792 475.035 511.428 474.741 511.12C474.446 510.813 474.092 510.568 473.7 510.402C473.309 510.235 472.887 510.149 472.461 510.149Z" fill="white"/>
<path d="M420.569 359.641H485.211V490.153C485.211 495.46 483.103 500.55 479.35 504.303C475.597 508.056 470.507 510.164 465.2 510.164H420.569V359.641Z" fill="#2E353A"/>
<path d="M349.529 599.184H312.144C310.068 599.184 308.385 600.867 308.385 602.944V605.066C308.385 607.142 310.068 608.826 312.144 608.826H349.529C351.605 608.826 353.289 607.142 353.289 605.066V602.944C353.289 600.867 351.605 599.184 349.529 599.184Z" fill="#2E353A"/>
<path opacity="0.2" d="M349.529 599.184H312.144C310.068 599.184 308.385 600.867 308.385 602.944V605.066C308.385 607.142 310.068 608.826 312.144 608.826H349.529C351.605 608.826 353.289 607.142 353.289 605.066V602.944C353.289 600.867 351.605 599.184 349.529 599.184Z" fill="white"/>
<path d="M472.173 557.206L413.489 536.331L472.173 515.44C472.455 515.341 472.714 515.186 472.937 514.987C473.159 514.787 473.339 514.545 473.468 514.276C473.597 514.006 473.671 513.714 473.687 513.416C473.703 513.117 473.66 512.819 473.56 512.537C473.461 512.255 473.307 511.996 473.107 511.774C472.907 511.552 472.666 511.371 472.396 511.242C472.127 511.113 471.834 511.039 471.536 511.023C471.238 511.007 470.939 511.05 470.657 511.15L406.728 533.89L342.783 511.15C342.501 511.05 342.202 511.007 341.904 511.023C341.606 511.039 341.313 511.113 341.044 511.242C340.774 511.371 340.533 511.552 340.333 511.774C340.133 511.996 339.979 512.255 339.88 512.537C339.78 512.819 339.737 513.117 339.753 513.416C339.769 513.714 339.843 514.006 339.972 514.276C340.101 514.545 340.281 514.787 340.504 514.987C340.726 515.186 340.985 515.341 341.267 515.44L399.936 536.315L341.267 557.191C340.985 557.291 340.725 557.446 340.503 557.646C340.281 557.847 340.101 558.089 339.973 558.36C339.845 558.63 339.771 558.923 339.756 559.222C339.742 559.521 339.786 559.82 339.887 560.101C340.04 560.546 340.328 560.932 340.712 561.204C341.095 561.476 341.555 561.621 342.025 561.617C342.283 561.623 342.539 561.582 342.783 561.496L406.728 538.756L470.657 561.496C470.939 561.596 471.238 561.639 471.536 561.623C471.834 561.607 472.127 561.533 472.396 561.404C472.666 561.275 472.907 561.094 473.107 560.872C473.307 560.65 473.461 560.391 473.56 560.109C473.66 559.827 473.703 559.529 473.687 559.23C473.671 558.932 473.597 558.64 473.468 558.37C473.339 558.101 473.159 557.859 472.937 557.659C472.714 557.459 472.455 557.305 472.173 557.206Z" fill="#2E353A"/>
<path opacity="0.3" d="M472.173 557.206L413.489 536.331L472.173 515.44C472.455 515.341 472.714 515.186 472.937 514.987C473.159 514.787 473.339 514.545 473.468 514.276C473.597 514.006 473.671 513.714 473.687 513.416C473.703 513.117 473.66 512.819 473.56 512.537C473.461 512.255 473.307 511.996 473.107 511.774C472.907 511.552 472.666 511.371 472.396 511.242C472.127 511.113 471.834 511.039 471.536 511.023C471.238 511.007 470.939 511.05 470.657 511.15L406.728 533.89L342.783 511.15C342.501 511.05 342.202 511.007 341.904 511.023C341.606 511.039 341.313 511.113 341.044 511.242C340.774 511.371 340.533 511.552 340.333 511.774C340.133 511.996 339.979 512.255 339.88 512.537C339.78 512.819 339.737 513.117 339.753 513.416C339.769 513.714 339.843 514.006 339.972 514.276C340.101 514.545 340.281 514.787 340.504 514.987C340.726 515.186 340.985 515.341 341.267 515.44L399.936 536.315L341.267 557.191C340.985 557.291 340.725 557.446 340.503 557.646C340.281 557.847 340.101 558.089 339.973 558.36C339.845 558.63 339.771 558.923 339.756 559.222C339.742 559.521 339.786 559.82 339.887 560.101C340.04 560.546 340.328 560.932 340.712 561.204C341.095 561.476 341.555 561.621 342.025 561.617C342.283 561.623 342.539 561.582 342.783 561.496L406.728 538.756L470.657 561.496C470.939 561.596 471.238 561.639 471.536 561.623C471.834 561.607 472.127 561.533 472.396 561.404C472.666 561.275 472.907 561.094 473.107 560.872C473.307 560.65 473.461 560.391 473.56 560.109C473.66 559.827 473.703 559.529 473.687 559.23C473.671 558.932 473.597 558.64 473.468 558.37C473.339 558.101 473.159 557.859 472.937 557.659C472.714 557.459 472.455 557.305 472.173 557.206Z" fill="white"/>
<path d="M421.524 371.162C420.921 371.162 420.342 370.923 419.916 370.496C419.489 370.07 419.25 369.491 419.25 368.888V351.47C419.25 348.133 420.535 344.925 422.839 342.511C425.143 340.097 428.287 338.664 431.62 338.508L446.295 337.795C446.898 337.767 447.488 337.98 447.934 338.386C448.381 338.793 448.647 339.36 448.675 339.963C448.703 340.566 448.491 341.156 448.084 341.602C447.678 342.048 447.111 342.315 446.507 342.343L431.833 343.056C429.666 343.157 427.622 344.09 426.126 345.66C424.629 347.23 423.795 349.316 423.798 351.485V368.904C423.794 369.504 423.552 370.078 423.126 370.502C422.7 370.925 422.124 371.162 421.524 371.162Z" fill="#263238"/>
<path d="M347.149 593.18L361.718 588.617L359.838 574.246L358.094 561.056L340.19 564.589L343.859 579.734L347.149 593.18Z" fill="#EBB376"/>
<path opacity="0.2" d="M343.965 580.037L359.914 574.503L358.125 561.193L340.221 564.649L343.965 580.037Z" fill="black"/>
<path d="M362.961 585.282C362.961 584.145 345.163 585.661 345.163 585.661C345.163 585.661 334.551 594.757 323.939 597.077C313.327 599.396 319.512 604.172 331.367 603.747L360.702 602.701C369.191 602.398 363.734 596.971 362.961 585.282Z" fill="#2E353A"/>
<path d="M319.467 465.26C330.079 447.068 386.428 443.642 423.752 441.08L436.487 473.962C436.487 473.962 380.774 470.93 364.689 489.031C351.909 503.464 360.611 568.288 360.611 568.288L336.643 570.016C336.643 570.016 300.714 497.521 319.467 465.26Z" fill="#2E353A"/>
<path opacity="0.2" d="M319.467 465.26C330.079 447.068 386.428 443.642 423.752 441.08L436.487 473.962C436.487 473.962 380.774 470.93 364.689 489.031C351.909 503.464 360.611 568.288 360.611 568.288L336.643 570.016C336.643 570.016 300.714 497.521 319.467 465.26Z" fill="black"/>
<path d="M377.469 593.18L392.038 588.617L390.158 574.246L388.399 561.056L370.51 564.589L374.179 579.734L377.469 593.18Z" fill="#EBB376"/>
<path opacity="0.2" d="M374.285 580.037L390.249 574.503L388.445 561.193L370.541 564.649L374.285 580.037Z" fill="black"/>
<path d="M426.178 347.498C433.758 343.859 453.921 347.012 458.787 351.636C463.653 356.26 443.794 369.828 433.136 367.888C422.479 365.947 420.25 350.332 426.178 347.498Z" fill="#229EF7"/>
<path opacity="0.2" d="M426.178 347.498C433.758 343.859 453.921 347.012 458.787 351.636C463.653 356.26 443.794 369.828 433.136 367.888C422.479 365.947 420.25 350.332 426.178 347.498Z" fill="black"/>
<path d="M387.869 440.762C387.869 440.762 401.073 415.232 401.755 413.246C405.272 402.968 469.126 412.231 469.126 412.231C469.126 412.231 486.727 465.73 464.806 481.087C445.75 494.443 399.618 488.425 391.78 490.835C384.533 493.064 380.986 500.841 392.007 573.321L368.252 574.215C368.252 574.215 333.475 487.803 333.854 472.219C334.233 456.634 331.504 449.539 387.869 440.762Z" fill="#2E353A"/>
<path d="M388.657 437.002C388.657 437.002 407.258 371.42 413.868 354.471C416.309 348.195 474.842 354.274 474.842 354.274V433.652C474.842 433.652 431.059 449.145 418.264 442.748C414.202 440.701 409.866 426.648 409.866 426.648C409.866 426.648 401.679 441.899 396.616 442.02C393.72 442.066 388.657 437.002 388.657 437.002Z" fill="#229EF7"/>
<path opacity="0.6" d="M474.826 354.274V433.652C474.826 433.652 431.044 449.145 418.249 442.748C414.186 440.701 409.851 426.648 409.851 426.648C409.851 426.648 401.679 441.899 396.601 442.02C393.72 442.096 388.657 437.033 388.657 437.033C388.657 437.033 388.899 436.153 389.369 434.561C391.886 425.723 400.724 394.918 407.561 373.194C410.063 365.25 412.291 358.519 413.853 354.502C416.294 348.195 474.826 354.274 474.826 354.274Z" fill="white"/>
<path opacity="0.2" d="M424.571 386.049C425.458 386.049 426.178 385.33 426.178 384.442C426.178 383.555 425.458 382.835 424.571 382.835C423.683 382.835 422.964 383.555 422.964 384.442C422.964 385.33 423.683 386.049 424.571 386.049Z" fill="black"/>
<path opacity="0.2" d="M419.053 402.028C419.94 402.028 420.66 401.309 420.66 400.421C420.66 399.534 419.94 398.814 419.053 398.814C418.165 398.814 417.446 399.534 417.446 400.421C417.446 401.309 418.165 402.028 419.053 402.028Z" fill="black"/>
<path opacity="0.2" d="M412.852 419.826C413.74 419.826 414.459 419.107 414.459 418.219C414.459 417.332 413.74 416.612 412.852 416.612C411.965 416.612 411.245 417.332 411.245 418.219C411.245 419.107 411.965 419.826 412.852 419.826Z" fill="black"/>
<path opacity="0.2" d="M474.826 388.172V432.591C428.24 448.357 415.308 434.713 415.308 434.713C415.308 434.713 440.838 420.22 451.434 414.823C462.031 409.426 464.078 381.229 464.078 381.229C467.779 383.354 471.367 385.671 474.826 388.172Z" fill="black"/>
<path opacity="0.2" d="M401.255 412.625C401.422 421.888 402.892 424.905 403.317 429.013C403.681 432.742 402.589 441.262 389.369 434.531C391.886 425.693 400.724 394.888 407.561 373.164C408.129 373.405 408.644 373.755 409.077 374.194C409.077 374.194 401.058 401.179 401.255 412.625Z" fill="black"/>
<path d="M457.423 354.547C457.423 354.547 450.222 360.535 443.475 360.838C436.729 361.142 430.317 371.041 430.317 371.041C430.317 371.041 428.649 361.142 429.089 360.247C428.948 359.038 428.61 357.86 428.088 356.76C427.3 354.365 426.693 351.667 429.089 351.667C433.136 351.667 430.317 343.465 430.317 343.465L453.193 337.174C452.549 339.314 452.117 341.513 451.904 343.738C451.495 348.286 452.177 353.698 457.423 354.547Z" fill="#EBB376"/>
<path opacity="0.2" d="M453.193 337.158C452.549 339.299 452.117 341.498 451.904 343.723C447.356 349.135 439.352 356.048 428.088 356.745C427.3 354.35 426.693 351.651 429.089 351.651C433.136 351.651 430.317 343.45 430.317 343.45L453.193 337.158Z" fill="black"/>
<path d="M454.8 355.896C454.8 355.896 442.899 376.878 440.368 394.281C444.466 393.87 448.595 393.87 452.693 394.281C457.347 395.024 453.997 371.178 464.987 354.107L454.8 355.896Z" fill="#229EF7"/>
<path opacity="0.2" d="M454.8 355.896C454.8 355.896 442.899 376.878 440.368 394.281C444.466 393.87 448.595 393.87 452.693 394.281C457.347 395.024 453.997 371.178 464.987 354.107L454.8 355.896Z" fill="black"/>
<path d="M426.178 356.806C426.178 363.643 434.364 369.237 446.644 359.049C458.923 348.862 462.198 346.497 465.23 350.075C465.23 350.075 469.338 350.378 469.99 353.804C466.359 355.233 463.019 357.314 460.136 359.944C456.316 363.84 439.731 378.227 429.028 377.029C418.325 375.832 415.717 360.353 421.812 354.107C421.812 354.107 422.039 344.39 431.302 348.24C431.363 348.24 426.178 348.998 426.178 356.806Z" fill="#229EF7"/>
<path d="M440.307 394.281C440.307 394.281 438.791 400.831 439.14 401.119C439.488 401.407 440.064 394.63 441.247 395.13C442.429 395.631 440.262 401.346 441.247 401.194C442.232 401.043 441.171 395.388 442.399 395.282C443.627 395.176 442.232 401.119 443.142 401.194C444.052 401.27 443.142 395.282 444.324 395.282C445.507 395.282 443.945 401.346 444.931 401.194C445.916 401.043 445.143 394.994 446.235 394.994C447.326 394.994 445.643 400.921 446.735 401.21C447.826 401.498 446.644 395.282 448.039 395.282C449.433 395.282 447.735 401.346 448.433 401.21C449.13 401.073 448.039 394.994 449.433 395.282C450.828 395.57 449.342 401.437 450.131 401.21C450.919 400.982 449.433 395.282 450.828 395.585C452.223 395.888 451.738 401.649 452.132 401.225C452.526 400.8 452.359 396.085 453.193 395.979C454.027 395.873 453.193 400.179 454.436 400.527C455.679 400.876 453.193 394.342 453.193 394.342C453.193 394.342 445.295 392.644 440.307 394.281Z" fill="#229EF7"/>
<path d="M443.961 305.383C431.196 303.367 426.011 309.552 423.009 322.559C422.919 322.893 422.782 323.56 422.782 323.56C414.838 330.594 419.492 350.075 437.563 350.075C460.03 350.075 465.169 308.718 443.961 305.383Z" fill="#EBB376"/>
<path d="M431.363 323.151C430.041 324.895 428.514 326.473 426.815 327.85C427.105 328.436 427.552 328.93 428.106 329.278C428.66 329.626 429.299 329.814 429.953 329.821L431.363 323.151Z" fill="#D58745"/>
<path d="M439.352 323.332C439.155 324.378 439.564 325.334 440.262 325.455C440.959 325.576 441.671 324.833 441.868 323.787C442.066 322.741 441.641 321.801 440.944 321.665C440.246 321.528 439.534 322.286 439.352 323.332Z" fill="#263238"/>
<path d="M441.232 321.771L439.125 320.467C439.125 320.467 439.913 322.59 441.232 321.771Z" fill="#263238"/>
<path d="M426.405 320.755C426.208 321.801 426.618 322.756 427.315 322.878C428.012 322.999 428.725 322.256 428.922 321.21C429.119 320.164 428.694 319.224 427.997 319.088C427.3 318.951 426.587 319.709 426.405 320.755Z" fill="#263238"/>
<path d="M428.285 319.194L426.178 317.89C426.178 317.89 426.951 320.013 428.285 319.194Z" fill="#263238"/>
<path d="M446.098 317.89C446.002 317.895 445.906 317.871 445.823 317.823C445.74 317.775 445.672 317.703 445.628 317.617C445.074 316.863 444.357 316.243 443.53 315.805C442.703 315.367 441.788 315.121 440.853 315.085C440.708 315.085 440.569 315.028 440.467 314.926C440.365 314.823 440.307 314.684 440.307 314.54C440.307 314.395 440.365 314.256 440.467 314.154C440.569 314.051 440.708 313.994 440.853 313.994C441.971 314.022 443.067 314.311 444.054 314.837C445.041 315.363 445.892 316.113 446.538 317.026C446.61 317.151 446.629 317.299 446.592 317.438C446.555 317.577 446.465 317.696 446.341 317.769C446.27 317.827 446.187 317.868 446.098 317.89Z" fill="#263238"/>
<path d="M426.42 313.327C426.315 313.33 426.211 313.301 426.122 313.244C426.033 313.188 425.962 313.106 425.92 313.009C425.863 312.876 425.859 312.726 425.91 312.59C425.961 312.454 426.062 312.344 426.193 312.281C427.071 311.812 428.045 311.547 429.04 311.508C430.035 311.469 431.026 311.655 431.939 312.054C432.067 312.124 432.163 312.243 432.204 312.383C432.245 312.524 432.229 312.675 432.159 312.804C432.088 312.933 431.97 313.028 431.829 313.069C431.688 313.111 431.537 313.094 431.408 313.024C430.647 312.702 429.823 312.557 428.998 312.602C428.173 312.647 427.369 312.879 426.648 313.282L426.42 313.327Z" fill="#263238"/>
<path d="M477.358 319.073C475.039 317.041 470.627 318.193 467.443 319.467C467.443 319.33 467.443 319.209 467.443 319.073C467.525 316.733 467.039 314.408 466.028 312.296C465.017 310.184 463.511 308.348 461.637 306.945C461.637 301.851 457.696 299.607 453.36 298.258C449.024 296.909 445.249 299.456 440.155 297.06C439.326 296.581 438.408 296.274 437.457 296.158C436.506 296.042 435.541 296.119 434.621 296.385C433.701 296.652 432.844 297.101 432.101 297.707C431.359 298.313 430.747 299.062 430.301 299.91C428.983 302.306 429.559 305.777 425.314 305.899C421.069 306.02 422.1 309.992 422.919 312.114C423.737 314.237 423.51 313.63 422.161 315.98C421.236 317.587 422.615 318.603 423.601 319.012C423.434 320.134 423.404 320.831 423.404 320.831C423.525 320.225 423.661 319.649 423.813 319.103C429.877 296.014 452.374 309.673 452.374 309.673C450.191 317.632 454.497 329.063 454.497 329.063C456.392 334.142 453.602 339.266 451.844 341.797C451.459 342.364 451.039 342.906 450.586 343.42C451.367 342.949 452.103 342.405 452.784 341.797C461.88 341.479 461.455 336.537 461.44 334.9C461.628 334.134 461.974 333.416 462.456 332.792C463.972 335.733 467.171 339.614 472.856 338.356C481.709 336.446 481.254 322.499 477.358 319.073Z" fill="#263238"/>
<path d="M433.242 336.84C432.151 336.83 431.075 336.582 430.089 336.112C429.959 336.05 429.857 335.939 429.806 335.803C429.755 335.668 429.759 335.518 429.816 335.385C429.844 335.317 429.885 335.256 429.938 335.205C429.99 335.155 430.052 335.115 430.121 335.09C430.189 335.064 430.262 335.053 430.335 335.057C430.407 335.06 430.479 335.079 430.544 335.112C431.781 335.747 433.206 335.909 434.554 335.569C435.902 335.228 437.079 334.408 437.866 333.262C437.906 333.202 437.957 333.151 438.017 333.111C438.076 333.071 438.143 333.043 438.214 333.029C438.284 333.015 438.357 333.015 438.427 333.029C438.498 333.043 438.565 333.071 438.624 333.111C438.684 333.15 438.736 333.202 438.776 333.261C438.816 333.321 438.843 333.388 438.857 333.458C438.871 333.529 438.872 333.601 438.858 333.672C438.844 333.742 438.816 333.809 438.776 333.869C438.143 334.755 437.315 335.485 436.356 336C435.396 336.515 434.331 336.803 433.242 336.84Z" fill="#263238"/>
<path d="M441.505 328.669C441.126 328.686 440.747 328.628 440.39 328.498C440.034 328.368 439.706 328.169 439.428 327.911C439.055 327.46 438.781 326.935 438.624 326.371C438.467 325.806 438.431 325.215 438.518 324.636C438.533 324.537 438.585 324.447 438.664 324.386C438.743 324.324 438.843 324.294 438.943 324.303C439.045 324.318 439.137 324.372 439.199 324.455C439.262 324.537 439.289 324.64 439.276 324.742C439.145 325.677 439.39 326.626 439.958 327.38C440.28 327.637 440.659 327.812 441.062 327.891C441.466 327.97 441.883 327.951 442.278 327.835C442.328 327.826 442.379 327.828 442.428 327.839C442.477 327.851 442.524 327.872 442.565 327.902C442.606 327.931 442.64 327.969 442.667 328.012C442.693 328.055 442.71 328.103 442.717 328.153C442.735 328.252 442.713 328.353 442.656 328.436C442.6 328.518 442.513 328.575 442.414 328.593C442.113 328.64 441.809 328.665 441.505 328.669Z" fill="#D58745"/>
<path d="M426.269 325.546C425.572 325.52 424.89 325.344 424.268 325.03C424.179 324.982 424.113 324.902 424.082 324.806C424.051 324.71 424.058 324.606 424.101 324.515C424.146 324.428 424.224 324.362 424.317 324.33C424.411 324.299 424.513 324.306 424.601 324.348C424.945 324.597 425.345 324.757 425.766 324.812C426.186 324.868 426.614 324.819 427.011 324.669C427.408 324.518 427.761 324.272 428.039 323.951C428.317 323.631 428.511 323.246 428.604 322.832C428.637 322.745 428.702 322.673 428.786 322.631C428.869 322.588 428.966 322.579 429.056 322.603C429.147 322.628 429.225 322.685 429.276 322.763C429.326 322.842 429.346 322.937 429.331 323.029C429.195 323.516 428.962 323.971 428.647 324.367C428.332 324.763 427.941 325.091 427.497 325.334C427.107 325.489 426.688 325.561 426.269 325.546Z" fill="#D58745"/>
<path d="M441.232 336.673C441.148 336.672 441.067 336.644 441.001 336.591C440.935 336.539 440.888 336.467 440.868 336.385C439.867 331.989 435.001 330.2 434.956 330.185C434.861 330.151 434.784 330.08 434.741 329.989C434.699 329.898 434.694 329.794 434.728 329.7C434.743 329.652 434.768 329.607 434.801 329.569C434.835 329.531 434.875 329.501 434.921 329.479C434.966 329.458 435.016 329.446 435.066 329.445C435.117 329.444 435.167 329.453 435.213 329.472C435.426 329.472 440.519 331.428 441.596 336.218C441.619 336.315 441.603 336.417 441.552 336.502C441.501 336.587 441.419 336.648 441.323 336.673H441.232Z" fill="#D58745"/>
<path opacity="0.4" d="M477.358 319.073C475.039 317.041 470.627 318.193 467.443 319.467C467.443 319.33 467.443 319.209 467.443 319.073C467.525 316.733 467.039 314.408 466.028 312.296C465.017 310.184 463.511 308.348 461.637 306.945C461.637 301.851 457.696 299.607 453.36 298.258C449.024 296.909 445.249 299.456 440.155 297.06C439.326 296.581 438.408 296.274 437.457 296.158C436.506 296.042 435.541 296.119 434.621 296.385C433.701 296.652 432.844 297.101 432.101 297.707C431.359 298.313 430.747 299.062 430.301 299.91C428.983 302.306 429.559 305.777 425.314 305.899C421.069 306.02 422.1 309.992 422.919 312.114C423.737 314.237 423.51 313.63 422.161 315.98C421.236 317.587 422.615 318.603 423.601 319.012C423.434 320.134 423.404 320.831 423.404 320.831C423.525 320.225 423.661 319.649 423.813 319.103C429.877 296.014 452.374 309.673 452.374 309.673C450.191 317.632 454.497 329.063 454.497 329.063C456.392 334.142 453.602 339.266 451.844 341.797C451.459 342.364 451.039 342.906 450.586 343.42C451.367 342.949 452.103 342.405 452.784 341.797C461.88 341.479 461.455 336.537 461.44 334.9C461.628 334.134 461.974 333.416 462.456 332.792C463.972 335.733 467.171 339.614 472.856 338.356C481.709 336.446 481.254 322.499 477.358 319.073Z" fill="white"/>
<path d="M452.011 331.458C452.366 330 453.286 328.742 454.567 327.96C455.849 327.179 457.388 326.937 458.848 327.289C462.729 328.35 463.396 336.764 453.193 337.158C451.768 337.219 451.162 335.718 452.011 331.458Z" fill="#EBB376"/>
<g opacity="0.2">
<path d="M446.098 317.89C446.002 317.895 445.906 317.871 445.823 317.823C445.74 317.775 445.672 317.703 445.628 317.617C445.074 316.863 444.357 316.243 443.53 315.805C442.703 315.367 441.788 315.121 440.853 315.085C440.708 315.085 440.569 315.028 440.467 314.926C440.365 314.823 440.307 314.684 440.307 314.54C440.307 314.395 440.365 314.256 440.467 314.154C440.569 314.051 440.708 313.994 440.853 313.994C441.971 314.022 443.067 314.311 444.054 314.837C445.041 315.363 445.892 316.113 446.538 317.026C446.61 317.151 446.629 317.299 446.592 317.438C446.555 317.577 446.465 317.696 446.341 317.769C446.27 317.827 446.187 317.868 446.098 317.89Z" fill="white"/>
</g>
<g opacity="0.2">
<path d="M426.42 313.327C426.315 313.33 426.211 313.301 426.122 313.244C426.033 313.188 425.962 313.106 425.92 313.009C425.863 312.876 425.859 312.726 425.91 312.59C425.961 312.454 426.062 312.344 426.193 312.281C427.071 311.812 428.045 311.547 429.04 311.508C430.035 311.469 431.026 311.655 431.939 312.054C432.067 312.124 432.163 312.243 432.204 312.383C432.245 312.524 432.229 312.675 432.159 312.804C432.088 312.933 431.97 313.028 431.829 313.069C431.688 313.111 431.537 313.094 431.408 313.024C430.647 312.702 429.823 312.557 428.998 312.602C428.173 312.647 427.369 312.879 426.648 313.282L426.42 313.327Z" fill="white"/>
</g>
<path d="M306.914 517.669C306.914 517.669 307.202 471.794 318.603 460.061C330.003 448.327 372.33 441.156 372.33 441.156C372.33 441.156 411.746 437.048 426.087 444.264C440.428 451.48 440.61 488.91 440.61 488.91C440.61 488.91 402.271 484.589 397.192 501.796C394 512.808 391.658 524.05 390.188 535.421L306.914 517.669Z" fill="#229EF7"/>
<path opacity="0.2" d="M362.961 585.282C362.961 584.145 345.163 585.661 345.163 585.661C345.163 585.661 334.551 594.757 323.939 597.077C313.327 599.396 319.512 604.172 331.367 603.747L360.702 602.701C369.191 602.398 363.734 596.971 362.961 585.282Z" fill="black"/>
<path d="M393.281 585.282C393.205 584.145 375.483 585.661 375.483 585.661C375.483 585.661 364.871 594.757 354.259 597.077C343.647 599.396 349.832 604.172 361.687 603.747L391.022 602.701C399.511 602.398 394.054 596.971 393.281 585.282Z" fill="#2E353A"/>
<path d="M437.184 425.996L424.571 432.545C422.213 432.056 419.773 432.123 417.446 432.742C414.035 433.788 407.501 439.595 407.834 442.157C408.168 444.719 418.067 442.975 419.826 443.43C421.584 443.885 425.208 441.611 426.178 441.156C427.148 440.701 427.391 437.684 427.391 437.684L437.184 434.319V425.996Z" fill="#EBB376"/>
<path d="M474.826 354.274C483.922 356.745 489.107 404.226 480.011 418.219C470.915 432.212 432.394 437.609 432.394 437.609L428.604 427.997C428.604 427.997 458.287 415.687 461.455 409.684C464.624 403.681 466.125 391.704 463.426 377.105C460.728 362.506 474.826 354.274 474.826 354.274Z" fill="#229EF7"/>
<path opacity="0.6" d="M474.826 354.274C483.922 356.745 489.107 404.226 480.011 418.219C470.915 432.212 432.394 437.609 432.394 437.609L428.604 427.997C428.604 427.997 458.287 415.687 461.455 409.684C464.624 403.681 466.125 391.704 463.426 377.105C460.728 362.506 474.826 354.274 474.826 354.274Z" fill="white"/>
<path d="M397.465 423.07L400.224 432.667C401.641 434.049 402.72 435.741 403.377 437.609C404.014 439.852 403.059 442.157 401.861 442.536C398.829 443.506 392.31 444.931 391.856 443.294C391.401 441.656 390.506 434.577 393.205 434.895L391.098 427.118L397.465 423.07Z" fill="#EBB376"/>
<path d="M413.868 354.471C403.468 357.245 382.229 391.431 385.504 410.321C388.778 429.21 392.083 432.666 392.083 432.666L400.618 428.118C400.618 428.118 395.964 408.835 398.829 401.983C412.852 368.388 413.868 354.471 413.868 354.471Z" fill="#229EF7"/>
<path opacity="0.6" d="M413.868 354.471C403.468 357.245 382.229 391.431 385.504 410.321C388.778 429.21 392.083 432.666 392.083 432.666L400.618 428.118C400.618 428.118 395.964 408.835 398.829 401.983C412.852 368.388 413.868 354.471 413.868 354.471Z" fill="white"/>
<path d="M485.196 371.162C484.593 371.162 484.014 370.923 483.588 370.496C483.161 370.07 482.922 369.491 482.922 368.888V351.47C482.922 348.133 484.207 344.925 486.511 342.511C488.815 340.097 491.959 338.664 495.292 338.508L509.967 337.795C510.57 337.767 511.16 337.98 511.606 338.386C512.053 338.793 512.319 339.36 512.347 339.963C512.375 340.566 512.163 341.156 511.756 341.602C511.35 342.048 510.783 342.315 510.179 342.343L495.505 343.056C493.338 343.157 491.294 344.09 489.798 345.66C488.301 347.23 487.467 349.316 487.47 351.485V368.904C487.466 369.504 487.224 370.078 486.798 370.502C486.372 370.925 485.796 371.162 485.196 371.162Z" fill="#263238"/>
<path d="M481.527 360.596V454.406H410.366C407.347 454.406 404.451 455.605 402.316 457.74C400.18 459.876 398.981 462.771 398.981 465.791V516.471H475.448C479.104 516.467 482.609 515.012 485.193 512.425C487.777 509.838 489.228 506.331 489.228 502.675V360.596C489.228 359.574 488.823 358.595 488.101 357.873C487.378 357.151 486.399 356.745 485.378 356.745C484.356 356.745 483.377 357.151 482.655 357.873C481.933 358.595 481.527 359.574 481.527 360.596Z" fill="#2E353A"/>
<path opacity="0.4" d="M481.527 360.596V454.406H410.366C407.347 454.406 404.451 455.605 402.316 457.74C400.18 459.876 398.981 462.771 398.981 465.791V516.471H475.448C479.104 516.467 482.609 515.012 485.193 512.425C487.777 509.838 489.228 506.331 489.228 502.675V360.596C489.228 359.574 488.823 358.595 488.101 357.873C487.378 357.151 486.399 356.745 485.378 356.745C484.356 356.745 483.377 357.151 482.655 357.873C481.933 358.595 481.527 359.574 481.527 360.596Z" fill="white"/>
<path d="M471.476 488.273H412.549C409.229 488.277 406.046 489.598 403.699 491.946C401.351 494.293 400.031 497.476 400.027 500.796V598.699C400.027 600.187 399.436 601.613 398.384 602.665C397.332 603.717 395.905 604.308 394.418 604.308H365.356C364.552 604.308 363.781 604.628 363.212 605.196C362.643 605.765 362.324 606.536 362.324 607.34C362.324 608.144 362.643 608.915 363.212 609.484C363.781 610.053 364.552 610.372 365.356 610.372H394.357C397.451 610.364 400.415 609.132 402.602 606.944C404.79 604.757 406.022 601.792 406.03 598.699V562.436H471.476C472.28 562.436 473.051 562.117 473.62 561.548C474.189 560.98 474.508 560.208 474.508 559.404V491.305C474.508 490.501 474.189 489.73 473.62 489.161C473.051 488.593 472.28 488.273 471.476 488.273ZM468.444 556.372H406.091V500.796C406.091 499.083 406.771 497.44 407.982 496.229C409.194 495.018 410.836 494.337 412.549 494.337H468.444V556.372Z" fill="#2E353A"/>
<path opacity="0.6" d="M471.476 488.273H412.549C409.229 488.277 406.046 489.598 403.699 491.946C401.351 494.293 400.031 497.476 400.027 500.796V598.699C400.027 600.187 399.436 601.613 398.384 602.665C397.332 603.717 395.905 604.308 394.418 604.308H365.356C364.552 604.308 363.781 604.628 363.212 605.196C362.643 605.765 362.324 606.536 362.324 607.34C362.324 608.144 362.643 608.915 363.212 609.484C363.781 610.053 364.552 610.372 365.356 610.372H394.357C397.451 610.364 400.415 609.132 402.602 606.944C404.79 604.757 406.022 601.792 406.03 598.699V562.436H471.476C472.28 562.436 473.051 562.117 473.62 561.548C474.189 560.98 474.508 560.208 474.508 559.404V491.305C474.508 490.501 474.189 489.73 473.62 489.161C473.051 488.593 472.28 488.273 471.476 488.273ZM468.444 556.372H406.091V500.796C406.091 499.083 406.771 497.44 407.982 496.229C409.194 495.018 410.836 494.337 412.549 494.337H468.444V556.372Z" fill="white"/>
<path d="M391.977 599.184H343.98C341.904 599.184 340.221 600.867 340.221 602.944V605.066C340.221 607.142 341.904 608.826 343.98 608.826H391.977C394.053 608.826 395.737 607.142 395.737 605.066V602.944C395.737 600.867 394.053 599.184 391.977 599.184Z" fill="#2E353A"/>
<path opacity="0.4" d="M391.977 599.184H343.98C341.904 599.184 340.221 600.867 340.221 602.944V605.066C340.221 607.142 341.904 608.826 343.98 608.826H391.977C394.053 608.826 395.737 607.142 395.737 605.066V602.944C395.737 600.867 394.053 599.184 391.977 599.184Z" fill="white"/>
<path d="M471.476 631.369C439.064 631.369 412.701 599.063 412.701 559.344C412.701 519.624 439.064 487.333 471.476 487.333C503.888 487.333 530.236 519.639 530.236 559.344C530.236 599.048 503.812 631.369 471.476 631.369ZM471.476 494.929C443.248 494.929 420.281 523.839 420.281 559.359C420.281 594.879 443.248 623.804 471.476 623.804C499.704 623.804 522.596 594.879 522.596 559.404C522.596 523.93 499.643 494.913 471.476 494.913V494.929Z" fill="#2E353A"/>
<path d="M471.476 624.592C442.824 624.592 419.523 595.348 419.523 559.404C419.523 523.46 442.824 494.216 471.476 494.216C500.128 494.216 523.414 523.46 523.414 559.404C523.414 595.348 500.053 624.592 471.476 624.592ZM471.476 503.312C447.842 503.312 428.619 528.478 428.619 559.404C428.619 590.33 447.842 615.496 471.476 615.496C495.11 615.496 514.318 590.33 514.318 559.404C514.318 528.478 495.035 503.312 471.476 503.312Z" fill="#229EF7"/>
<path d="M471.415 577.187C479.034 577.187 485.211 569.198 485.211 559.343C485.211 549.489 479.034 541.5 471.415 541.5C463.796 541.5 457.62 549.489 457.62 559.343C457.62 569.198 463.796 577.187 471.415 577.187Z" fill="#229EF7"/>
<path d="M472.931 498.703H469.899V619.999H472.931V498.703Z" fill="#229EF7"/>
<path d="M518.821 557.827H424.01V560.859H518.821V557.827Z" fill="#229EF7"/>
<path d="M439.083 515.538L436.694 517.405L503.732 603.179L506.121 601.312L439.083 515.538Z" fill="#229EF7"/>
<path d="M503.738 515.493L436.685 601.256L439.073 603.123L506.127 517.361L503.738 515.493Z" fill="#229EF7"/>
<path d="M488.413 503.018L451.524 614.758L454.403 615.708L491.292 503.968L488.413 503.018Z" fill="#229EF7"/>
<path d="M428.469 534.4L427.026 537.067L514.352 584.304L515.795 581.637L428.469 534.4Z" fill="#229EF7"/>
<path d="M455.015 502.723L452.125 503.64L487.759 616.041L490.65 615.125L455.015 502.723Z" fill="#229EF7"/>
<path d="M514.631 535.201L426.787 580.812L428.184 583.503L516.028 537.892L514.631 535.201Z" fill="#229EF7"/>
<path d="M280.066 335.658L293.71 328.851C293.71 328.851 296.954 324.454 297.833 324.303C298.713 324.151 315.101 326.304 315.101 326.304C315.101 326.304 313.312 331.504 311.705 333.096C310.098 334.687 299.577 332.701 299.577 332.701L286.175 339.296L280.066 335.658Z" fill="#B97964"/>
<path d="M268.423 274.699C264.769 278.231 261.343 280.945 266.649 285.842C271.955 290.738 270.955 298.819 264.178 302.427C257.402 306.035 223.443 318.36 210.876 304.155C198.308 289.95 207.662 280.233 213.908 277.58C220.154 274.927 214.135 267.953 213.559 262.889C212.983 257.826 236.178 237.117 247.002 235.799C257.826 234.48 265.194 243.803 264.997 253.263C264.8 262.723 274.396 268.938 268.423 274.699Z" fill="#263238"/>
<path d="M255.264 300.411C254.521 300.411 259.433 332.929 260.752 337.795C262.071 342.662 289.253 329.578 289.253 329.578L293.649 336.294C293.649 336.294 269.848 356.351 259.539 354.107C249.23 351.864 241.544 316.329 241.544 316.329L255.264 300.411Z" fill="#229EF7"/>
<path opacity="0.7" d="M293.649 336.294C293.649 336.294 269.848 356.351 259.539 354.092C255.416 353.183 251.701 346.906 248.73 339.705C245.823 332.311 243.471 324.71 241.696 316.965C241.605 316.495 241.544 316.253 241.544 316.253L243.06 314.525L248.594 308.097L255.264 300.38C254.749 301.639 259.494 332.959 260.782 337.719C262.071 342.48 289.283 329.503 289.283 329.503L293.649 336.294Z" fill="white"/>
<path opacity="0.2" d="M248.73 339.705C245.823 332.311 243.471 324.71 241.696 316.965C242.12 316.116 242.56 315.298 243.03 314.525C244.434 312.039 246.314 309.854 248.563 308.097L248.776 307.945C248.776 307.945 254.688 324.97 248.73 339.705Z" fill="black"/>
<path d="M186.104 410.715L227.809 416.612L235.253 309.021L193.487 313.994L186.104 410.715Z" fill="#229EF7"/>
<path opacity="0.4" d="M186.104 410.715L227.809 416.612L235.253 309.021L193.487 313.994L186.104 410.715Z" fill="white"/>
<path d="M206.707 614.859H196.686L199.763 601.003L202.598 588.284L215.151 586.358L210.694 601.443L206.707 614.859Z" fill="#B97964"/>
<path opacity="0.2" d="M210.588 601.746L199.672 601.276L202.553 588.42L215.136 586.419L210.588 601.746Z" fill="black"/>
<path d="M185.953 614.859H175.932L179.009 601.003L181.844 588.284L194.397 586.358L189.94 601.443L185.953 614.859Z" fill="#B97964"/>
<path opacity="0.2" d="M189.833 601.746L178.918 601.276L181.799 588.42L194.381 586.419L189.833 601.746Z" fill="black"/>
<path d="M167.821 349.984C167.821 349.984 167.306 351.06 166.502 353.016C162.727 362.339 152.388 391.795 156.254 425.935C158.543 446.129 180.859 482.467 184.179 502.266C188.045 525.324 177.918 565.938 180.525 595.758L196.458 597.153L201.264 594.121L214.908 592.074C214.908 592.074 250.474 511.18 249.776 483.21C249.276 461.243 214.908 382.502 214.908 382.502L218.183 353.38" fill="#263238"/>
<path opacity="0.2" d="M203.781 593.802L201.264 594.181L197.186 596.758C199.794 587.662 222.261 509.012 222.655 491.699C223.11 473.295 196.883 408.016 196.883 408.016L203.599 395.888L202.583 414.353C202.583 414.353 227.354 465.109 229.31 491.669C231.235 517.168 205.842 588.071 203.781 593.802Z" fill="black"/>
<path d="M193.866 614.42C193.866 613.313 207.51 614.177 207.51 614.177C207.51 614.177 215.878 622.682 223.989 624.592C232.1 626.502 227.567 631.369 218.501 631.369H196.019C189.576 631.369 193.593 625.881 193.866 614.42Z" fill="#263238"/>
<path d="M208.981 615.936C208.938 615.915 208.902 615.883 208.874 615.845V615.754C208.866 615.714 208.866 615.672 208.874 615.632C208.867 615.587 208.867 615.541 208.874 615.496C208.874 615.329 210.072 612.191 211.906 611.418C212.183 611.294 212.483 611.23 212.786 611.23C213.089 611.23 213.388 611.294 213.665 611.418C214.287 611.721 214.59 612.1 214.559 612.57C214.559 613.283 213.559 613.995 212.452 614.586C213.474 614.419 214.523 614.535 215.484 614.92C215.662 615.014 215.818 615.146 215.941 615.305C216.064 615.465 216.151 615.649 216.197 615.845C216.297 616.088 216.321 616.357 216.264 616.615C216.207 616.872 216.072 617.106 215.878 617.285C215.527 617.524 215.106 617.642 214.681 617.618C212.698 617.389 210.77 616.82 208.981 615.936ZM210.224 615.708C212.225 616.557 214.772 617.3 215.363 616.785C215.363 616.785 215.59 616.588 215.454 616.057C215.423 615.956 215.372 615.863 215.304 615.782C215.237 615.701 215.154 615.635 215.06 615.587C214.556 615.359 214.005 615.255 213.453 615.284C212.365 615.314 211.283 615.456 210.224 615.708ZM212.119 612.085C211.045 612.775 210.225 613.797 209.784 614.996C211.8 614.238 213.741 613.177 213.771 612.57C213.771 612.388 213.468 612.206 213.286 612.115C213.091 612.024 212.88 611.973 212.664 611.964C212.476 611.968 212.291 612.009 212.119 612.085Z" fill="#229EF7"/>
<path d="M196.458 591.892L218.971 588.814L217.091 597.198L198.505 599.533L196.458 591.892Z" fill="#229EF7"/>
<path d="M173.112 614.42C173.112 613.313 186.756 614.177 186.756 614.177C186.756 614.177 195.109 622.682 203.22 624.592C211.33 626.502 206.798 631.369 197.732 631.369H175.295C168.822 631.369 172.824 625.881 173.112 614.42Z" fill="#263238"/>
<path d="M188.242 615.936C188.193 615.919 188.15 615.887 188.12 615.845V615.754C188.112 615.714 188.112 615.672 188.12 615.632C188.106 615.588 188.106 615.54 188.12 615.496C188.12 615.329 189.318 612.191 191.152 611.418C191.429 611.294 191.729 611.23 192.032 611.23C192.335 611.23 192.634 611.294 192.911 611.418C193.533 611.721 193.836 612.1 193.805 612.57C193.805 613.283 192.805 613.995 191.698 614.586C192.72 614.419 193.769 614.534 194.73 614.92C194.907 615.018 195.062 615.15 195.187 615.309C195.312 615.468 195.404 615.65 195.458 615.845C195.555 616.09 195.574 616.359 195.515 616.617C195.455 616.874 195.319 617.107 195.124 617.285C194.773 617.526 194.352 617.644 193.927 617.618C191.948 617.392 190.025 616.822 188.242 615.936ZM189.485 615.708C191.486 616.557 194.033 617.3 194.609 616.785C194.609 616.785 194.836 616.588 194.7 616.057C194.669 615.956 194.618 615.863 194.55 615.782C194.483 615.701 194.399 615.635 194.306 615.587C193.831 615.37 193.312 615.266 192.79 615.284C191.681 615.308 190.578 615.451 189.5 615.708H189.485ZM191.365 612.085C190.29 612.775 189.471 613.797 189.03 614.996C191.046 614.238 192.987 613.177 193.017 612.57C193.017 612.388 192.714 612.206 192.532 612.115C192.338 612.021 192.126 611.969 191.91 611.964C191.722 611.968 191.537 612.009 191.365 612.085Z" fill="#229EF7"/>
<path d="M177.236 591.892L201.264 588.814L199.263 597.198L179.419 599.533L177.236 591.892Z" fill="#229EF7"/>
<path d="M170.732 343.435L168.382 350.211L215.803 362.748L218.592 354.744L170.732 343.435Z" fill="black"/>
<path d="M187.004 345.891L184.676 345.212L181.212 357.087L183.54 357.767L187.004 345.891Z" fill="#263238"/>
<path d="M207.082 352.566L196.671 349.957L194.692 357.853L205.103 360.463L207.082 352.566Z" fill="white"/>
<path d="M216.29 352.633L213.962 351.953L210.496 363.828L212.824 364.508L216.29 352.633Z" fill="#263238"/>
<path d="M254.521 300.411C252.5 303.099 250.585 305.626 248.776 307.991C241.863 317.238 236.951 323.802 233.176 329.093C228.947 334.792 225.277 340.884 222.215 347.285C220.987 349.893 219.775 352.728 218.425 356.063L170.732 343.344C179.707 309.992 187.408 292.527 191.243 283.81L191.365 283.538C192.549 280.927 194.619 278.821 197.208 277.591C199.797 276.362 202.738 276.089 205.509 276.822C208.935 277.746 212.937 278.914 216.652 280.172C223.573 282.727 230.305 285.767 236.799 289.268C242.966 292.552 248.889 296.276 254.521 300.411Z" fill="#229EF7"/>
<path d="M205.509 276.913C199.233 275.26 208.465 297.333 222.731 301.639C236.996 305.944 245.577 300.653 245.592 296.56C245.607 292.467 224.444 281.976 205.509 276.913Z" fill="#B97964"/>
<path d="M209.693 276.503C209.693 276.503 214.484 298.121 209.693 313.994C204.903 329.866 165.729 425.92 165.729 425.92H144.914C144.914 425.92 151.357 378.515 170.686 337.795C170.686 337.795 188.06 283.083 188.454 280.672C188.848 278.262 198.096 274.396 209.693 276.503Z" fill="#229EF7"/>
<path d="M236.996 288.04C236.996 288.04 237.618 310.189 229.416 329.821L227.794 413.504C227.794 413.504 234.525 370.51 237.497 337.795L255.249 300.411L236.996 288.04Z" fill="#229EF7"/>
<path opacity="0.8" d="M209.693 313.994C204.887 329.851 165.729 425.92 165.729 425.92H144.914C144.914 425.92 150.812 382.578 168.261 343.192C169.064 341.388 169.883 339.584 170.732 337.795C170.732 337.795 172.384 332.595 174.674 325.318C179.828 309.021 188.227 282.34 188.499 280.672C188.894 278.277 198.096 274.32 209.723 276.503C209.693 276.503 214.484 298.121 209.693 313.994Z" fill="white"/>
<path opacity="0.8" d="M236.996 288.04C236.996 288.04 237.618 310.189 229.416 329.821L227.794 413.504C227.794 413.504 234.525 370.51 237.497 337.795L255.249 300.411L236.996 288.04Z" fill="white"/>
<path d="M237.512 286.175C237.512 286.175 243.818 291.269 247.972 304.761L239.528 310.78L241.575 316.298L229.447 335.627C228.922 330.611 229.25 325.541 230.417 320.634C232.327 313.463 238.088 292.285 237.512 286.175Z" fill="#229EF7"/>
<path d="M211.831 276.503C216.272 294.523 213.492 313.566 204.084 329.563C204.084 329.563 203.614 309.4 200.885 302.048L207.389 299.455L194.548 291.072C194.548 291.072 204.963 274.017 211.831 276.503Z" fill="#229EF7"/>
<path opacity="0.7" d="M237.512 286.175C237.512 286.175 243.818 291.269 247.972 304.761L239.528 310.78L241.575 316.298L229.447 335.627C228.922 330.611 229.25 325.541 230.417 320.634C232.327 313.463 238.088 292.285 237.512 286.175Z" fill="white"/>
<path opacity="0.7" d="M211.831 276.503C216.272 294.523 213.492 313.566 204.084 329.563C204.084 329.563 203.614 309.4 200.885 302.048L207.389 299.455L194.548 291.072C194.548 291.072 204.963 274.017 211.831 276.503Z" fill="white"/>
<path opacity="0.2" d="M188.105 350.772C183.224 351.227 174.704 346.952 168.261 343.192C169.064 341.388 169.883 339.584 170.732 337.795C170.732 337.795 172.384 332.595 174.673 325.318C182.451 334.854 194.048 350.196 188.105 350.772Z" fill="black"/>
<path d="M191.547 381.259C191.547 381.259 196.261 381.911 205.342 373.224C214.423 364.537 226.566 354.35 229.507 355.745L256.401 368.722L220.123 394.494L191.547 381.259Z" fill="#229EF7"/>
<path opacity="0.7" d="M191.547 381.259C191.547 381.259 196.261 381.911 205.342 373.224C214.423 364.537 226.566 354.35 229.507 355.745L256.401 368.722L220.123 394.494L191.547 381.259Z" fill="white"/>
<path d="M192.229 386.58L229.386 357.488C229.628 357.3 229.916 357.181 230.221 357.144C230.525 357.106 230.834 357.152 231.114 357.276L259.1 369.662C259.217 369.715 259.319 369.798 259.395 369.903C259.471 370.008 259.518 370.131 259.532 370.259C259.546 370.388 259.526 370.518 259.474 370.636C259.422 370.755 259.34 370.858 259.236 370.935L222.534 398.253C222.306 398.422 222.04 398.532 221.759 398.571C221.478 398.611 221.192 398.58 220.927 398.481L192.426 387.793C192.316 387.742 192.22 387.664 192.147 387.568C192.074 387.471 192.026 387.358 192.006 387.239C191.987 387.119 191.997 386.997 192.036 386.882C192.075 386.767 192.141 386.663 192.229 386.58Z" fill="#229EF7"/>
<path d="M247.184 363.506C247.517 363.006 247.942 361.99 246.956 361.551C246.48 361.412 245.977 361.384 245.488 361.471C244.999 361.558 244.536 361.756 244.137 362.051C242.696 361.384 241.347 360.747 240.392 360.323C240.292 360.279 240.181 360.266 240.073 360.285C239.965 360.304 239.865 360.354 239.786 360.429L237.451 362.566C237.349 362.661 237.272 362.78 237.228 362.912C237.183 363.044 237.173 363.185 237.197 363.322C237.221 363.459 237.279 363.588 237.366 363.697C237.453 363.806 237.565 363.892 237.694 363.946L247.229 368.024C247.568 368.164 247.939 368.21 248.302 368.157C248.665 368.104 249.007 367.953 249.291 367.721L251.186 366.129C251.245 366.083 251.292 366.023 251.321 365.955C251.351 365.886 251.362 365.811 251.355 365.737C251.347 365.662 251.321 365.591 251.278 365.53C251.235 365.468 251.177 365.419 251.11 365.386L247.184 363.506ZM246.547 362.354C246.85 362.551 246.623 362.885 246.395 363.127L245.274 362.597C245.698 362.324 246.259 362.157 246.547 362.324V362.354Z" fill="#263238"/>
<path d="M200.112 356.154L206.312 364.446C206.312 364.446 212.376 365.644 213.892 367.236C216.694 370.407 219.187 373.839 221.336 377.484C221.927 379.076 212.998 383.472 211.861 382.881C210.724 382.29 204.357 373.285 203.553 371.678C203.321 371.168 203.201 370.615 203.201 370.056C203.201 369.496 203.321 368.943 203.553 368.433L196.974 360.853L200.112 356.154Z" fill="#B97964"/>
<path d="M188.499 280.672C194.093 283.704 194.563 295.741 194.563 295.741C194.563 295.741 181.723 320.649 180.919 324.545C180.116 328.442 204.66 360.065 204.66 360.065L198.899 365.432C198.899 365.432 169.307 333.717 166.108 326.016C162.909 318.315 188.499 280.672 188.499 280.672Z" fill="#229EF7"/>
<path opacity="0.7" d="M188.499 280.672C194.093 283.704 194.563 295.741 194.563 295.741C194.563 295.741 181.723 320.649 180.919 324.545C180.116 328.442 204.66 360.065 204.66 360.065L198.899 365.432C198.899 365.432 169.307 333.717 166.108 326.016C162.909 318.315 188.499 280.672 188.499 280.672Z" fill="white"/>
<path d="M258.417 343.677C258.417 344.463 258.184 345.231 257.748 345.884C257.312 346.537 256.691 347.046 255.965 347.347C255.24 347.647 254.441 347.726 253.671 347.573C252.9 347.42 252.192 347.041 251.637 346.486C251.081 345.93 250.703 345.223 250.55 344.452C250.397 343.682 250.475 342.883 250.776 342.157C251.076 341.431 251.586 340.811 252.239 340.375C252.892 339.938 253.66 339.705 254.445 339.705C255.499 339.705 256.509 340.124 257.254 340.869C257.999 341.614 258.417 342.624 258.417 343.677Z" fill="#263238"/>
<g opacity="0.6">
<path d="M258.417 343.677C258.417 344.463 258.184 345.231 257.748 345.884C257.312 346.537 256.691 347.046 255.965 347.347C255.24 347.647 254.441 347.726 253.671 347.573C252.9 347.42 252.192 347.041 251.637 346.486C251.081 345.93 250.703 345.223 250.55 344.452C250.397 343.682 250.475 342.883 250.776 342.157C251.076 341.431 251.586 340.811 252.239 340.375C252.892 339.938 253.66 339.705 254.445 339.705C255.499 339.705 256.509 340.124 257.254 340.869C257.999 341.614 258.417 342.624 258.417 343.677Z" fill="white"/>
</g>
<path d="M239.331 310.932C239.446 308.48 239.724 306.039 240.165 303.624C241.59 294.619 243.197 284.402 229.735 278.58C225.672 276.822 222.064 276.852 219.017 278.686C212.119 282.84 210.345 294.847 209.996 297.985C208.796 297.843 207.58 297.98 206.441 298.384C205.303 298.789 204.273 299.452 203.432 300.32C198.505 305.58 200.749 317.693 200.855 318.208C200.873 318.305 200.91 318.398 200.964 318.48C201.019 318.563 201.089 318.633 201.171 318.688C201.252 318.743 201.344 318.782 201.441 318.801C201.538 318.82 201.638 318.819 201.734 318.8C201.931 318.763 202.105 318.65 202.218 318.485C202.332 318.32 202.376 318.117 202.341 317.92C202.341 317.799 200.127 306.065 204.524 301.366C205.302 300.58 206.265 300.003 207.324 299.685C208.383 299.367 209.505 299.319 210.588 299.546C211.725 299.62 212.829 299.964 213.807 300.549C214.785 301.134 215.609 301.944 216.212 302.912C220.017 309.082 215.696 321.377 215.651 321.498C215.588 321.689 215.601 321.897 215.689 322.079C215.777 322.26 215.932 322.4 216.121 322.468C216.206 322.484 216.293 322.484 216.379 322.468C216.533 322.464 216.684 322.414 216.81 322.326C216.937 322.237 217.035 322.112 217.091 321.968C217.273 321.438 221.639 308.87 217.501 302.078C216.842 301.014 215.957 300.109 214.909 299.425C213.861 298.741 212.676 298.296 211.437 298.121C211.785 295.196 213.513 283.689 219.729 279.929C222.337 278.413 225.475 278.413 229.068 279.929C241.453 285.281 240.013 294.468 238.603 303.336C238.152 305.841 237.869 308.374 237.754 310.916C237.572 323.044 241.468 342.616 252.748 343.025V341.509C242.287 341.1 239.179 320.74 239.331 310.932Z" fill="#263238"/>
<path opacity="0.2" d="M239.331 310.932C239.446 308.48 239.724 306.039 240.165 303.624C241.59 294.619 243.197 284.402 229.735 278.58C225.672 276.822 222.064 276.852 219.017 278.686C212.119 282.84 210.345 294.847 209.996 297.985C208.796 297.843 207.58 297.98 206.441 298.384C205.303 298.789 204.273 299.452 203.432 300.32C198.505 305.58 200.749 317.693 200.855 318.208C200.873 318.305 200.91 318.398 200.964 318.48C201.019 318.563 201.089 318.633 201.171 318.688C201.252 318.743 201.344 318.782 201.441 318.801C201.538 318.82 201.638 318.819 201.734 318.8C201.931 318.763 202.105 318.65 202.218 318.485C202.332 318.32 202.376 318.117 202.341 317.92C202.341 317.799 200.127 306.065 204.524 301.366C205.302 300.58 206.265 300.003 207.324 299.685C208.383 299.367 209.505 299.319 210.588 299.546C211.725 299.62 212.829 299.964 213.807 300.549C214.785 301.134 215.609 301.944 216.212 302.912C220.017 309.082 215.696 321.377 215.651 321.498C215.588 321.689 215.601 321.897 215.689 322.079C215.777 322.26 215.932 322.4 216.121 322.468C216.206 322.484 216.293 322.484 216.379 322.468C216.533 322.464 216.684 322.414 216.81 322.326C216.937 322.237 217.035 322.112 217.091 321.968C217.273 321.438 221.639 308.87 217.501 302.078C216.842 301.014 215.957 300.109 214.909 299.425C213.861 298.741 212.676 298.296 211.437 298.121C211.785 295.196 213.513 283.689 219.729 279.929C222.337 278.413 225.475 278.413 229.068 279.929C241.453 285.281 240.013 294.468 238.603 303.336C238.152 305.841 237.869 308.374 237.754 310.916C237.572 323.044 241.468 342.616 252.748 343.025V341.509C242.287 341.1 239.179 320.74 239.331 310.932Z" fill="white"/>
<path d="M217.197 320.589L215.105 320.164C215.105 320.164 213.589 323.499 214.817 324.09C216.045 324.682 217.895 322.332 217.197 320.589Z" fill="#263238"/>
<g opacity="0.6">
<path d="M217.197 320.589L215.105 320.164C215.105 320.164 213.589 323.499 214.817 324.09C216.045 324.682 217.895 322.332 217.197 320.589Z" fill="white"/>
</g>
<path d="M201.264 316.844H203.387C203.387 316.844 204.296 320.437 202.886 320.74C201.476 321.043 200.218 318.36 201.264 316.844Z" fill="#263238"/>
<g opacity="0.6">
<path d="M201.264 316.844H203.387C203.387 316.844 204.296 320.437 202.886 320.74C201.476 321.043 200.218 318.36 201.264 316.844Z" fill="white"/>
</g>
<path d="M253.581 344.162C254.812 344.162 255.81 343.165 255.81 341.934C255.81 340.703 254.812 339.705 253.581 339.705C252.351 339.705 251.353 340.703 251.353 341.934C251.353 343.165 252.351 344.162 253.581 344.162Z" fill="#263238"/>
<g opacity="0.7">
<path d="M253.581 344.162C254.812 344.162 255.81 343.165 255.81 341.934C255.81 340.703 254.812 339.705 253.581 339.705C252.351 339.705 251.353 340.703 251.353 341.934C251.353 343.165 252.351 344.162 253.581 344.162Z" fill="white"/>
</g>
<path d="M223.731 298.652C215.696 289.556 216.394 283.265 216.394 283.265C226.9 282.916 230.402 269.317 230.402 269.317L239.498 280.945C237.909 282.242 236.414 283.65 235.025 285.16C229.128 291.694 231.993 294.392 231.993 294.392C230.811 299.713 223.731 298.652 223.731 298.652Z" fill="#B97964"/>
<path opacity="0.2" d="M239.528 281.006C237.939 282.303 236.445 283.711 235.056 285.22C230.887 279.384 230.432 269.378 230.432 269.378L239.528 281.006Z" fill="black"/>
<path d="M249.412 238.103C261.677 241.135 264.042 248.624 261.859 261.495C259.13 277.58 252.884 287.964 238.361 280.854C218.622 271.182 229.022 233.146 249.412 238.103Z" fill="#B97964"/>
<path d="M254.082 258.887C254.622 260.959 255.405 262.959 256.416 264.845C255.932 265.264 255.342 265.541 254.711 265.645C254.079 265.75 253.431 265.677 252.838 265.437L254.082 258.887Z" fill="#A24E3F"/>
<path d="M246.82 256.052C246.593 257.068 245.865 257.766 245.183 257.568C244.5 257.371 244.137 256.477 244.364 255.461C244.591 254.446 245.319 253.748 245.986 253.945C246.653 254.142 247.108 255.037 246.82 256.052Z" fill="#263238"/>
<path d="M245.698 253.93L248.093 253.551C248.093 253.551 246.593 255.158 245.698 253.93Z" fill="#263238"/>
<path d="M259.463 258.599C259.251 259.615 258.523 260.312 257.841 260.115C257.159 259.918 256.795 259.024 257.023 258.008C257.25 256.992 257.978 256.295 258.645 256.492C259.312 256.689 259.691 257.584 259.463 258.599Z" fill="#263238"/>
<path d="M258.357 256.477L260.752 256.098C260.752 256.098 259.236 257.72 258.357 256.477Z" fill="#263238"/>
<path d="M242.984 248.624C242.898 248.625 242.813 248.604 242.736 248.565C242.66 248.525 242.594 248.467 242.545 248.397C242.459 248.279 242.422 248.133 242.441 247.988C242.461 247.844 242.536 247.713 242.651 247.623C243.581 247.036 244.636 246.674 245.731 246.566C246.826 246.458 247.93 246.607 248.957 247.002C249.084 247.06 249.183 247.164 249.235 247.293C249.288 247.422 249.289 247.566 249.238 247.695C249.188 247.825 249.09 247.93 248.965 247.99C248.839 248.05 248.696 248.06 248.563 248.018C247.709 247.699 246.793 247.577 245.885 247.661C244.977 247.745 244.1 248.033 243.318 248.503C243.221 248.575 243.105 248.618 242.984 248.624Z" fill="#263238"/>
<path d="M262.45 251.944C262.375 251.944 262.301 251.928 262.233 251.897C262.165 251.865 262.104 251.819 262.056 251.762C261.555 251.133 260.918 250.626 260.194 250.276C259.469 249.927 258.676 249.746 257.872 249.746C257.728 249.755 257.587 249.711 257.474 249.621C257.362 249.531 257.288 249.403 257.265 249.261C257.248 249.118 257.288 248.975 257.376 248.861C257.464 248.748 257.593 248.673 257.735 248.654C258.713 248.629 259.684 248.83 260.573 249.24C261.461 249.65 262.244 250.259 262.859 251.019C262.958 251.124 263.014 251.262 263.014 251.406C263.014 251.55 262.958 251.688 262.859 251.793C262.806 251.845 262.741 251.886 262.671 251.912C262.6 251.939 262.525 251.949 262.45 251.944Z" fill="#263238"/>
<path d="M230.947 255.522C230.947 255.522 239.149 246.835 240.18 238.846C240.18 238.846 266.922 234.828 262.116 259.812C262.116 259.812 269.833 238.467 248.836 232.842C227.84 227.218 220.426 258.099 229.128 269.954C229.083 269.954 225.884 260.964 230.947 255.522Z" fill="#263238"/>
<path d="M232.327 258.614C232.555 257.172 232.206 255.698 231.354 254.512C230.503 253.326 229.218 252.523 227.779 252.278C223.868 251.762 220.199 259.13 229.159 263.314C230.432 263.921 231.493 262.768 232.327 258.614Z" fill="#B97964"/>
<path d="M269.499 265.3C266.316 262.268 266.801 257.114 269.302 251.883C271.804 246.653 265.33 242.787 265.33 242.787C265.33 242.787 264.815 236.208 259.751 233.57C258.842 233.085 254.627 233.57 254.627 233.57C249.109 227.506 240.241 222.519 233.282 230.417C229.174 235.086 225.096 230.311 218.592 240.013C213.892 247.032 217.167 253.202 215.803 255.461C209.496 265.831 217.698 268.635 219.668 272.243C219.668 272.243 224.004 270.182 223.64 268.938C220.608 259.009 225.839 252.566 229.841 254.142C233.843 255.719 236.693 255.31 239.589 251.656C242.484 248.002 240.468 244.076 247.169 243.166C253.869 242.257 254.552 238.421 254.552 238.421C254.659 240.127 255.228 241.771 256.197 243.178C257.166 244.585 258.5 245.703 260.055 246.411C265.649 249.337 263.45 252.869 262.662 257.856C261.874 262.844 264.345 264.769 268.726 268.378C273.107 271.986 268.484 274.623 268.484 274.623C269.315 274.203 270.028 273.582 270.558 272.816C271.089 272.05 271.419 271.163 271.52 270.237C271.621 269.311 271.489 268.374 271.136 267.512C270.783 266.65 270.221 265.89 269.499 265.3Z" fill="#263238"/>
<path d="M251.914 271C250.828 271.982 249.815 273.041 248.882 274.169L248.215 273.774C245.183 271.97 244.425 270.151 244.44 268.666C244.478 267.947 244.68 267.247 245.031 266.619C245.223 266.255 245.463 265.919 245.744 265.618C247.103 267.555 248.86 269.178 250.898 270.379L251.914 271Z" fill="#263238"/>
<path d="M250.898 270.379L249.988 271.288C247.169 269.575 245.44 267.999 245.031 266.619C245.223 266.255 245.463 265.919 245.744 265.618C247.103 267.555 248.86 269.178 250.898 270.379Z" fill="white"/>
<path d="M248.215 273.774C245.183 271.97 244.425 270.151 244.44 268.666C245.57 269.374 246.566 270.277 247.381 271.334C247.909 272.039 248.201 272.893 248.215 273.774Z" fill="#DE5753"/>
</svg>
