<svg width="560" height="574" viewBox="0 0 560 574" fill="none" xmlns="http://www.w3.org/2000/svg">
<path d="M471.173 150.618C443.352 108.371 401.99 71.4859 353.64 55.4024C336.937 49.9174 319.789 45.9755 302.4 43.6239C170.24 25.2559 95.2 106.764 75.04 160.72C63.504 191.59 74.4688 226.053 83.16 256.107C90.8544 282.729 109.637 323.219 99.68 351.288C86.24 389.172 67.2 441.98 124.32 468.384C181.44 494.788 228.659 512.306 320.32 478.716C411.981 445.125 464.531 411.351 491.613 361.689C528.125 294.737 512.702 213.677 471.173 150.618Z" fill="#229EF7"/>
<path opacity="0.7" d="M471.173 150.618C443.352 108.371 401.99 71.4859 353.64 55.4024C336.937 49.9174 319.789 45.9755 302.4 43.6239C170.24 25.2559 95.2 106.764 75.04 160.72C63.504 191.59 74.4688 226.053 83.16 256.107C90.8544 282.729 109.637 323.219 99.68 351.288C86.24 389.172 67.2 441.98 124.32 468.384C181.44 494.788 228.659 512.306 320.32 478.716C411.981 445.125 464.531 411.351 491.613 361.689C528.125 294.737 512.702 213.677 471.173 150.618Z" fill="white" fill-opacity="0.99"/>
<path d="M161.515 70.3495H58.9009L57.5457 87.3284H161.515V70.3495Z" stroke="#808080" stroke-linecap="round" stroke-linejoin="round"/>
<path d="M161.515 87.3284H58.9009L57.5457 104.319H161.515V87.3284Z" stroke="#808080" stroke-linecap="round" stroke-linejoin="round"/>
<path d="M161.515 104.319H58.9009L57.5457 121.309H161.515V104.319Z" stroke="#808080" stroke-linecap="round" stroke-linejoin="round"/>
<path d="M161.515 121.309H58.9009L57.5457 138.3H161.515V121.309Z" stroke="#808080" stroke-linecap="round" stroke-linejoin="round"/>
<path d="M161.515 138.3H58.9009L57.5457 155.278H161.515V138.3Z" stroke="#808080" stroke-linecap="round" stroke-linejoin="round"/>
<path d="M161.515 155.278H58.9009L57.5457 172.269H161.515V155.278Z" stroke="#808080" stroke-linecap="round" stroke-linejoin="round"/>
<path d="M161.515 172.269H58.9009L57.5457 189.259H161.515V172.269Z" stroke="#808080" stroke-linecap="round" stroke-linejoin="round"/>
<path d="M161.515 189.259H58.9009L57.5457 206.238H161.515V189.259Z" stroke="#808080" stroke-linecap="round" stroke-linejoin="round"/>
<path d="M161.515 206.238H58.9009L57.5457 223.229H161.515V206.238Z" stroke="#808080" stroke-linecap="round" stroke-linejoin="round"/>
<path d="M161.515 223.229H58.9009L57.5457 240.219H161.515V223.229Z" stroke="#808080" stroke-linecap="round" stroke-linejoin="round"/>
<path d="M161.515 240.219H58.9009L57.5457 257.198H161.515V240.219Z" stroke="#808080" stroke-linecap="round" stroke-linejoin="round"/>
<path d="M161.515 257.198H58.9009L57.5457 274.188H161.515V257.198Z" stroke="#808080" stroke-linecap="round" stroke-linejoin="round"/>
<path d="M161.515 274.188H58.9009L57.5457 291.179H161.515V274.188Z" stroke="#808080" stroke-linecap="round" stroke-linejoin="round"/>
<path d="M161.515 291.179H58.9009L57.5457 308.169H161.515V291.179Z" stroke="#808080" stroke-linecap="round" stroke-linejoin="round"/>
<path d="M161.515 308.169H58.9009L57.5457 325.148H161.515V308.169Z" stroke="#808080" stroke-linecap="round" stroke-linejoin="round"/>
<path d="M267.008 70.3495H164.394L163.038 87.3284H267.008V70.3495Z" stroke="#808080" stroke-linecap="round" stroke-linejoin="round"/>
<path d="M267.008 87.3284H164.394L163.038 104.319H267.008V87.3284Z" stroke="#808080" stroke-linecap="round" stroke-linejoin="round"/>
<path d="M267.008 104.319H164.394L163.038 121.309H267.008V104.319Z" stroke="#808080" stroke-linecap="round" stroke-linejoin="round"/>
<path d="M267.008 121.309H164.394L163.038 138.3H267.008V121.309Z" stroke="#808080" stroke-linecap="round" stroke-linejoin="round"/>
<path d="M267.008 138.3H164.394L163.038 155.278H267.008V138.3Z" stroke="#808080" stroke-linecap="round" stroke-linejoin="round"/>
<path d="M267.008 155.278H164.394L163.038 172.269H267.008V155.278Z" stroke="#808080" stroke-linecap="round" stroke-linejoin="round"/>
<path d="M267.008 172.269H164.394L163.038 189.259H267.008V172.269Z" stroke="#808080" stroke-linecap="round" stroke-linejoin="round"/>
<path d="M267.008 189.259H164.394L163.038 206.238H267.008V189.259Z" stroke="#808080" stroke-linecap="round" stroke-linejoin="round"/>
<path d="M267.008 206.238H164.394L163.038 223.229H267.008V206.238Z" stroke="#808080" stroke-linecap="round" stroke-linejoin="round"/>
<path d="M267.008 223.229H164.394L163.038 240.219H267.008V223.229Z" stroke="#808080" stroke-linecap="round" stroke-linejoin="round"/>
<path d="M267.008 240.219H164.394L163.038 257.198H267.008V240.219Z" stroke="#808080" stroke-linecap="round" stroke-linejoin="round"/>
<path d="M267.008 257.198H164.394L163.038 274.188H267.008V257.198Z" stroke="#808080" stroke-linecap="round" stroke-linejoin="round"/>
<path d="M267.008 274.188H164.394L163.038 291.179H267.008V274.188Z" stroke="#808080" stroke-linecap="round" stroke-linejoin="round"/>
<path d="M267.008 291.179H164.394L163.038 308.169H267.008V291.179Z" stroke="#808080" stroke-linecap="round" stroke-linejoin="round"/>
<path d="M267.008 308.169H164.394L163.038 325.148H267.008V308.169Z" stroke="#808080" stroke-linecap="round" stroke-linejoin="round"/>
<path d="M272.149 57.1934H55.1488V70.005H272.149V57.1934Z" stroke="#808080" stroke-linecap="round" stroke-linejoin="round"/>
<path d="M272.149 70.005V295.69" stroke="#808080" stroke-linecap="round" stroke-linejoin="round"/>
<path d="M269.786 70.3724V225.215" stroke="#808080" stroke-linecap="round" stroke-linejoin="round"/>
<path d="M273.683 295.197H270.771V300.948H273.683V295.197Z" fill="#263238" stroke="#808080" stroke-linecap="round" stroke-linejoin="round"/>
<path d="M271.051 223.975H268.139V229.726H271.051V223.975Z" fill="#263238" stroke="#808080" stroke-linecap="round" stroke-linejoin="round"/>
<path d="M116.48 309.214C116.48 309.214 102.704 301.373 101.685 319.144C100.666 336.915 98.1121 452.415 98.1121 452.415" stroke="#263238" stroke-width="2" stroke-linecap="round" stroke-linejoin="round"/>
<path d="M94.5392 320.705C94.5392 320.705 105.739 346.317 100.666 450.854" stroke="#263238" stroke-width="2" stroke-linecap="round" stroke-linejoin="round"/>
<path d="M105.571 312.796C105.571 312.796 100.296 316.24 97.3056 312.29C94.3152 308.341 99.3328 301.086 94.8976 297.986C90.4624 294.887 82.88 299.628 82.88 299.628C82.88 299.628 88.76 301.396 88.5696 304.691C88.3792 307.985 85.5456 309.283 85.2096 307.79C84.8736 306.298 82.0176 299.1 77.2352 302.119C75.8581 302.954 74.6599 304.066 73.713 305.388C72.766 306.709 72.0897 308.214 71.7248 309.811C71.7248 309.811 82.8576 308.594 83.5296 312.887C84.2016 317.181 78.9712 312.13 74.3792 311.854C69.7872 311.579 65.5984 312.267 65.9008 315.126C66.0025 317.641 65.8562 320.16 65.464 322.645C67.9782 320.505 71.1562 319.357 74.424 319.408C79.4752 319.718 79.2848 323.013 74.6928 322.737C70.1008 322.462 66.08 326.927 66.08 326.927C66.08 326.927 70.2688 334.263 75.5888 337.891C80.9088 341.519 82.824 340.187 83.4288 337.42C84.0336 334.654 82.6224 327.456 85.8368 327.651C89.0512 327.846 80.5168 340.072 84.616 340.795C88.7152 341.519 92.0192 340.302 93.0944 337.535L94.2144 334.768C94.2144 334.768 92.7808 327.593 93.408 324.804C94.0352 322.014 94.7856 324.884 95.5136 328.248C96.2416 331.611 96.7008 339.647 98.1008 339.257C99.5008 338.867 103.992 333.012 105.045 330.716C106.098 328.42 99.1312 321.383 99.2096 319.971C99.288 318.559 104.664 321.245 105.504 322.714C106.344 324.184 107.15 326.158 107.15 326.158C107.15 326.158 110.51 324 110.421 317.388C110.331 310.775 105.571 312.796 105.571 312.796Z" fill="#B0DDFC"/>
<path opacity="0.3" d="M105.571 312.796C105.571 312.796 100.296 316.24 97.3056 312.29C94.3152 308.341 99.3328 301.086 94.8976 297.986C90.4624 294.887 82.88 299.628 82.88 299.628C82.88 299.628 88.76 301.396 88.5696 304.691C88.3792 307.985 85.5456 309.283 85.2096 307.79C84.8736 306.298 82.0176 299.1 77.2352 302.119C75.8581 302.954 74.6599 304.066 73.713 305.388C72.766 306.709 72.0897 308.214 71.7248 309.811C71.7248 309.811 82.8576 308.594 83.5296 312.887C84.2016 317.181 78.9712 312.13 74.3792 311.854C69.7872 311.579 65.5984 312.267 65.9008 315.126C66.0025 317.641 65.8562 320.16 65.464 322.645C67.9782 320.505 71.1562 319.357 74.424 319.408C79.4752 319.718 79.2848 323.013 74.6928 322.737C70.1008 322.462 66.08 326.927 66.08 326.927C66.08 326.927 70.2688 334.263 75.5888 337.891C80.9088 341.519 82.824 340.187 83.4288 337.42C84.0336 334.654 82.6224 327.456 85.8368 327.651C89.0512 327.846 80.5168 340.072 84.616 340.795C88.7152 341.519 92.0192 340.302 93.0944 337.535L94.2144 334.768C94.2144 334.768 92.7808 327.593 93.408 324.804C94.0352 322.014 94.7856 324.884 95.5136 328.248C96.2416 331.611 96.7008 339.647 98.1008 339.257C99.5008 338.867 103.992 333.012 105.045 330.716C106.098 328.42 99.1312 321.383 99.2096 319.971C99.288 318.559 104.664 321.245 105.504 322.714C106.344 324.184 107.15 326.158 107.15 326.158C107.15 326.158 110.51 324 110.421 317.388C110.331 310.775 105.571 312.796 105.571 312.796Z" fill="#263238"/>
<path d="M78.8704 328.328C82.2976 323.977 87.36 318.088 91.6048 315.275" stroke="#263238" stroke-linecap="round" stroke-linejoin="round"/>
<path d="M74.8832 333.597C74.8832 333.597 75.768 332.346 77.2016 330.463" stroke="#263238" stroke-linecap="round" stroke-linejoin="round"/>
<path d="M93.8448 316.331C93.8448 316.331 98.9521 323.725 99.8929 331.336" stroke="#263238" stroke-linecap="round" stroke-linejoin="round"/>
<path d="M88.0657 320.705C88.0657 320.705 89.4993 319.844 88.9617 329.258" stroke="#263238" stroke-linecap="round" stroke-linejoin="round"/>
<path d="M91.8401 311.958C91.8401 311.958 94.7521 309.306 93.2177 304.013" stroke="#263238" stroke-linecap="round" stroke-linejoin="round"/>
<path d="M87.8529 316.446L85.7697 312.543" stroke="#263238" stroke-linecap="round" stroke-linejoin="round"/>
<path d="M83.4736 320.43C83.4736 320.43 76.8656 315.31 72.7328 315.057" stroke="#263238" stroke-linecap="round" stroke-linejoin="round"/>
<path d="M124.32 298.847C124.32 298.847 124.118 306.608 118.205 306.987C112.291 307.366 108.64 297.263 102.592 299.697C96.544 302.131 95.9616 313.197 95.9616 313.197C95.9616 313.197 101.696 308.364 104.787 310.798C107.878 313.232 107.162 316.997 105.493 316.4C103.824 315.803 94.8304 313.748 94.528 320.705C94.4026 322.689 94.6703 324.677 95.3152 326.552C95.96 328.426 96.9686 330.147 98.28 331.611C98.28 331.611 104.675 319.362 109.323 321.601C113.971 323.839 105.482 325.768 102.088 330.291C98.6944 334.814 96.488 339.578 99.5008 341.22C102.028 342.83 104.392 344.695 106.557 346.788C106.173 342.759 107.21 338.723 109.48 335.411C113.221 330.44 116.312 332.886 112.907 337.397C109.502 341.909 111.216 348.992 111.216 348.992C111.216 348.992 121.229 349.692 128.397 346.696C135.565 343.7 135.61 340.864 133.302 338.316C130.995 335.767 123.01 332.357 125.395 329.189C127.781 326.021 133.907 343.114 137.402 339.395C140.896 335.675 141.96 331.462 140 328.477L138.029 325.481C138.029 325.481 130.054 322.037 127.747 319.511C125.44 316.986 128.766 318.157 132.53 319.695C136.293 321.233 144.48 326.25 145.062 324.54C145.645 322.829 142.968 314.208 141.434 311.59C139.899 308.973 128.296 311.303 126.974 310.259C125.653 309.214 131.936 305.529 133.941 305.667C135.444 305.794 136.94 306.005 138.421 306.298C138.421 306.298 138.6 301.384 132.082 296.965C125.563 292.545 124.32 298.847 124.32 298.847Z" fill="#B0DDFC"/>
<path opacity="0.2" d="M124.32 298.847C124.32 298.847 124.118 306.608 118.205 306.987C112.291 307.366 108.64 297.263 102.592 299.697C96.544 302.131 95.9616 313.197 95.9616 313.197C95.9616 313.197 101.696 308.364 104.787 310.798C107.878 313.232 107.162 316.997 105.493 316.4C103.824 315.803 94.8304 313.748 94.528 320.705C94.4026 322.689 94.6703 324.677 95.3152 326.552C95.96 328.426 96.9686 330.147 98.28 331.611C98.28 331.611 104.675 319.362 109.323 321.601C113.971 323.839 105.482 325.768 102.088 330.291C98.6944 334.814 96.488 339.578 99.5008 341.22C102.028 342.83 104.392 344.695 106.557 346.788C106.173 342.759 107.21 338.723 109.48 335.411C113.221 330.44 116.312 332.886 112.907 337.397C109.502 341.909 111.216 348.992 111.216 348.992C111.216 348.992 121.229 349.692 128.397 346.696C135.565 343.7 135.61 340.864 133.302 338.316C130.995 335.767 123.01 332.357 125.395 329.189C127.781 326.021 133.907 343.114 137.402 339.395C140.896 335.675 141.96 331.462 140 328.477L138.029 325.481C138.029 325.481 130.054 322.037 127.747 319.511C125.44 316.986 128.766 318.157 132.53 319.695C136.293 321.233 144.48 326.25 145.062 324.54C145.645 322.829 142.968 314.208 141.434 311.59C139.899 308.973 128.296 311.303 126.974 310.259C125.653 309.214 131.936 305.529 133.941 305.667C135.444 305.794 136.94 306.005 138.421 306.298C138.421 306.298 138.6 301.384 132.082 296.965C125.563 292.545 124.32 298.847 124.32 298.847Z" fill="#263238"/>
<path d="M121.285 336.812C119.381 330.326 117.074 321.119 117.219 314.85" stroke="#263238" stroke-linecap="round" stroke-linejoin="round"/>
<path d="M123.749 344.515C123.749 344.515 123.122 342.747 122.259 340.003" stroke="#263238" stroke-linecap="round" stroke-linejoin="round"/>
<path d="M119.84 313.289C119.84 313.289 130.536 313.094 138.611 317.307" stroke="#263238" stroke-linecap="round" stroke-linejoin="round"/>
<path d="M120.142 322.198C120.142 322.198 120.277 320.143 129.102 327.111" stroke="#263238" stroke-linecap="round" stroke-linejoin="round"/>
<path d="M114.139 312.417C114.139 312.417 113.534 307.607 107.318 305.586" stroke="#263238" stroke-linecap="round" stroke-linejoin="round"/>
<path d="M115.83 319.511L110.6 318.983" stroke="#263238" stroke-linecap="round" stroke-linejoin="round"/>
<path d="M116.738 326.721C116.738 326.721 107.229 330.016 104.16 334.068" stroke="#263238" stroke-linecap="round" stroke-linejoin="round"/>
<path d="M60.8944 350.507C60.8944 350.507 90.9776 370.884 90.4624 449.809" stroke="#263238" stroke-width="2" stroke-linecap="round" stroke-linejoin="round"/>
<path d="M97.9888 345.123C97.9888 345.123 97.0256 354.055 90.1488 353.917C83.272 353.779 80.024 341.771 72.8 343.998C65.576 346.225 63.9072 358.922 63.9072 358.922C63.9072 358.922 70.9744 353.894 74.312 357.017C77.6496 360.139 76.4848 364.398 74.6144 363.549C72.744 362.699 62.5632 359.45 61.5552 367.452C61.2332 369.729 61.3649 372.05 61.9424 374.274C62.5199 376.497 63.5312 378.578 64.9152 380.39C64.9152 380.39 73.4272 366.878 78.5792 369.909C83.7312 372.939 73.7632 374.351 69.4288 379.242C65.0944 384.132 62.1376 389.413 65.4304 391.594C68.2039 393.697 70.763 396.082 73.0688 398.712C73.0688 398.712 72.7216 391.25 77.5488 385.866C82.376 380.482 85.6576 383.57 81.3232 388.495C76.9888 393.42 78.2208 401.8 78.2208 401.8C78.2208 401.8 89.7232 403.579 98.2688 400.824C106.814 398.069 107.117 394.786 104.686 391.64C102.256 388.495 93.3744 383.765 96.4096 380.344C99.4448 376.923 104.944 397.208 109.323 393.236C113.702 389.264 115.315 384.523 113.322 380.872L111.328 377.221C111.328 377.221 102.435 372.503 100.016 369.346C97.5968 366.189 101.315 367.888 105.526 370.023C109.738 372.159 118.709 378.737 119.526 376.831C120.344 374.925 118.059 364.731 116.547 361.528C115.035 358.325 101.405 359.921 99.9712 358.589C98.5376 357.258 106.131 353.618 108.438 353.997C110.148 354.289 111.841 354.672 113.512 355.145C113.512 355.145 114.162 349.497 107.05 343.757C99.9376 338.017 97.9888 345.123 97.9888 345.123Z" fill="#B0DDFC"/>
<path opacity="0.3" d="M97.9888 345.123C97.9888 345.123 97.0256 354.055 90.1488 353.917C83.272 353.779 80.024 341.771 72.8 343.998C65.576 346.225 63.9072 358.922 63.9072 358.922C63.9072 358.922 70.9744 353.894 74.312 357.017C77.6496 360.139 76.4848 364.398 74.6144 363.549C72.744 362.699 62.5632 359.45 61.5552 367.452C61.2332 369.729 61.3649 372.05 61.9424 374.274C62.5199 376.497 63.5312 378.578 64.9152 380.39C64.9152 380.39 73.4272 366.878 78.5792 369.909C83.7312 372.939 73.7632 374.351 69.4288 379.242C65.0944 384.132 62.1376 389.413 65.4304 391.594C68.2039 393.697 70.763 396.082 73.0688 398.712C73.0688 398.712 72.7216 391.25 77.5488 385.866C82.376 380.482 85.6576 383.57 81.3232 388.495C76.9888 393.42 78.2208 401.8 78.2208 401.8C78.2208 401.8 89.7232 403.579 98.2688 400.824C106.814 398.069 107.117 394.786 104.686 391.64C102.256 388.495 93.3744 383.765 96.4096 380.344C99.4448 376.923 104.944 397.208 109.323 393.236C113.702 389.264 115.315 384.523 113.322 380.872L111.328 377.221C111.328 377.221 102.435 372.503 100.016 369.346C97.5968 366.189 101.315 367.888 105.526 370.023C109.738 372.159 118.709 378.737 119.526 376.831C120.344 374.925 118.059 364.731 116.547 361.528C115.035 358.325 101.405 359.921 99.9712 358.589C98.5376 357.258 106.131 353.618 108.438 353.997C110.148 354.289 111.841 354.672 113.512 355.145C113.512 355.145 114.162 349.497 107.05 343.757C99.9376 338.017 97.9888 345.123 97.9888 345.123Z" fill="#263238"/>
<path d="M90.9776 388.644C89.3648 380.964 87.6176 370.115 88.3008 362.894" stroke="#263238" stroke-linecap="round" stroke-linejoin="round"/>
<path d="M93.1056 397.759C93.1056 397.759 92.5456 395.67 91.7952 392.409" stroke="#263238" stroke-linecap="round" stroke-linejoin="round"/>
<path d="M91.4257 361.344C91.4257 361.344 103.746 362.148 112.706 367.796" stroke="#263238" stroke-linecap="round" stroke-linejoin="round"/>
<path d="M90.9888 371.654C90.9888 371.654 91.336 369.3 100.878 378.197" stroke="#263238" stroke-linecap="round" stroke-linejoin="round"/>
<path d="M84.9632 359.783C84.9632 359.783 84.7056 354.181 77.728 351.242" stroke="#263238" stroke-linecap="round" stroke-linejoin="round"/>
<path d="M86.2624 368.141L80.2816 367.027" stroke="#263238" stroke-linecap="round" stroke-linejoin="round"/>
<path d="M86.6545 376.544C86.6545 376.544 75.3761 379.437 71.4673 383.834" stroke="#263238" stroke-linecap="round" stroke-linejoin="round"/>
<path d="M72.6208 412.695C72.6208 412.695 91.9969 427.86 94.0801 450.326L90.0033 375.063" stroke="#263238" stroke-width="2" stroke-linecap="round" stroke-linejoin="round"/>
<path d="M119.526 401.72C94.0801 397.013 94.0801 450.326 94.0801 450.326" stroke="#263238" stroke-width="2" stroke-linecap="round" stroke-linejoin="round"/>
<path d="M97.0929 449.809C97.0929 449.809 82.3089 339.532 125.093 339.532" stroke="#263238" stroke-width="2" stroke-linecap="round" stroke-linejoin="round"/>
<path d="M109.816 398.551C106.333 394.533 98.9296 394.533 94.584 404.796C90.2384 415.059 94.1472 413.28 94.1472 413.28C94.1472 413.28 102.413 410.605 107.587 408.814C112.762 407.023 119.84 402.569 120.266 405.244C120.691 407.919 116.782 410.605 111.989 411.489C107.195 412.373 94.584 415.955 95.8832 418.63C97.1824 421.305 100.24 429.352 100.24 429.352C103.964 426.113 107.893 423.13 112 420.421C117.667 416.85 121.15 418.125 118.093 422.2C115.035 426.275 106.344 430.684 108.08 436.033C109.816 441.383 120.277 448.076 120.277 448.076C120.277 448.076 121.576 436.929 124.622 433.359C127.669 429.788 127.68 433.806 126.806 440.051C126.369 442.711 126.078 445.394 125.933 448.087L138.118 452.553C140.111 449.443 142.292 446.464 144.648 443.633L146.888 441.395C146.888 441.395 137.312 432.922 136.875 427.561C136.438 422.2 143.405 427.561 145.578 428.457C147.75 429.352 151.234 435.597 151.234 435.597C151.234 435.597 153.418 425.334 153.854 421.764L154.28 418.193C154.28 418.193 145.141 414.623 141.658 414.623C138.174 414.623 136.438 417.298 136.438 413.739C136.438 410.18 139.922 407.93 143.842 408.378C147.384 408.987 150.875 409.881 154.28 411.053C154.28 411.053 156.901 408.826 156.027 402.133C155.154 395.44 152.981 395.44 147.75 397.22C142.52 398.999 139.048 403.028 135.128 403.028C131.208 403.028 133.392 398.115 136.002 396.783C138.611 395.452 145.141 392.765 146.451 392.318C147.762 391.87 139.485 385.625 135.128 384.729C130.771 383.834 125.138 387.025 125.552 391.422C126.358 400.778 113.299 402.569 109.816 398.551Z" fill="#B0DDFC"/>
<path d="M137.838 444.494C137.973 445.841 138.062 447.184 138.107 448.524" stroke="#263238" stroke-linecap="round" stroke-linejoin="round"/>
<path d="M129.091 412.465C132.917 421.301 135.67 430.585 137.29 440.109" stroke="#263238" stroke-linecap="round" stroke-linejoin="round"/>
<path d="M127.523 408.883C125.373 404.13 123.749 401.226 123.749 401.226C126.124 400.079 128.099 398.211 129.405 395.876C130.421 393.76 131.914 391.922 133.762 390.515" stroke="#263238" stroke-linecap="round" stroke-linejoin="round"/>
<path d="M108.506 416.403C108.506 416.403 124.186 409.71 124.186 411.041" stroke="#263238" stroke-linecap="round" stroke-linejoin="round"/>
<path d="M132.888 407.919C132.888 407.919 139.854 404.349 145.947 404.349" stroke="#263238" stroke-linecap="round" stroke-linejoin="round"/>
<path d="M130.278 418.63C127.257 421.175 124.485 424.016 122.002 427.113C119.46 430.187 117.404 433.65 115.909 437.377" stroke="#263238" stroke-linecap="round" stroke-linejoin="round"/>
<path d="M135.061 420.421C135.061 420.421 144.2 417.734 148.994 422.2" stroke="#263238" stroke-linecap="round" stroke-linejoin="round"/>
<path d="M151.626 360.128C146.888 357.258 141.646 357.189 139.07 354.158C136.494 351.127 141.546 349.566 144.245 350.714C146.944 351.862 153.205 355.157 154.381 355.869C155.557 356.58 154.75 346.099 152.555 342.093C150.36 338.086 144.346 335.836 141.355 339.073C135.016 345.892 125.149 336.95 125.821 331.623C126.493 326.296 121.643 320.568 111.261 323.92C100.878 327.272 104.731 329.143 104.731 329.143C104.731 329.143 112.123 333.793 116.861 336.663C121.598 339.533 129.461 342.001 127.77 344.09C126.078 346.179 121.542 344.905 117.69 341.794C113.837 338.683 103.04 331.301 101.92 334.068C100.8 336.835 96.88 344.457 96.88 344.457C101.705 345.215 106.475 346.301 111.16 347.706C117.499 349.75 118.798 353.32 113.837 353.596C108.875 353.871 99.8928 350.06 97.0368 354.916C94.1808 359.772 96.152 372.251 96.152 372.251C96.152 372.251 105.224 365.948 109.85 365.96C114.475 365.971 111.518 368.611 106.344 372.032C104.1 373.437 101.935 374.97 99.8592 376.624L104.563 388.988C108.161 388.489 111.786 388.221 115.416 388.185L118.485 388.414C118.485 388.414 118.485 375.442 122.114 371.596C125.742 367.75 126.392 376.647 127.165 378.92C127.938 381.193 125.608 387.978 125.608 387.978C125.608 387.978 134.568 382.938 137.514 380.929L140.426 378.932C140.426 378.932 137.066 369.507 134.826 366.821C132.586 364.134 129.438 364.525 132.059 362.229C134.68 359.933 138.622 361.081 140.862 364.456C142.73 367.583 144.352 370.857 145.712 374.248C145.712 374.248 149.072 374.811 153.429 369.748C157.786 364.685 156.363 362.998 151.626 360.128ZM110.421 374.409C106.949 372.618 115.214 369.059 115.214 369.059C118.261 368.611 113.904 376.188 110.421 374.409ZM116.29 357.751C114.811 356.994 119.258 355.455 119.258 355.455C125.698 356.741 117.779 358.509 116.29 357.751Z" fill="#B0DDFC"/>
<path d="M110.331 383.501C109.424 384.477 108.494 385.43 107.542 386.348" stroke="#263238" stroke-linecap="round" stroke-linejoin="round"/>
<path d="M128.195 355.731C124.195 364.485 119.158 372.702 113.198 380.195" stroke="#263238" stroke-linecap="round" stroke-linejoin="round"/>
<path d="M129.808 352.172C131.902 347.385 132.966 344.228 132.966 344.228C135.374 345.31 138.046 345.615 140.627 345.1C142.85 344.498 145.18 344.447 147.426 344.951" stroke="#263238" stroke-linecap="round" stroke-linejoin="round"/>
<path d="M126.022 351.001C127.008 350.117 111.798 342.38 111.798 342.38" stroke="#263238" stroke-linecap="round" stroke-linejoin="round"/>
<path d="M134.03 355.685C134.03 355.685 141.221 358.739 145.23 363.457" stroke="#263238" stroke-linecap="round" stroke-linejoin="round"/>
<path d="M124.432 360.69C120.578 360.02 116.669 359.735 112.762 359.841C108.83 359.891 104.931 360.569 101.203 361.85" stroke="#263238" stroke-linecap="round" stroke-linejoin="round"/>
<path d="M126.258 365.569C126.258 365.569 134.221 370.884 134.098 377.52" stroke="#263238" stroke-linecap="round" stroke-linejoin="round"/>
<path d="M84 421.947C80.192 419.651 75.9696 419.594 73.92 417.149C71.8704 414.704 75.9024 413.475 78.0752 414.394C80.248 415.312 85.2768 417.975 86.24 418.549C87.2032 419.123 86.5312 410.674 84.7616 407.494C82.992 404.314 78.1536 402.466 75.7456 405.06C70.6496 410.548 62.6976 403.361 63.2352 399.068C63.7728 394.774 59.8752 390.171 51.4976 392.869C43.12 395.566 46.2448 397.07 46.2448 397.07C46.2448 397.07 52.192 400.813 56.0112 403.132C59.8304 405.451 66.0912 407.425 64.7808 409.101C63.4704 410.777 59.7744 409.767 56.7168 407.253C53.6592 404.739 44.8896 398.758 43.9824 400.985C43.0752 403.212 39.9392 409.342 39.9392 409.342C43.8213 409.956 47.66 410.831 51.4304 411.96C56.5264 413.602 57.568 416.472 53.5808 416.701C49.5936 416.931 42.3808 413.843 40.1408 417.757C37.9008 421.672 39.4352 431.705 39.4352 431.705C39.4352 431.705 46.7376 426.631 50.456 426.643C54.1744 426.654 51.8 428.778 47.6448 431.533C45.837 432.667 44.091 433.901 42.4144 435.23L46.2 445.171C49.0962 444.773 52.014 444.562 54.936 444.54L57.4112 444.712C57.4112 444.712 57.4112 434.277 60.3232 431.177C63.2352 428.078 63.7728 435.253 64.3888 437.078C65.0048 438.903 63.1456 444.368 63.1456 444.368C63.1456 444.368 70.3808 440.304 72.7216 438.697L75.0736 437.078C75.0736 437.078 72.3632 429.501 70.5264 427.332C68.6896 425.162 66.1808 425.495 68.2864 423.612C70.392 421.729 73.5616 422.717 75.3648 425.391C76.8749 427.923 78.1893 430.571 79.296 433.313C79.296 433.313 81.9952 433.772 85.5008 429.696C89.0064 425.621 87.7968 424.266 84 421.947ZM50.848 433.427C48.048 431.981 54.7008 429.111 54.7008 429.111C57.12 428.778 53.6256 434.885 50.8256 433.45L50.848 433.427ZM55.5632 420.019C54.376 419.399 57.96 418.182 57.96 418.182C63.112 419.227 56.7392 420.65 55.5408 420.042L55.5632 420.019Z" fill="#B0DDFC"/>
<path d="M50.7472 440.763C50.0192 441.555 49.28 442.313 48.5072 443.059" stroke="#263238" stroke-linecap="round" stroke-linejoin="round"/>
<path d="M65.1281 418.412C61.9114 425.457 57.8601 432.07 53.0657 438.1" stroke="#263238" stroke-linecap="round" stroke-linejoin="round"/>
<path d="M66.4272 415.576C68.1072 411.719 68.9696 409.182 68.9696 409.182C70.9061 410.05 73.0546 410.295 75.1296 409.882C76.9165 409.397 78.7905 409.358 80.5952 409.767" stroke="#263238" stroke-linecap="round" stroke-linejoin="round"/>
<path d="M51.9344 407.666C51.9344 407.666 64.176 413.9 63.3808 414.612" stroke="#263238" stroke-linecap="round" stroke-linejoin="round"/>
<path d="M69.8208 418.377C69.8208 418.377 75.6112 420.834 78.7808 424.634" stroke="#263238" stroke-linecap="round" stroke-linejoin="round"/>
<path d="M62.0929 422.464C58.9932 421.927 55.8498 421.7 52.7073 421.787C49.5449 421.823 46.4078 422.369 43.4113 423.405" stroke="#263238" stroke-linecap="round" stroke-linejoin="round"/>
<path d="M63.5601 426.333C63.5601 426.333 69.9777 430.615 69.8545 435.953" stroke="#263238" stroke-linecap="round" stroke-linejoin="round"/>
<path d="M68.432 348.269C68.432 348.269 63.6384 351.839 60.592 348.269C57.5456 344.699 61.9024 337.558 57.5456 334.883C53.1888 332.208 46.2224 337.179 46.2224 337.179C46.2224 337.179 51.8896 338.511 51.8896 341.633C51.8896 344.756 49.2688 346.099 48.8432 344.756C48.4176 343.413 45.36 336.72 41.0032 339.854C39.746 340.719 38.673 341.837 37.8491 343.139C37.0251 344.441 36.4674 345.901 36.2096 347.431C36.2096 347.431 46.6592 345.651 47.5328 349.727C48.4064 353.802 43.176 349.279 38.8304 349.279C34.4848 349.279 30.5536 350.175 30.9904 352.849C31.2275 355.223 31.2275 357.616 30.9904 359.99C33.2455 357.826 36.1811 356.56 39.2672 356.42C44.0496 356.42 44.0496 359.542 39.6928 359.542C35.336 359.542 31.8528 364.008 31.8528 364.008C31.8528 364.008 36.1984 370.701 41.4288 373.823C46.6592 376.946 48.3952 375.603 48.832 372.928C49.2688 370.253 47.5216 363.56 50.568 363.56C53.6144 363.56 46.2112 375.603 50.1312 376.05C54.0512 376.498 57.0976 375.155 57.9712 372.48L58.8448 369.805C58.8448 369.805 57.0976 363.113 57.5344 360.438C57.9712 357.763 58.8448 360.438 59.7072 363.56C60.5696 366.683 61.4544 374.26 62.7536 373.823C64.0528 373.387 67.984 367.567 68.8576 365.34C69.7312 363.112 62.72 356.753 62.72 355.409C62.72 354.066 67.9504 356.305 68.824 357.637C69.6976 358.968 70.56 360.759 70.56 360.759C70.56 360.759 73.6064 358.532 73.1696 352.287C72.7328 346.042 68.432 348.269 68.432 348.269Z" fill="#B0DDFC"/>
<path d="M44.0385 364.456C47.0513 360.151 51.5089 354.296 55.3729 351.391" stroke="#263238" stroke-linecap="round" stroke-linejoin="round"/>
<path d="M40.5664 369.656C40.5664 369.656 41.328 368.416 42.5824 366.556" stroke="#263238" stroke-linecap="round" stroke-linejoin="round"/>
<path d="M57.5457 352.287C57.5457 352.287 62.7649 358.98 64.0753 366.12" stroke="#263238" stroke-linecap="round" stroke-linejoin="round"/>
<path d="M52.3264 356.753C52.3264 356.753 53.6256 355.857 53.6256 364.789" stroke="#263238" stroke-linecap="round" stroke-linejoin="round"/>
<path d="M55.3728 348.269C55.3728 348.269 57.9824 345.594 56.2352 340.681" stroke="#263238" stroke-linecap="round" stroke-linejoin="round"/>
<path d="M51.8896 352.734L49.7056 349.164" stroke="#263238" stroke-linecap="round" stroke-linejoin="round"/>
<path d="M47.9696 356.752C47.9696 356.752 41.44 352.287 37.52 352.287" stroke="#263238" stroke-linecap="round" stroke-linejoin="round"/>
<path d="M112.392 448.237H78.7361V497.888H112.392V448.237Z" fill="#263238" stroke="#263238" stroke-width="2" stroke-linecap="round" stroke-linejoin="round"/>
<path d="M515.693 57.136H294.258V492.986H515.693V57.136Z" stroke="#808080" stroke-linecap="round" stroke-linejoin="round"/>
<path d="M482.72 151.456H444.125V326.032H482.72V151.456Z" stroke="#808080" stroke-linecap="round" stroke-linejoin="round"/>
<path d="M504 277.816H492.285V326.032H504V277.816Z" stroke="#808080" stroke-linecap="round" stroke-linejoin="round"/>
<path d="M524.16 492.986H34.6191" stroke="#263238" stroke-linecap="round" stroke-linejoin="round"/>
<path d="M543.155 492.986H533.12" stroke="#263238" stroke-linecap="round" stroke-linejoin="round"/>
<path d="M350 538.412C390.516 538.412 423.36 532.244 423.36 524.636C423.36 517.028 390.516 510.86 350 510.86C309.484 510.86 276.64 517.028 276.64 524.636C276.64 532.244 309.484 538.412 350 538.412Z" fill="#263238" stroke="#263238" stroke-width="2" stroke-linecap="round" stroke-linejoin="round"/>
<path d="M337.333 147.426C335.448 146.881 333.753 145.798 332.444 144.305C331.136 142.811 330.268 140.968 329.941 138.988C328.406 131.79 341.477 129.724 347.021 125.947C352.565 122.17 364.314 121.711 372.781 123.215C381.248 124.719 392.448 128.576 395.226 134.775C398.003 140.974 403.256 153.534 402.438 161.34C401.994 166.833 400.36 172.154 397.656 176.918C395.909 179.949 397.04 182.658 397.454 184.22C397.869 185.781 396.995 185.93 394.654 189.179C392.314 192.428 391.91 193.564 384.283 192.726C376.656 191.888 373.912 188.065 371.963 185.207C370.014 182.348 365.77 170.765 362.331 165.404C358.893 160.043 358.12 153.809 352.554 149.688C346.987 145.566 343.84 145.211 337.333 147.426Z" fill="#EBEBEB" stroke="#B0B0B0" stroke-linecap="round" stroke-linejoin="round"/>
<path d="M303.285 505.281C303.285 505.281 301.896 512.031 299.118 515.234C296.341 518.437 290.45 523.764 292.88 528.378C295.31 532.993 308.829 537.976 316.803 535.129C324.778 532.282 324.083 524.797 328.238 521.272C332.394 517.748 333.838 515.234 332.058 508.828C330.277 502.422 320.958 496.039 314.72 494.616C308.482 493.192 303.285 505.281 303.285 505.281Z" fill="white" stroke="#263238" stroke-linecap="round" stroke-linejoin="round"/>
<path d="M330.322 518.425C328.586 520.205 325.125 521.984 323.389 524.475C321.653 526.967 320.264 532.293 316.456 532.293C312.648 532.293 307.787 529.09 305.357 526.955C302.926 524.82 299.813 526.955 297.73 528.379C296.681 529.082 295.588 529.715 294.459 530.273C298.939 534.21 309.915 537.586 316.803 535.129C324.778 532.293 324.083 524.797 328.238 521.272C330.333 519.482 331.722 517.966 332.371 516.083C331.61 517.013 330.859 517.874 330.322 518.425Z" fill="#229EF7" stroke="#263238" stroke-linecap="round" stroke-linejoin="round"/>
<path d="M389.973 496.51C389.973 496.51 391.406 503.524 394.285 506.842C397.163 510.16 403.245 515.705 400.77 520.503C398.294 525.302 384.205 530.468 375.928 527.506C367.651 524.544 368.368 516.807 364 513.156C359.632 509.505 358.243 506.876 360.046 500.241C361.85 493.606 371.56 486.959 378.045 485.478C384.53 483.997 389.973 496.51 389.973 496.51Z" fill="white" stroke="#263238" stroke-linecap="round" stroke-linejoin="round"/>
<path d="M361.883 510.171C363.686 512.008 367.282 513.856 369.085 516.439C370.888 519.022 372.333 524.556 376.286 524.556C380.24 524.556 385.246 521.238 387.811 519.022C390.376 516.807 393.568 519.022 395.73 520.503C396.808 521.23 397.93 521.886 399.09 522.466C394.475 526.553 383.04 530.055 375.894 527.506C367.618 524.556 368.334 516.807 364.011 513.122C361.838 511.262 360.394 509.678 359.733 507.738C360.562 508.69 361.323 509.597 361.883 510.171Z" fill="#229EF7" stroke="#263238" stroke-linecap="round" stroke-linejoin="round"/>
<path d="M302.478 308.686C302.478 308.686 300.686 335.25 300.686 346.696C300.686 358.142 298.883 377.692 298.883 380.275C298.883 382.858 295.646 431.568 296.005 447.433C296.363 463.298 306.443 490.609 306.443 490.609C306.443 490.609 299.6 490.977 299.958 495.041C300.317 499.105 303.52 507.956 303.52 507.956C303.52 507.956 307.843 506.475 316.837 506.475C325.83 506.475 334.88 513.156 334.88 513.156C334.88 513.156 334.522 508.725 336.683 500.976C338.845 493.227 334.88 491.344 335.25 484.709C335.619 478.073 336.37 441.9 338.128 432.67C339.886 423.44 348.566 379.161 348.566 379.161C348.566 379.161 359.005 425.667 361.525 430.087C363.027 432.768 363.539 435.913 362.97 438.949C362.97 438.949 361.525 441.532 358.646 450.751C355.768 459.969 356.485 468.097 357.202 475.111C357.639 478.415 357.882 481.742 357.93 485.076C357.93 486.545 356.126 487.292 355.768 490.609C355.41 493.927 359.363 502.422 359.363 502.422C359.363 502.422 369.443 499.093 376.645 499.093C381.774 499.27 386.857 500.138 391.765 501.676C392.81 499.238 393.304 496.589 393.21 493.927C392.851 490.242 392.09 484.33 392.09 479.91C392.09 475.49 399.65 437.434 399.65 428.617C399.65 419.801 403.973 378.794 403.973 376.578C403.973 374.363 406.134 339.314 406.134 328.236C406.046 320.467 405.567 312.708 404.701 304.989L304.248 297.608L302.478 308.686Z" fill="#666666" stroke="#263238" stroke-linecap="round" stroke-linejoin="round"/>
<path d="M333.805 366.993L348.566 379.161L335.608 373.628" stroke="#263238" stroke-linecap="round" stroke-linejoin="round"/>
<path d="M343.84 339.682C343.84 339.682 342.72 358.13 342.72 359.978" stroke="#263238" stroke-linecap="round" stroke-linejoin="round"/>
<path d="M348.566 339.314L348.208 352.229" stroke="#263238" stroke-linecap="round" stroke-linejoin="round"/>
<path d="M320.488 336.364L319.043 351.116" stroke="#263238" stroke-linecap="round" stroke-linejoin="round"/>
<path d="M323.366 336.364L324.083 351.116" stroke="#263238" stroke-linecap="round" stroke-linejoin="round"/>
<path d="M378.806 337.099L379.523 354.445" stroke="#263238" stroke-linecap="round" stroke-linejoin="round"/>
<path d="M382.043 337.466L386.008 350.748" stroke="#263238" stroke-linecap="round" stroke-linejoin="round"/>
<path d="M334.163 486.924C334.163 486.924 330.568 476.96 329.123 470.68C327.678 464.401 325.528 450.016 325.528 450.016" stroke="#263238" stroke-linecap="round" stroke-linejoin="round"/>
<path d="M362.97 433.416C362.97 433.416 368.01 450.016 373.766 454.08" stroke="#263238" stroke-linecap="round" stroke-linejoin="round"/>
<path d="M307.53 504.259C307.53 504.259 325.17 496.51 329.123 498.358C333.077 500.206 329.482 502.422 325.17 501.676" stroke="#263238" stroke-linecap="round" stroke-linejoin="round"/>
<path d="M388.17 496.878C388.17 496.878 382.771 497.256 373.05 495.041C363.328 492.825 357.571 493.893 360.45 495.041C362.297 495.734 364.24 496.122 366.206 496.189" stroke="#263238" stroke-linecap="round" stroke-linejoin="round"/>
<path d="M330.747 196.078C330.747 196.078 309.277 193.185 301.885 200.751C295.485 207.286 291.787 216.096 291.558 225.352C291.558 232.631 287.381 258.059 283.405 271.169C279.429 284.279 280.56 296.494 280.84 302.314C281.256 307.214 282.005 312.078 283.08 316.871V319.787C283.08 319.787 277.402 327.938 277.122 330.842C276.842 333.747 280.806 341.323 281.098 342.781C281.389 344.239 282.52 344.526 285.645 346.225C288.77 347.924 292.454 346.524 294.448 346.524C296.442 346.524 296.688 344.779 299.275 343.321C301.862 341.863 304.674 337.501 304.674 333.999C304.674 330.498 301.829 324.39 300.126 321.773C299.171 320.334 298.417 318.765 297.886 317.112L300.731 311.005C300.731 311.005 307.541 330.796 327.712 336.628C347.883 342.46 381.102 335.48 389.312 332.84C397.522 330.199 401.24 325.561 401.24 325.561L407.21 320.315C407.607 321.256 407.764 322.286 407.664 323.307C407.564 324.328 407.211 325.305 406.638 326.147C404.645 329.051 402.091 331.095 402.091 334.585C402.222 337.926 402.699 341.243 403.514 344.48C404.085 347.098 406.874 347.396 407.49 345.066C408.106 342.735 410.043 348.51 414.299 349.727C418.555 350.944 421.691 347.098 424.816 342.15C427.941 337.202 429.072 335.17 427.65 330.796C426.227 326.422 423.114 323.816 423.674 319.741C424.234 315.666 433.048 292.958 433.899 271.697C434.75 250.436 424.245 212.001 422.262 206.192C420.28 200.383 411.746 189.891 403.222 189.891C394.699 189.891 386.422 192.807 382.491 192.807C379.924 192.789 377.361 192.593 374.819 192.221L334.499 196.297L330.747 196.078Z" fill="#229EF7" stroke="#263238" stroke-linecap="round" stroke-linejoin="round"/>
<path d="M300.731 311.108C300.731 311.108 305.838 296.253 309.534 280.537C313.23 264.821 313.219 253.168 313.219 242.653C313.219 232.137 316.915 217.615 316.915 217.615" stroke="#263238" stroke-linecap="round" stroke-linejoin="round"/>
<path d="M300.16 321.819C299.219 320.421 298.465 318.9 297.92 317.296C292.443 314.357 286.216 317.032 283.102 318.8V319.787C283.102 319.787 277.424 327.938 277.144 330.842C276.864 333.747 280.829 341.323 281.12 342.781C281.411 344.239 282.542 344.526 285.667 346.225C288.792 347.924 292.477 346.524 294.47 346.524C296.464 346.524 296.71 344.779 299.298 343.321C301.885 341.863 304.696 337.501 304.696 333.999C304.696 330.498 301.862 324.436 300.16 321.819Z" fill="white" stroke="#263238" stroke-linecap="round" stroke-linejoin="round"/>
<path d="M427.683 330.842C426.798 328.11 425.242 326.055 424.323 323.897C422.158 322.57 419.689 321.853 417.166 321.819C410.346 321.819 407.792 325.022 407.792 325.022L407.21 325.194C407.052 325.541 406.869 325.875 406.661 326.193C404.667 329.097 402.114 331.141 402.114 334.631C402.244 337.971 402.721 341.289 403.536 344.526C404.107 347.144 406.896 347.442 407.512 345.112C408.128 342.781 410.066 348.556 414.322 349.773C418.578 350.99 421.714 347.144 424.838 342.196C427.963 337.248 429.106 335.216 427.683 330.842Z" fill="white" stroke="#263238" stroke-linecap="round" stroke-linejoin="round"/>
<path d="M407.243 320.361C407.243 320.361 408.094 304.059 403.547 289.801C399 275.543 395.595 267.989 396.726 256.027C397.858 244.065 402.405 211.485 402.976 207.111" stroke="#263238" stroke-linecap="round" stroke-linejoin="round"/>
<path d="M302.714 304.932C302.714 304.932 311.237 322.152 330.266 329.396C349.294 336.64 371.706 333.758 382.245 329.683C392.784 325.607 403.525 316.584 404.97 313.955C405.746 312.559 406.409 311.1 406.952 309.593" stroke="#263238" stroke-linecap="round" stroke-linejoin="round"/>
<path d="M291.357 232.091C291.357 232.091 291.962 244.547 291.962 253.272" stroke="#263238" stroke-linecap="round" stroke-linejoin="round"/>
<path d="M400.333 227.224C400.333 227.224 394.867 245.592 392.437 251.515" stroke="#263238" stroke-linecap="round" stroke-linejoin="round"/>
<path d="M423.427 209.786C423.427 209.786 428.288 224.423 426.16 235.042C424.032 245.661 419.44 259.965 419.44 262.456" stroke="#263238" stroke-linecap="round" stroke-linejoin="round"/>
<path d="M343.045 222.54L356.675 249.036L371.739 219.05C371.739 219.05 366.901 210.899 358.669 209.441C350.437 207.983 340.48 215.262 343.045 222.54Z" fill="white" stroke="#263238" stroke-linecap="round" stroke-linejoin="round"/>
<path d="M355.544 221.093C353.239 221.221 350.999 221.918 349.014 223.125C345.598 225.169 339.069 230.117 339.069 230.117C339.069 230.117 337.646 216.719 337.949 210.027C338.251 203.334 353.002 190.809 362.376 187.319C371.75 183.829 378.28 187.319 379.982 192.853C381.685 198.386 381.405 212.07 378.56 218.763C376.581 223.248 374.204 227.536 371.459 231.575C371.459 231.575 362.656 224.583 360.954 223.125C359.251 221.667 355.544 221.093 355.544 221.093Z" fill="white" stroke="#263238" stroke-linecap="round" stroke-linejoin="round"/>
<path d="M341.018 138.988C341.018 138.988 333.256 150.468 333.032 155.187C332.808 159.905 332.002 167.677 330.355 170.294C328.709 172.912 325.405 178.422 326.234 183.554C327.062 188.685 330.277 199.683 331.419 201.761C332.562 203.839 342.317 207.168 342.317 207.168C342.317 207.168 352.486 216.972 353.92 219.084C355.354 221.197 361.76 219.67 369.421 209.315C377.082 198.96 376.219 188.789 376.219 188.789C376.219 188.789 381.237 190.465 383.32 186.217C385.403 181.97 387.621 171.293 385.034 169.893C382.446 168.492 375.39 173.337 374.763 174.071C374.136 174.806 372.882 171.052 369.6 166.46C366.318 161.868 362.051 160.307 359.99 153.924C357.93 147.541 355.51 142.226 351.691 139.287C347.872 136.348 344.042 136.245 341.018 138.988Z" fill="white" stroke="#263238" stroke-linecap="round" stroke-linejoin="round"/>
<path d="M383.925 167.023C383.925 167.023 381.752 167.229 378.84 171.293C373.946 178.124 372.49 175.885 372.378 171.293C372.31 168.928 367.752 168.446 364.974 165.128C359.596 158.362 354.657 151.241 350.19 143.81C346.494 137.186 341.018 138.988 341.018 138.988C341.018 138.988 331.24 132.916 351.098 130.08" fill="#EBEBEB"/>
<path d="M383.925 167.023C383.925 167.023 381.752 167.229 378.84 171.293C373.946 178.124 372.49 175.885 372.378 171.293C372.31 168.928 367.752 168.446 364.974 165.128C359.596 158.362 354.657 151.241 350.19 143.81C346.494 137.186 341.018 138.988 341.018 138.988C341.018 138.988 331.24 132.916 351.098 130.08" stroke="#B0B0B0" stroke-linecap="round" stroke-linejoin="round"/>
<path d="M341.835 159.802C341.835 159.802 343.258 164.394 342.608 165.542C341.958 166.69 336.235 179.398 336.235 179.398C336.235 179.398 336.907 183.393 340.558 182.394C344.21 181.396 345.128 183.175 346.741 183.359C348.354 183.542 349.283 182.521 348.443 180.19" stroke="#263238" stroke-linecap="round" stroke-linejoin="round"/>
<path d="M333.491 184.633C334.553 185.75 335.875 186.572 337.333 187.021C339.472 187.537 344.299 188.352 345.923 188.525C347.547 188.697 349.989 186.229 349.989 186.229" stroke="#263238" stroke-linecap="round" stroke-linejoin="round"/>
<path d="M335.642 190.189C335.642 190.189 340.234 193.22 345.027 191.785" stroke="#263238" stroke-linecap="round" stroke-linejoin="round"/>
<path d="M352.117 165.978L359.083 169.824" stroke="#263238" stroke-linecap="round" stroke-linejoin="round"/>
<path d="M340.267 164.382L335.283 164.956" stroke="#263238" stroke-linecap="round" stroke-linejoin="round"/>
<path d="M341.23 157.77C340.251 157.102 339.129 156.686 337.959 156.556C336.79 156.426 335.607 156.586 334.51 157.023" stroke="#B0B0B0" stroke-width="2" stroke-linecap="round" stroke-linejoin="round"/>
<path d="M349.754 159.836C349.754 159.836 354.424 156.989 359.296 162.568" stroke="#B0B0B0" stroke-width="2" stroke-linecap="round" stroke-linejoin="round"/>
<path d="M349.373 153.074C349.373 153.074 345.453 156.518 346.629 158.367" stroke="#263238" stroke-linecap="round" stroke-linejoin="round"/>
<path d="M351.68 170.122C351.68 170.122 351.086 173.141 356.07 175.093" stroke="#263238" stroke-linecap="round" stroke-linejoin="round"/>
<path d="M339.909 167.711C338.447 168.955 336.772 169.909 334.97 170.524" stroke="#263238" stroke-linecap="round" stroke-linejoin="round"/>
<path d="M337.826 166.162C337.781 166.565 337.583 166.934 337.275 167.19C336.967 167.445 336.574 167.566 336.179 167.528C335.803 167.462 335.465 167.252 335.234 166.941C335.004 166.629 334.897 166.239 334.937 165.85C334.977 165.461 335.16 165.102 335.449 164.846C335.738 164.591 336.111 164.458 336.493 164.474C336.886 164.52 337.247 164.723 337.496 165.039C337.745 165.354 337.863 165.757 337.826 166.162Z" fill="#263238"/>
<path d="M354.704 168.641C354.683 168.841 354.623 169.035 354.529 169.211C354.435 169.387 354.307 169.542 354.155 169.668C354.002 169.794 353.826 169.888 353.638 169.944C353.45 170 353.253 170.018 353.058 169.996C352.863 169.974 352.674 169.913 352.502 169.816C352.33 169.72 352.179 169.589 352.056 169.433C351.933 169.276 351.842 169.096 351.787 168.903C351.732 168.71 351.715 168.508 351.736 168.308C351.756 168.109 351.813 167.915 351.906 167.739C351.999 167.563 352.126 167.407 352.278 167.281C352.43 167.155 352.605 167.061 352.792 167.005C352.98 166.949 353.177 166.931 353.371 166.954C353.766 166.997 354.128 167.199 354.378 167.515C354.627 167.832 354.745 168.236 354.704 168.641Z" fill="#263238"/>
<path d="M376.208 188.789L372.277 187.296C371.434 189.152 370.389 190.904 369.163 192.52C368.05 193.982 367.029 195.516 366.106 197.112" stroke="#263238" stroke-linecap="round" stroke-linejoin="round"/>
<path d="M343.986 206.422C344.855 206.934 345.839 207.203 346.842 207.203C347.844 207.203 348.829 206.934 349.698 206.422C352.069 205.13 354.318 203.615 356.418 201.899" stroke="#263238" stroke-linecap="round" stroke-linejoin="round"/>
<path d="M410.614 361.299H291.043V369.369H410.614V361.299Z" fill="#8C8C8C" stroke="#263238" stroke-linecap="round" stroke-linejoin="round"/>
<path d="M290.797 531.788C290.312 531.788 289.832 531.69 289.384 531.5C288.936 531.309 288.53 531.03 288.187 530.678C287.845 530.326 287.574 529.908 287.389 529.449C287.205 528.989 287.111 528.497 287.112 528V334.826C287.111 334.329 287.205 333.836 287.389 333.377C287.574 332.917 287.845 332.5 288.187 332.148C288.53 331.796 288.936 331.516 289.384 331.326C289.832 331.135 290.312 331.037 290.797 331.037C291.282 331.037 291.763 331.135 292.211 331.326C292.66 331.516 293.067 331.795 293.41 332.147C293.754 332.499 294.026 332.916 294.212 333.376C294.397 333.836 294.493 334.328 294.493 334.826V528C294.493 528.497 294.397 528.99 294.212 529.449C294.026 529.909 293.754 530.327 293.41 530.679C293.067 531.03 292.66 531.309 292.211 531.5C291.763 531.69 291.282 531.788 290.797 531.788Z" fill="#8C8C8C" stroke="#263238" stroke-linecap="round" stroke-linejoin="round"/>
<path d="M412.832 531.788C412.347 531.788 411.867 531.69 411.419 531.5C410.972 531.309 410.565 531.03 410.223 530.678C409.88 530.326 409.609 529.908 409.424 529.449C409.24 528.989 409.146 528.497 409.147 528V334.826C409.146 334.329 409.24 333.836 409.424 333.377C409.609 332.917 409.88 332.5 410.223 332.148C410.565 331.796 410.972 331.516 411.419 331.326C411.867 331.135 412.347 331.037 412.832 331.037C413.317 331.037 413.798 331.135 414.246 331.326C414.695 331.516 415.102 331.795 415.445 332.147C415.789 332.499 416.061 332.916 416.247 333.376C416.432 333.836 416.528 334.328 416.528 334.826V528C416.528 528.497 416.432 528.99 416.247 529.449C416.061 529.909 415.789 530.327 415.445 530.679C415.102 531.03 414.695 531.309 414.246 531.5C413.798 531.69 413.317 531.788 412.832 531.788Z" fill="#8C8C8C" stroke="#263238" stroke-linecap="round" stroke-linejoin="round"/>
<path d="M204.4 538.412C237.493 538.412 264.32 532.244 264.32 524.636C264.32 517.028 237.493 510.86 204.4 510.86C171.307 510.86 144.48 517.028 144.48 524.636C144.48 532.244 171.307 538.412 204.4 538.412Z" fill="#263238" stroke="#263238" stroke-width="2" stroke-linecap="round" stroke-linejoin="round"/>
<path d="M219.8 500.608C219.8 500.608 231.538 509.276 234.73 511.296C237.922 513.317 243.107 513.133 240.654 517.495C238.202 521.858 225.691 521.192 218.4 521.456C211.109 521.72 203.224 518.793 195.406 518.529C187.589 518.265 194.41 504.156 194.41 504.156C194.41 504.156 211.848 496.085 219.8 500.608Z" fill="white" stroke="#263238" stroke-linecap="round" stroke-linejoin="round"/>
<path d="M240.654 517.495C241.023 516.915 241.239 516.247 241.282 515.555C230.731 519.654 213.461 515.108 209.171 515.257L191.878 515.854C192.056 516.661 192.512 517.376 193.162 517.867C193.812 518.358 194.613 518.593 195.418 518.529C203.258 518.793 211.098 521.709 218.411 521.456C225.725 521.203 238.19 521.846 240.654 517.495Z" fill="white" stroke="#263238" stroke-linecap="round" stroke-linejoin="round"/>
<path d="M238.56 276.473C238.56 276.473 240.89 336.663 237.877 355.972C234.864 375.281 230.317 410.64 226.509 421.408C222.701 432.176 215.186 472.471 215.421 479.393C215.656 486.316 215.331 492.733 215.331 492.733C215.331 492.733 218.456 492.618 219.027 494.203C219.469 496.297 219.713 498.431 219.755 500.574C219.755 500.574 210.459 502.503 207.894 503.651C205.33 504.799 192.45 507.416 192.45 507.416C192.45 507.416 191.766 502.64 191.688 499.977C191.61 497.314 193.928 489.232 193.928 489.232C193.928 489.232 190.882 460.004 189.762 441.9C188.642 423.796 193.581 384.167 193.379 377.772C193.178 371.378 199.36 274.636 199.36 274.636L235.726 272.845L238.56 276.473Z" fill="#229EF7" stroke="#263238" stroke-linecap="round" stroke-linejoin="round"/>
<path d="M188.742 505.419C188.742 505.419 206.786 516.003 209.966 518.047C213.147 520.09 216.832 521.008 215.902 524.234C214.973 527.46 206.752 530.962 193.76 531.409C180.768 531.857 168.706 529.113 163.923 526.037C159.141 522.96 164.024 513.237 164.024 513.237C164.024 513.237 177.632 499.943 188.742 505.419Z" fill="white" stroke="#263238" stroke-linecap="round" stroke-linejoin="round"/>
<path d="M215.902 524.211C216.062 523.695 216.085 523.144 215.97 522.616C212.15 524.2 203.907 526.794 191.979 526.232C181.821 525.647 171.732 524.149 161.829 521.755C161.793 522.589 161.967 523.419 162.334 524.164C162.7 524.91 163.248 525.547 163.923 526.014C168.706 529.056 180.723 531.834 193.76 531.386C206.797 530.939 214.962 527.449 215.902 524.211Z" fill="white" stroke="#263238" stroke-linecap="round" stroke-linejoin="round"/>
<path d="M204.747 359.795C204.747 359.795 199.024 422.935 194.354 439.087C189.683 455.239 186.032 486.316 186.189 491.114C186.281 493.988 186.725 496.838 187.51 499.598C188.461 500.23 189.212 501.131 189.672 502.193C190.092 503.929 190.325 505.708 190.366 507.496C190.366 507.496 187.891 511.319 178.64 514.844C173.166 516.944 167.424 518.22 161.594 518.632C161.594 518.632 162.243 490.873 159.533 471.771C156.822 452.668 158.054 426.999 159.869 418.963C161.683 410.927 165.368 396.37 164.024 387.347C162.68 378.323 160.317 369.346 160.317 369.346L156.094 351.885L204.747 359.795Z" fill="#229EF7" stroke="#263238" stroke-linecap="round" stroke-linejoin="round"/>
<path d="M207.961 157.356C207.961 157.356 196.291 161.317 192.595 164.991C188.899 168.664 199.427 277.495 199.427 277.495C199.427 277.495 216.53 280.456 223.115 280.227C229.701 279.997 238.56 276.473 238.56 276.473C238.56 276.473 236.197 215.399 232.96 202.358C230.896 194.105 228.311 185.998 225.221 178.089L211.445 160.077L207.961 157.356Z" fill="white" stroke="#263238" stroke-linecap="round" stroke-linejoin="round"/>
<path d="M222.298 175.437L226.654 187.354L219.106 183.473C219.106 183.473 221.637 176.471 222.298 175.437Z" stroke="#263238" stroke-linecap="round" stroke-linejoin="round"/>
<path d="M218.478 187.124L222.297 175.483L218.702 168.412C218.702 168.412 216.16 183.427 218.478 187.124Z" stroke="#263238" stroke-linecap="round" stroke-linejoin="round"/>
<path d="M257.6 126.544C258.317 123.1 256.48 108.842 256.48 108.842C256.48 108.842 236.51 117.647 223.171 121.183C209.832 124.719 199.024 130.619 199.091 134.959C199.091 134.959 202.037 144.912 202.686 148C203.336 151.088 199.786 157.471 199.786 157.471C199.786 157.471 207.962 167.929 212.733 172.395L217.627 193.725L219.464 170.822C221.436 168.171 223.272 165.416 224.963 162.568C224.963 162.568 232.165 165.392 234.36 164.864C236.555 164.336 247.8 151.008 247.8 151.008C247.8 151.008 255.539 149.596 256.29 147.667C257.04 145.739 254.408 131.894 254.408 131.894C255.987 130.493 257.102 128.623 257.6 126.544Z" fill="white" stroke="#263238" stroke-linecap="round" stroke-linejoin="round"/>
<path d="M224.907 162.58L218.411 158.619L220.674 167.872L224.907 162.58Z" fill="#263238" stroke="#263238" stroke-linecap="round" stroke-linejoin="round"/>
<path d="M247.33 133.949C246.904 135.395 246.075 136.417 245.482 136.245C244.888 136.072 244.754 134.741 245.179 133.294C245.605 131.848 246.434 130.826 247.027 130.998C247.621 131.17 247.755 132.502 247.33 133.949Z" fill="#263238"/>
<path d="M243.533 128.163C243.533 128.163 247.554 124.041 250.97 127.991" stroke="#263238" stroke-linecap="round" stroke-linejoin="round"/>
<path d="M241.998 152.34C241.998 152.34 237.586 151.835 235.278 146.45" stroke="#263238" stroke-linecap="round" stroke-linejoin="round"/>
<path d="M213.125 131.033C213.125 131.033 224.325 127.084 239.254 121.447C254.184 115.81 263.29 111.448 261.99 105.26C260.691 99.0724 251.373 90.2328 237.35 87.4432C223.328 84.6536 208.23 88.2698 201.925 93.7802C195.619 99.2906 191.968 106.569 193.267 112.757C194.566 118.944 196 134.5 199.36 138.173C202.72 141.847 213.125 131.033 213.125 131.033Z" fill="#263238" stroke="#263238" stroke-linecap="round" stroke-linejoin="round"/>
<path d="M216.731 133.168C216.731 133.168 214.178 123.72 209.787 124.696C205.397 125.672 203.28 136.176 206.606 140.997C209.933 145.819 214.939 142.398 214.939 142.398" fill="white"/>
<path d="M216.731 133.168C216.731 133.168 214.178 123.72 209.787 124.696C205.397 125.672 203.28 136.176 206.606 140.997C209.933 145.819 214.939 142.398 214.939 142.398" stroke="#263238" stroke-linecap="round" stroke-linejoin="round"/>
<path d="M193.917 116.132C193.917 116.132 184.498 104.078 178.326 103.377C172.155 102.677 165.29 112.435 163.666 122.503C162.042 132.571 171.506 136.382 178.046 134.936C184.587 133.49 194.51 123.066 194.488 121.596C194.466 120.127 193.917 116.132 193.917 116.132Z" fill="#263238" stroke="#263238" stroke-linecap="round" stroke-linejoin="round"/>
<path d="M215.6 174.335L207.312 189.202C207.312 189.202 200.256 171.305 198.722 167.321C197.619 163.984 196.846 160.542 196.414 157.046L199.998 154.9L215.6 174.335Z" fill="white" stroke="#263238" stroke-linecap="round" stroke-linejoin="round"/>
<path d="M256.155 286.874C256.155 286.874 251.619 288.929 248.864 289.021C246.109 289.112 247.744 282.133 248.774 277.07C249.805 272.007 254.24 283.166 256.155 286.874Z" fill="white" stroke="#263238" stroke-linecap="round" stroke-linejoin="round"/>
<path d="M252.426 275.991L250.992 297.803L242.032 285.531L241.069 284.302L239.949 267.978C239.949 267.978 250.398 270.4 252.426 275.991Z" fill="white" stroke="#263238" stroke-linecap="round" stroke-linejoin="round"/>
<path d="M238.426 251.94C238.426 251.94 247.531 257.91 251.518 267.22C254.036 273.489 255.6 280.118 256.155 286.874C256.155 286.874 251.541 277.288 247.464 274.59C244.975 272.979 242.237 271.814 239.366 271.146L238.426 251.94Z" fill="white" stroke="#263238" stroke-linecap="round" stroke-linejoin="round"/>
<path d="M196.414 157.046C196.414 157.046 202.72 179.318 208.018 190.568C213.315 201.818 216.037 236.683 218.098 243.548C218.098 243.548 217.034 305.988 217.65 324.643C218.266 343.298 219.352 391.789 219.352 391.789C219.352 391.789 204.378 395.509 178.192 390.55C152.006 385.59 134.568 377.692 134.568 377.692C134.568 377.692 152.656 263.455 153.126 261.836C153.597 260.217 161.997 231.127 162.926 211.898C163.856 192.669 163.565 184.139 171.573 174.255C179.581 164.371 196.414 157.046 196.414 157.046Z" fill="white" stroke="#263238" stroke-linecap="round" stroke-linejoin="round"/>
<path d="M174.093 369.105C172.536 368.749 170.968 368.324 169.4 367.854" stroke="#263238" stroke-linecap="round" stroke-linejoin="round"/>
<path d="M163.744 362.056L166.88 323.644C195.137 329.97 213.102 326.273 213.102 326.273L213.617 369.426C202.132 371.792 190.322 372.002 178.763 370.046" stroke="#263238" stroke-linecap="round" stroke-linejoin="round"/>
<path d="M213.046 331.003C213.046 331.003 195.126 334.711 166.824 328.374" stroke="#263238" stroke-linecap="round" stroke-linejoin="round"/>
<path d="M242.178 282.018C242.178 282.018 251.138 293.658 252.034 301.534C252.93 309.409 249.01 330.9 249.01 330.9L242.178 282.018Z" fill="white" stroke="#263238" stroke-linecap="round" stroke-linejoin="round"/>
<path d="M218.658 175.483C218.658 175.483 231.235 200.464 233.408 219.05C235.581 237.636 236.533 297.883 236.085 316.033C235.637 334.183 234.842 388.621 234.842 388.621C234.842 388.621 252.325 382.146 253.187 376.774C254.05 371.401 248.931 326.79 246.971 314.586C245.011 302.383 240.654 265.222 240.43 258.334C240.206 251.446 244.138 228.877 240.128 217.81C237.586 210.584 235.602 203.164 234.192 195.619C234.192 195.619 235.133 188.536 229.712 180.695C224.291 172.854 217.437 170.191 218.658 175.483Z" fill="white" stroke="#263238" stroke-linecap="round" stroke-linejoin="round"/>
<path d="M229.813 190.568C229.813 190.568 233.173 207.398 234.371 215.709" stroke="#263238" stroke-width="2" stroke-linecap="round" stroke-linejoin="round"/>
<path d="M239.422 248.909C239.422 248.909 236.141 248.301 235.178 247.383C234.214 246.464 230.093 234.192 229.858 227.304C229.622 220.416 231.986 213.861 234.338 213.781C236.69 213.7 238.818 221.977 238.179 231.311C237.854 236.167 230.955 245.167 226.598 247.222C222.242 249.277 221.48 247.406 221.48 247.406" stroke="#263238" stroke-width="2" stroke-linecap="round" stroke-linejoin="round"/>
<path d="M221.894 246.889C221.905 247.265 221.807 247.636 221.612 247.955C221.418 248.274 221.135 248.527 220.801 248.682C220.466 248.837 220.094 248.887 219.732 248.825C219.37 248.764 219.033 248.594 218.765 248.336C218.497 248.079 218.31 247.746 218.226 247.38C218.142 247.014 218.166 246.63 218.295 246.278C218.423 245.925 218.651 245.619 218.949 245.399C219.246 245.179 219.601 245.054 219.968 245.041C220.462 245.025 220.942 245.211 221.303 245.557C221.664 245.904 221.877 246.382 221.894 246.889Z" fill="#263238"/>
<path d="M242.917 248.783C242.932 249.163 242.837 249.539 242.644 249.863C242.45 250.187 242.167 250.445 241.83 250.604C241.493 250.763 241.118 250.816 240.752 250.756C240.386 250.695 240.045 250.525 239.774 250.266C239.503 250.007 239.312 249.672 239.227 249.302C239.142 248.932 239.167 248.544 239.297 248.189C239.427 247.833 239.658 247.525 239.959 247.304C240.261 247.082 240.62 246.958 240.99 246.946C241.483 246.931 241.961 247.115 242.322 247.459C242.683 247.803 242.896 248.279 242.917 248.783Z" fill="#263238"/>
<path d="M226.587 193.691C226.587 193.691 226.822 192.876 229.174 193.335C231.526 193.794 237.171 198.925 237.171 198.925C237.171 198.925 236.219 185.884 231.874 180.431C227.528 174.978 219.822 169.904 219.822 169.904C219.248 170.314 218.857 170.941 218.733 171.647C218.609 172.353 218.763 173.08 219.162 173.669C220.539 176.034 226.587 193.691 226.587 193.691Z" fill="white" stroke="#263238" stroke-linecap="round" stroke-linejoin="round"/>
<path d="M194.69 177.653C194.69 177.653 201.04 214.676 201.656 233.503" stroke="#263238" stroke-width="2" stroke-linecap="round" stroke-linejoin="round"/>
<path d="M207.446 232.355C207.41 231.173 207.032 230.029 206.361 229.068C205.689 228.107 204.754 227.371 203.675 226.955C202.595 226.539 201.419 226.461 200.296 226.731C199.173 227.001 198.153 227.607 197.367 228.471C196.58 229.336 196.061 230.42 195.876 231.587C195.692 232.754 195.849 233.951 196.329 235.027C196.809 236.102 197.59 237.007 198.572 237.627C199.554 238.246 200.694 238.553 201.846 238.509C203.383 238.449 204.835 237.768 205.884 236.615C206.933 235.462 207.495 233.931 207.446 232.355Z" fill="white" stroke="#263238" stroke-linecap="round" stroke-linejoin="round"/>
<path d="M196.414 157.046C196.414 157.046 192.08 157.046 190.322 159.205C189.52 160.167 188.772 161.175 188.082 162.224C188.082 162.224 189.202 188.628 189.448 195.516C189.694 202.404 189.806 206.445 189.806 206.445C189.806 206.445 199.707 199.167 203.034 197.445C205.216 196.346 207.46 195.38 209.754 194.552L199.136 164.52L196.414 157.046Z" fill="white" stroke="#263238" stroke-linecap="round" stroke-linejoin="round"/>
<path d="M156.509 318.65L232.714 311.602L228.278 260.78L152.499 271.594L156.509 318.65Z" fill="#263238" stroke="#263238" stroke-linecap="round" stroke-linejoin="round"/>
<path d="M190.893 294.187C190.893 294.187 195.742 297.389 197.198 297.344C199.181 297.57 201.143 297.954 203.067 298.492C203.986 298.641 207.603 303.198 208.566 304.656C209.53 306.114 213.864 310.465 213.886 311.211C213.909 311.958 212.475 312.566 211.378 312.6C210.339 312.465 209.337 312.117 208.432 311.579C209.073 313.208 209.615 314.875 210.056 316.573C209.953 317.14 209.672 317.656 209.255 318.044C208.838 318.432 208.309 318.669 207.749 318.719C206.121 318.505 204.518 318.12 202.966 317.571C202.966 317.571 202.283 318.903 199.405 320.12C196.526 321.337 196.358 321.727 193.984 321.624C192.678 321.594 191.396 321.263 190.232 320.655C189.069 320.046 188.054 319.177 187.264 318.111C185.539 315.746 180.544 308.25 180.163 307.698C179.88 307.308 179.566 306.943 179.222 306.608L189.941 294.267L190.893 294.187Z" fill="white" stroke="#263238" stroke-linecap="round" stroke-linejoin="round"/>
<path d="M179.2 167.241C179.2 167.241 161.739 174.244 157.506 182.567C153.272 190.89 128.106 258.977 129.651 263.546C131.197 268.116 148.915 284.578 153.978 290.8C159.04 297.022 175.84 312.256 175.84 312.256L192.64 294.611L163.419 258.438L176.859 212.105" fill="white"/>
<path d="M179.2 167.241C179.2 167.241 161.739 174.244 157.506 182.567C153.272 190.89 128.106 258.977 129.651 263.546C131.197 268.115 148.915 284.578 153.978 290.8C159.04 297.022 175.84 312.256 175.84 312.256L192.64 294.611L163.419 258.438L176.859 212.105" stroke="#263238" stroke-linecap="round" stroke-linejoin="round"/>
</svg>
