<svg width="143" height="46" viewBox="0 0 143 46" fill="none" xmlns="http://www.w3.org/2000/svg">
<path d="M23.1562 36H0.117188V2.39062H23.1562V9.11719H6.84375V15.8438H17.8828V22.5703H6.84375V29.2734H23.1562V36ZM31.7128 36H25.2675V0.914062H31.7128V36ZM58.9491 36H57.4022L54.9178 32.5547C54.3084 33.1016 53.66 33.6172 52.9725 34.1016C52.3006 34.5703 51.5897 34.9844 50.8397 35.3438C50.0897 35.6875 49.3162 35.9609 48.5194 36.1641C47.7381 36.3672 46.9412 36.4688 46.1287 36.4688C44.3631 36.4688 42.6991 36.1406 41.1366 35.4844C39.5897 34.8125 38.2303 33.8906 37.0584 32.7188C35.9022 31.5312 34.9881 30.1328 34.3162 28.5234C33.6444 26.8984 33.3084 25.1328 33.3084 23.2266C33.3084 21.3359 33.6444 19.5781 34.3162 17.9531C34.9881 16.3281 35.9022 14.9219 37.0584 13.7344C38.2303 12.5469 39.5897 11.6172 41.1366 10.9453C42.6991 10.2734 44.3631 9.9375 46.1287 9.9375C46.6912 9.9375 47.2694 9.98438 47.8631 10.0781C48.4725 10.1719 49.0584 10.3281 49.6209 10.5469C50.1991 10.75 50.7381 11.0234 51.2381 11.3672C51.7381 11.7109 52.16 12.1328 52.5037 12.6328V0.914062H58.9491V36ZM52.5037 23.2266C52.5037 22.3516 52.3319 21.5078 51.9881 20.6953C51.66 19.8672 51.2069 19.1406 50.6287 18.5156C50.0506 17.875 49.3709 17.3672 48.5897 16.9922C47.8241 16.6016 47.0037 16.4062 46.1287 16.4062C45.2537 16.4062 44.4256 16.5625 43.6444 16.875C42.8787 17.1875 42.2069 17.6406 41.6287 18.2344C41.0662 18.8125 40.6209 19.5234 40.2928 20.3672C39.9647 21.2109 39.8006 22.1641 39.8006 23.2266C39.8006 24.1484 39.9647 25.0234 40.2928 25.8516C40.6209 26.6797 41.0662 27.4062 41.6287 28.0312C42.2069 28.6562 42.8787 29.1484 43.6444 29.5078C44.4256 29.8672 45.2537 30.0469 46.1287 30.0469C47.0037 30.0469 47.8241 29.8594 48.5897 29.4844C49.3709 29.0938 50.0506 28.5859 50.6287 27.9609C51.2069 27.3203 51.66 26.5938 51.9881 25.7812C52.3319 24.9531 52.5037 24.1016 52.5037 23.2266ZM71.9119 29.8594C72.1619 29.9375 72.4119 29.9922 72.6619 30.0234C72.9119 30.0391 73.1619 30.0469 73.4119 30.0469C74.0369 30.0469 74.6384 29.9609 75.2166 29.7891C75.7947 29.6172 76.3338 29.375 76.8338 29.0625C77.3494 28.7344 77.8025 28.3438 78.1931 27.8906C78.5994 27.4219 78.9275 26.9062 79.1775 26.3438L83.865 31.0547C83.2713 31.8984 82.5838 32.6562 81.8025 33.3281C81.0369 34 80.2009 34.5703 79.2947 35.0391C78.4041 35.5078 77.4588 35.8594 76.4588 36.0938C75.4744 36.3438 74.4588 36.4688 73.4119 36.4688C71.6463 36.4688 69.9822 36.1406 68.4197 35.4844C66.8728 34.8281 65.5134 33.9141 64.3416 32.7422C63.1853 31.5703 62.2713 30.1797 61.5994 28.5703C60.9275 26.9453 60.5916 25.1641 60.5916 23.2266C60.5916 21.2422 60.9275 19.4297 61.5994 17.7891C62.2713 16.1484 63.1853 14.75 64.3416 13.5938C65.5134 12.4375 66.8728 11.5391 68.4197 10.8984C69.9822 10.2578 71.6463 9.9375 73.4119 9.9375C74.4588 9.9375 75.4822 10.0625 76.4822 10.3125C77.4822 10.5625 78.4275 10.9219 79.3181 11.3906C80.2244 11.8594 81.0681 12.4375 81.8494 13.125C82.6306 13.7969 83.3181 14.5547 83.9119 15.3984L71.9119 29.8594ZM75.1931 16.6641C74.8963 16.5547 74.5994 16.4844 74.3025 16.4531C74.0213 16.4219 73.7244 16.4062 73.4119 16.4062C72.5369 16.4062 71.7088 16.5703 70.9275 16.8984C70.1619 17.2109 69.49 17.6641 68.9119 18.2578C68.3494 18.8516 67.9041 19.5703 67.5759 20.4141C67.2478 21.2422 67.0838 22.1797 67.0838 23.2266C67.0838 23.4609 67.0916 23.7266 67.1072 24.0234C67.1384 24.3203 67.1775 24.625 67.2244 24.9375C67.2869 25.2344 67.3572 25.5234 67.4353 25.8047C67.5134 26.0859 67.615 26.3359 67.74 26.5547L75.1931 16.6641ZM91.6247 36H85.2262V10.8984H86.7731L88.8825 13.875C89.9137 12.9375 91.0856 12.2188 92.3981 11.7188C93.7106 11.2031 95.07 10.9453 96.4762 10.9453H102.125V17.3203H96.4762C95.8044 17.3203 95.1716 17.4453 94.5778 17.6953C93.9841 17.9453 93.4684 18.2891 93.0309 18.7266C92.5934 19.1641 92.2497 19.6797 91.9997 20.2734C91.7497 20.8672 91.6247 21.5 91.6247 22.1719V36Z" fill="#229EF7"/>
<path d="M108.009 33.6094C108.009 34.1719 107.908 34.7031 107.705 35.2031C107.502 35.6875 107.22 36.1094 106.861 36.4688C106.502 36.8281 106.08 37.1094 105.595 37.3125C105.111 37.5312 104.588 37.6406 104.025 37.6406C103.478 37.6406 102.955 37.5312 102.455 37.3125C101.97 37.1094 101.541 36.8281 101.166 36.4688C100.806 36.1094 100.517 35.6875 100.298 35.2031C100.095 34.7031 99.9938 34.1719 99.9938 33.6094C99.9938 33.0625 100.095 32.5469 100.298 32.0625C100.517 31.5781 100.806 31.1562 101.166 30.7969C101.541 30.4375 101.97 30.1562 102.455 29.9531C102.955 29.7344 103.478 29.625 104.025 29.625C104.588 29.625 105.111 29.7344 105.595 29.9531C106.08 30.1562 106.502 30.4375 106.861 30.7969C107.22 31.1562 107.502 31.5781 107.705 32.0625C107.908 32.5469 108.009 33.0625 108.009 33.6094ZM117.316 36H110.871V0.914062H117.316V36ZM126.341 45.5625V39.1172L129.904 39.1641C130.529 39.1641 131.13 39.0625 131.708 38.8594C132.287 38.6562 132.818 38.375 133.302 38.0156C133.802 37.6562 134.24 37.2266 134.615 36.7266C134.99 36.2422 135.294 35.7109 135.529 35.1328C134.826 35.4297 134.107 35.7266 133.372 36.0234C132.654 36.3203 131.927 36.4688 131.193 36.4688C129.646 36.4688 128.193 36.1953 126.833 35.6484C125.474 35.1016 124.279 34.3281 123.247 33.3281C122.232 32.3125 121.427 31.0859 120.833 29.6484C120.255 28.1953 119.966 26.5703 119.966 24.7734V10.8984H126.341V24.7734C126.341 25.6641 126.466 26.4453 126.716 27.1172C126.982 27.7734 127.333 28.3281 127.771 28.7812C128.208 29.2188 128.716 29.5469 129.294 29.7656C129.888 29.9844 130.521 30.0938 131.193 30.0938C131.849 30.0938 132.466 29.9453 133.044 29.6484C133.638 29.3359 134.154 28.9297 134.591 28.4297C135.029 27.9297 135.372 27.3672 135.622 26.7422C135.872 26.1016 135.997 25.4453 135.997 24.7734V10.8984H142.443V32.8359C142.427 34.6016 142.083 36.2578 141.412 37.8047C140.74 39.3516 139.818 40.7031 138.646 41.8594C137.49 43.0156 136.138 43.9297 134.591 44.6016C133.044 45.2734 131.388 45.6094 129.622 45.6094L126.341 45.5625Z" fill="#343643"/>
</svg>